<svg width="300" height="300" viewBox="0 0 300 300" fill="none" xmlns="http://www.w3.org/2000/svg">
<rect width="300" height="300" rx="10" fill="white"/>
<path d="M198.16 22.64C200.507 22.64 202.56 23.0933 204.32 24C206.08 24.88 207.44 26.1333 208.4 27.76C209.36 29.3867 209.84 31.2933 209.84 33.48C209.84 34.8667 209.533 36.2933 208.92 37.76C208.333 39.2267 207.507 40.5467 206.44 41.72L198.84 50.16C198.413 50.6133 198.013 50.92 197.64 51.08C197.267 51.2667 196.8 51.36 196.24 51.36C194.853 51.36 193.68 50.7867 192.72 49.64L198.24 43.8C199.12 43.5867 199.907 43.32 200.6 43L200.4 42.52C199.28 43.0533 198.093 43.32 196.84 43.32C194.76 43.32 192.933 42.92 191.36 42.12C189.813 41.2933 188.613 40.1467 187.76 38.68C186.933 37.1867 186.52 35.4533 186.52 33.48C186.52 31.2933 186.987 29.3867 187.92 27.76C188.88 26.1333 190.24 24.88 192 24C193.76 23.0933 195.813 22.64 198.16 22.64ZM198.16 27.2C196.213 27.2 194.653 27.7733 193.48 28.92C192.307 30.0667 191.72 31.5867 191.72 33.48C191.72 35.4 192.307 36.9467 193.48 38.12C194.653 39.2667 196.213 39.84 198.16 39.84C200.08 39.84 201.627 39.2533 202.8 38.08C204 36.9067 204.6 35.3733 204.6 33.48C204.6 31.6133 204 30.1067 202.8 28.96C201.627 27.7867 200.08 27.2 198.16 27.2ZM223.887 51.36C221.861 51.36 220.007 51.04 218.327 50.4C216.647 49.7333 215.314 48.8267 214.327 47.68C213.367 46.5333 212.887 45.2667 212.887 43.88C212.887 42.7067 213.221 41.8533 213.887 41.32C214.554 40.7867 215.607 40.52 217.047 40.52L217.887 40.56C217.807 40.9867 217.767 41.52 217.767 42.16C217.767 43.5733 218.314 44.68 219.407 45.48C220.501 46.28 221.994 46.68 223.887 46.68C225.861 46.68 227.367 46.1733 228.407 45.16C229.474 44.12 230.007 42.6533 230.007 40.76C230.007 38.9733 229.461 37.5867 228.367 36.6C227.274 35.6133 225.754 35.12 223.807 35.12C221.674 35.12 219.861 35.68 218.367 36.8C217.701 37.28 217.007 37.52 216.287 37.52C215.567 37.52 214.954 37.3067 214.447 36.88C213.941 36.4267 213.687 35.8533 213.687 35.16C213.687 34.9733 213.701 34.8267 213.727 34.72L215.327 24.92C215.434 24.28 215.701 23.8 216.127 23.48C216.581 23.16 217.167 23 217.887 23H233.967C233.967 26.04 232.727 27.56 230.247 27.56H219.447L218.727 31.84C218.061 32.2933 217.514 32.7467 217.087 33.2L217.287 33.44C218.301 32.5867 219.514 31.9067 220.927 31.4C222.367 30.8933 223.781 30.64 225.167 30.64C227.194 30.64 228.954 31.0533 230.447 31.88C231.967 32.7067 233.127 33.88 233.927 35.4C234.754 36.92 235.167 38.7067 235.167 40.76C235.167 42.92 234.714 44.8 233.807 46.4C232.901 48 231.594 49.2267 229.887 50.08C228.207 50.9333 226.207 51.36 223.887 51.36ZM250.04 51.36C247.96 51.36 246.053 50.96 244.32 50.16C242.613 49.36 241.266 48.2667 240.28 46.88C239.293 45.4667 238.8 43.92 238.8 42.24V31.76C238.8 30.08 239.293 28.5467 240.28 27.16C241.266 25.7467 242.613 24.64 244.32 23.84C246.053 23.04 247.96 22.64 250.04 22.64C252.12 22.64 254.013 23.0533 255.72 23.88C257.453 24.68 258.813 25.7733 259.8 27.16C260.813 28.5467 261.32 30.08 261.32 31.76V42.24C261.32 43.92 260.813 45.4533 259.8 46.84C258.813 48.2267 257.453 49.3333 255.72 50.16C254.013 50.96 252.12 51.36 250.04 51.36ZM250.04 46.68C251.853 46.68 253.293 46.2667 254.36 45.44C255.426 44.5867 255.96 43.4667 255.96 42.08V31.92C255.96 30.5333 255.426 29.4267 254.36 28.6C253.293 27.7467 251.853 27.32 250.04 27.32C248.226 27.32 246.786 27.7467 245.72 28.6C244.653 29.4267 244.12 30.5333 244.12 31.92V42.08C244.12 43.4667 244.653 44.5867 245.72 45.44C246.786 46.2667 248.226 46.68 250.04 46.68ZM267.998 51.36C266.745 51.36 265.718 50.9067 264.918 50L274.478 36.6L265.358 23.64C265.652 23.3467 266.052 23.1067 266.558 22.92C267.092 22.7333 267.638 22.64 268.198 22.64C268.972 22.64 269.692 22.7733 270.358 23.04C271.025 23.28 271.492 23.6133 271.758 24.04L277.118 32.2L276.038 33.76L276.438 34.04L283.158 24.04C283.425 23.6133 283.892 23.28 284.558 23.04C285.225 22.7733 285.945 22.64 286.718 22.64C287.278 22.64 287.812 22.7333 288.318 22.92C288.852 23.1067 289.265 23.3467 289.558 23.64L280.438 36.6L289.998 50C289.172 50.9067 288.145 51.36 286.918 51.36C285.558 51.36 284.532 50.8667 283.838 49.88L277.438 40.48L271.078 49.88C270.758 50.3333 270.318 50.6933 269.758 50.96C269.225 51.2267 268.638 51.36 267.998 51.36Z" fill="#4A4A4A" fill-opacity="0.64"/>
<path d="M24.84 108.6H22.8C21.68 108.6 20.7867 108.187 20.12 107.36C19.4533 106.507 19.12 105.387 19.12 104H27.72C28.4133 104 29 104.227 29.48 104.68C29.96 105.133 30.2 105.667 30.2 106.28V128.4C30.2 129.68 29.7333 130.667 28.8 131.36C27.8933 132.027 26.5733 132.36 24.84 132.36V108.6ZM45.4875 132.36C43.3008 132.36 41.3542 132.04 39.6475 131.4C37.9408 130.733 36.6075 129.813 35.6475 128.64C34.6875 127.44 34.2075 126.08 34.2075 124.56C34.2075 123.307 34.6075 122.4 35.4075 121.84C36.2342 121.28 37.5675 121 39.4075 121C39.3275 121.507 39.2875 122.107 39.2875 122.8C39.2875 124.4 39.8075 125.627 40.8475 126.48C41.9142 127.307 43.4608 127.72 45.4875 127.72C47.4875 127.72 48.9942 127.4 50.0075 126.76C51.0475 126.12 51.5675 125.173 51.5675 123.92C51.5675 121.307 49.7942 120 46.2475 120H44.9275C44.2608 120 43.7142 119.787 43.2875 119.36C42.8608 118.933 42.6475 118.387 42.6475 117.72C42.6475 117.027 42.8475 116.48 43.2475 116.08C43.6742 115.653 44.2342 115.44 44.9275 115.44H46.2875C49.2742 115.44 50.7675 114.227 50.7675 111.8C50.7675 110.653 50.3275 109.787 49.4475 109.2C48.5675 108.587 47.3008 108.28 45.6475 108.28C43.8342 108.28 42.4342 108.6 41.4475 109.24C40.4608 109.853 39.9675 110.747 39.9675 111.92C39.9675 112.427 40.0208 113 40.1275 113.64C38.5808 113.693 37.3142 113.427 36.3275 112.84C35.3675 112.253 34.8875 111.467 34.8875 110.48C34.8875 109.147 35.3408 107.96 36.2475 106.92C37.1542 105.88 38.4208 105.08 40.0475 104.52C41.7008 103.933 43.5675 103.64 45.6475 103.64C47.7542 103.64 49.6075 103.973 51.2075 104.64C52.8075 105.307 54.0342 106.267 54.8875 107.52C55.7675 108.747 56.2075 110.173 56.2075 111.8C56.2075 114.307 54.9142 116.28 52.3275 117.72C54.0075 118.44 55.1942 119.28 55.8875 120.24C56.6075 121.2 56.9675 122.427 56.9675 123.92C56.9675 125.6 56.4875 127.08 55.5275 128.36C54.5675 129.64 53.2208 130.627 51.4875 131.32C49.7542 132.013 47.7542 132.36 45.4875 132.36ZM73.5088 125.08H61.8288C61.1354 125.08 60.5888 124.893 60.1888 124.52C59.7888 124.147 59.5888 123.653 59.5888 123.04C59.5888 122.347 59.7754 121.8 60.1488 121.4L74.1888 104.48C74.4021 104.213 74.7221 104.013 75.1488 103.88C75.5754 103.72 76.0288 103.64 76.5088 103.64C77.2021 103.64 77.7754 103.867 78.2288 104.32C78.6821 104.747 78.9088 105.293 78.9088 105.96V120.52H83.5088C83.5088 122.12 83.2288 123.28 82.6688 124C82.1354 124.72 81.2821 125.08 80.1088 125.08H78.9088V128.96C78.9088 130.133 78.4688 131 77.5888 131.56C76.7354 132.093 75.3754 132.36 73.5088 132.36V125.08ZM73.8288 120.52V112.48L75.3088 110.52L74.9888 110.32L66.5888 120.52H73.8288ZM97.1606 132.36C95.134 132.36 93.2806 132.04 91.6006 131.4C89.9206 130.733 88.5873 129.827 87.6006 128.68C86.6406 127.533 86.1606 126.267 86.1606 124.88C86.1606 123.707 86.494 122.853 87.1606 122.32C87.8273 121.787 88.8806 121.52 90.3206 121.52L91.1606 121.56C91.0806 121.987 91.0406 122.52 91.0406 123.16C91.0406 124.573 91.5873 125.68 92.6806 126.48C93.774 127.28 95.2673 127.68 97.1606 127.68C99.134 127.68 100.641 127.173 101.681 126.16C102.747 125.12 103.281 123.653 103.281 121.76C103.281 119.973 102.734 118.587 101.641 117.6C100.547 116.613 99.0273 116.12 97.0806 116.12C94.9473 116.12 93.134 116.68 91.6406 117.8C90.974 118.28 90.2806 118.52 89.5606 118.52C88.8406 118.52 88.2273 118.307 87.7206 117.88C87.214 117.427 86.9606 116.853 86.9606 116.16C86.9606 115.973 86.974 115.827 87.0006 115.72L88.6006 105.92C88.7073 105.28 88.974 104.8 89.4006 104.48C89.854 104.16 90.4406 104 91.1606 104H107.241C107.241 107.04 106.001 108.56 103.521 108.56H92.7206L92.0006 112.84C91.334 113.293 90.7873 113.747 90.3606 114.2L90.5606 114.44C91.574 113.587 92.7873 112.907 94.2006 112.4C95.6406 111.893 97.054 111.64 98.4406 111.64C100.467 111.64 102.227 112.053 103.721 112.88C105.241 113.707 106.401 114.88 107.201 116.4C108.027 117.92 108.441 119.707 108.441 121.76C108.441 123.92 107.987 125.8 107.081 127.4C106.174 129 104.867 130.227 103.161 131.08C101.481 131.933 99.4806 132.36 97.1606 132.36Z" fill="black"/>
<path d="M26.15 88C25.6833 88 25.2833 87.8583 24.95 87.575C24.6333 87.275 24.475 86.9083 24.475 86.475V72.025C24.475 71.5917 24.6333 71.2333 24.95 70.95C25.2667 70.65 25.6667 70.5 26.15 70.5H31.7C33.1833 70.5 34.4917 70.7833 35.625 71.35C36.775 71.9167 37.6583 72.7167 38.275 73.75C38.9083 74.7667 39.225 75.9333 39.225 77.25V81.2C39.225 82.5167 38.9083 83.6917 38.275 84.725C37.6417 85.7583 36.75 86.5667 35.6 87.15C34.4667 87.7167 33.1667 88 31.7 88H26.15ZM31.45 85.125C32.9 85.125 34 84.8 34.75 84.15C35.5 83.4833 35.875 82.5083 35.875 81.225V77.2C35.875 75.95 35.5 75 34.75 74.35C34 73.7 32.9 73.375 31.45 73.375H27.825V85.125H31.45ZM43.8107 74.1C43.2107 74.1 42.7107 73.925 42.3107 73.575C41.9274 73.2083 41.7357 72.7417 41.7357 72.175C41.7357 71.625 41.9274 71.175 42.3107 70.825C42.7107 70.4583 43.2107 70.275 43.8107 70.275C44.4107 70.275 44.9024 70.4583 45.2857 70.825C45.6857 71.175 45.8857 71.625 45.8857 72.175C45.8857 72.7417 45.6857 73.2083 45.2857 73.575C44.9024 73.925 44.4107 74.1 43.8107 74.1ZM42.2357 77.175C42.2357 76.4917 42.4941 76.0083 43.0107 75.725C43.5274 75.425 44.3107 75.275 45.3607 75.275V86.325C45.3607 86.9917 45.1024 87.475 44.5857 87.775C44.0691 88.075 43.2857 88.225 42.2357 88.225V77.175ZM53.9152 88.225C52.3152 88.225 51.0236 87.9417 50.0402 87.375C49.0736 86.7917 48.5819 86.0167 48.5652 85.05C48.5652 84.6333 48.7319 84.2833 49.0652 84C49.4152 83.7167 49.9652 83.5667 50.7152 83.55C50.8652 84.2833 51.2152 84.85 51.7652 85.25C52.3152 85.6333 52.9819 85.825 53.7652 85.825C54.6152 85.825 55.2819 85.7167 55.7652 85.5C56.2486 85.2833 56.4902 84.9583 56.4902 84.525C56.4902 84.125 56.2902 83.7917 55.8902 83.525C55.5069 83.2583 54.7402 82.9917 53.5902 82.725C52.3402 82.425 51.3652 82.125 50.6652 81.825C49.9819 81.525 49.4736 81.1417 49.1402 80.675C48.8069 80.2083 48.6402 79.5917 48.6402 78.825C48.6402 77.7583 49.0902 76.9 49.9902 76.25C50.8902 75.6 52.1236 75.275 53.6902 75.275C55.2069 75.275 56.4652 75.55 57.4652 76.1C58.4652 76.6333 58.9652 77.35 58.9652 78.25C58.9652 78.7 58.7986 79.0333 58.4652 79.25C58.1319 79.4667 57.5819 79.5833 56.8152 79.6C56.6486 78.9333 56.3319 78.4333 55.8652 78.1C55.3986 77.7667 54.7402 77.6 53.8902 77.6C53.2569 77.6 52.7069 77.7083 52.2402 77.925C51.7902 78.1417 51.5652 78.425 51.5652 78.775C51.5652 79.1417 51.7569 79.425 52.1402 79.625C52.5236 79.825 53.1902 80.025 54.1402 80.225C56.0069 80.625 57.3569 81.1583 58.1902 81.825C59.0402 82.4917 59.4652 83.4 59.4652 84.55C59.4652 85.6667 58.9652 86.5583 57.9652 87.225C56.9819 87.8917 55.6319 88.225 53.9152 88.225ZM66.5334 88.225C65.1834 88.225 64.1834 87.8333 63.5334 87.05C62.8834 86.2667 62.5584 85.2583 62.5584 84.025V77.825H59.9834C59.9834 77.0417 60.1334 76.4583 60.4334 76.075C60.7334 75.6917 61.1334 75.5 61.6334 75.5H62.6084V73.425C62.6084 72.7417 62.8584 72.2583 63.3584 71.975C63.8584 71.675 64.6167 71.525 65.6334 71.525V75.5H68.9584C68.9584 76.3333 68.8001 76.9333 68.4834 77.3C68.1667 77.65 67.6584 77.825 66.9584 77.825H65.6834V83.9C65.6834 84.4833 65.7917 84.9 66.0084 85.15C66.2417 85.4 66.6334 85.525 67.1834 85.525C67.7667 85.525 68.3501 85.3667 68.9334 85.05C69.1001 85.2 69.2334 85.3917 69.3334 85.625C69.4334 85.8417 69.4834 86.0667 69.4834 86.3C69.4834 86.8 69.2251 87.25 68.7084 87.65C68.1917 88.0333 67.4667 88.225 66.5334 88.225Z" fill="black"/>
<path d="M77.8708 75.54C77.8708 74.9933 78.0574 74.5733 78.4308 74.28C78.8174 73.9733 79.3508 73.82 80.0308 73.82V80.54L87.1308 73.82C87.3841 74.02 87.5908 74.24 87.7508 74.48C87.9241 74.72 88.0108 74.9333 88.0108 75.12C88.0108 75.4533 87.7841 75.8267 87.3308 76.24L82.8908 80.44L88.7508 87.56C88.5774 87.76 88.3774 87.9133 88.1508 88.02C87.9374 88.1267 87.7174 88.18 87.4908 88.18C86.9174 88.18 86.4641 87.9733 86.1308 87.56L81.3708 81.8L80.0308 83.06V86.54C80.0308 87.1 79.8574 87.5133 79.5108 87.78C79.1641 88.0467 78.6174 88.18 77.8708 88.18V75.54ZM90.9177 75.52C90.9177 74.9867 91.111 74.5733 91.4977 74.28C91.8843 73.9733 92.411 73.82 93.0777 73.82L97.6977 85.08L97.2977 86.12L97.4577 86.2L102.358 73.82C103.024 73.82 103.551 73.9733 103.938 74.28C104.324 74.5867 104.518 75.0067 104.518 75.54V88.18C103.118 88.18 102.418 87.62 102.418 86.5V78.76L102.978 77.22L102.798 77.16L98.6177 87.58C98.5377 87.7533 98.4177 87.8933 98.2577 88C98.0977 88.12 97.9243 88.18 97.7377 88.18C97.5377 88.18 97.3577 88.1267 97.1977 88.02C97.0377 87.9133 96.9177 87.7667 96.8377 87.58L92.6377 77.14L92.4577 77.22L93.0377 78.74V86.5C93.0377 87.0467 92.8577 87.4667 92.4977 87.76C92.1377 88.04 91.611 88.18 90.9177 88.18V75.52Z" fill="#696969"/>
<path d="M146.057 211.364C144.607 211.364 143.34 211.147 142.257 210.714C141.173 210.264 140.34 209.639 139.757 208.839C139.173 208.022 138.882 207.072 138.882 205.989C138.882 205.072 139.132 204.264 139.632 203.564C140.132 202.864 140.865 202.306 141.832 201.889C140.265 201.022 139.482 199.831 139.482 198.314C139.482 197.364 139.757 196.514 140.307 195.764C140.873 195.014 141.657 194.431 142.657 194.014C143.657 193.597 144.79 193.389 146.057 193.389C147.357 193.389 148.507 193.597 149.507 194.014C150.507 194.431 151.282 195.014 151.832 195.764C152.382 196.497 152.657 197.347 152.657 198.314C152.657 199.831 151.865 201.022 150.282 201.889C151.248 202.306 151.982 202.864 152.482 203.564C152.998 204.264 153.257 205.072 153.257 205.989C153.257 207.072 152.965 208.022 152.382 208.839C151.798 209.656 150.965 210.281 149.882 210.714C148.798 211.147 147.523 211.364 146.057 211.364ZM146.057 200.739C147.09 200.739 147.898 200.539 148.482 200.139C149.082 199.739 149.382 199.181 149.382 198.464C149.382 197.731 149.098 197.172 148.532 196.789C147.982 196.389 147.157 196.189 146.057 196.189C144.99 196.189 144.165 196.389 143.582 196.789C143.015 197.172 142.732 197.731 142.732 198.464C142.732 199.164 143.032 199.722 143.632 200.139C144.248 200.539 145.057 200.739 146.057 200.739ZM146.057 208.539C148.673 208.539 149.982 207.647 149.982 205.864C149.982 204.981 149.64 204.306 148.957 203.839C148.273 203.356 147.307 203.114 146.057 203.114C144.84 203.114 143.882 203.364 143.182 203.864C142.482 204.347 142.132 205.014 142.132 205.864C142.132 206.731 142.465 207.397 143.132 207.864C143.815 208.314 144.79 208.539 146.057 208.539ZM162.416 193.389C163.883 193.389 165.166 193.672 166.266 194.239C167.366 194.789 168.216 195.572 168.816 196.589C169.416 197.606 169.716 198.797 169.716 200.164C169.716 201.031 169.525 201.922 169.141 202.839C168.775 203.756 168.258 204.581 167.591 205.314L162.841 210.589C162.575 210.872 162.325 211.064 162.091 211.164C161.858 211.281 161.566 211.339 161.216 211.339C160.35 211.339 159.616 210.981 159.016 210.264L162.466 206.614C163.016 206.481 163.508 206.314 163.941 206.114L163.816 205.814C163.116 206.147 162.375 206.314 161.591 206.314C160.291 206.314 159.15 206.064 158.166 205.564C157.2 205.047 156.45 204.331 155.916 203.414C155.4 202.481 155.141 201.397 155.141 200.164C155.141 198.797 155.433 197.606 156.016 196.589C156.616 195.572 157.466 194.789 158.566 194.239C159.666 193.672 160.95 193.389 162.416 193.389ZM162.416 196.239C161.2 196.239 160.225 196.597 159.491 197.314C158.758 198.031 158.391 198.981 158.391 200.164C158.391 201.364 158.758 202.331 159.491 203.064C160.225 203.781 161.2 204.139 162.416 204.139C163.616 204.139 164.583 203.772 165.316 203.039C166.066 202.306 166.441 201.347 166.441 200.164C166.441 198.997 166.066 198.056 165.316 197.339C164.583 196.606 163.616 196.239 162.416 196.239Z" fill="black"/>
<path d="M202.377 211.364C200.927 211.364 199.66 211.147 198.577 210.714C197.494 210.264 196.66 209.639 196.077 208.839C195.494 208.022 195.202 207.072 195.202 205.989C195.202 205.072 195.452 204.264 195.952 203.564C196.452 202.864 197.185 202.306 198.152 201.889C196.585 201.022 195.802 199.831 195.802 198.314C195.802 197.364 196.077 196.514 196.627 195.764C197.194 195.014 197.977 194.431 198.977 194.014C199.977 193.597 201.11 193.389 202.377 193.389C203.677 193.389 204.827 193.597 205.827 194.014C206.827 194.431 207.602 195.014 208.152 195.764C208.702 196.497 208.977 197.347 208.977 198.314C208.977 199.831 208.185 201.022 206.602 201.889C207.569 202.306 208.302 202.864 208.802 203.564C209.319 204.264 209.577 205.072 209.577 205.989C209.577 207.072 209.285 208.022 208.702 208.839C208.119 209.656 207.285 210.281 206.202 210.714C205.119 211.147 203.844 211.364 202.377 211.364ZM202.377 200.739C203.41 200.739 204.219 200.539 204.802 200.139C205.402 199.739 205.702 199.181 205.702 198.464C205.702 197.731 205.419 197.172 204.852 196.789C204.302 196.389 203.477 196.189 202.377 196.189C201.31 196.189 200.485 196.389 199.902 196.789C199.335 197.172 199.052 197.731 199.052 198.464C199.052 199.164 199.352 199.722 199.952 200.139C200.569 200.539 201.377 200.739 202.377 200.739ZM202.377 208.539C204.994 208.539 206.302 207.647 206.302 205.864C206.302 204.981 205.96 204.306 205.277 203.839C204.594 203.356 203.627 203.114 202.377 203.114C201.16 203.114 200.202 203.364 199.502 203.864C198.802 204.347 198.452 205.014 198.452 205.864C198.452 206.731 198.785 207.397 199.452 207.864C200.135 208.314 201.11 208.539 202.377 208.539ZM218.737 193.389C220.203 193.389 221.487 193.672 222.587 194.239C223.687 194.789 224.537 195.572 225.137 196.589C225.737 197.606 226.037 198.797 226.037 200.164C226.037 201.031 225.845 201.922 225.462 202.839C225.095 203.756 224.578 204.581 223.912 205.314L219.162 210.589C218.895 210.872 218.645 211.064 218.412 211.164C218.178 211.281 217.887 211.339 217.537 211.339C216.67 211.339 215.937 210.981 215.337 210.264L218.787 206.614C219.337 206.481 219.828 206.314 220.262 206.114L220.137 205.814C219.437 206.147 218.695 206.314 217.912 206.314C216.612 206.314 215.47 206.064 214.487 205.564C213.52 205.047 212.77 204.331 212.237 203.414C211.72 202.481 211.462 201.397 211.462 200.164C211.462 198.797 211.753 197.606 212.337 196.589C212.937 195.572 213.787 194.789 214.887 194.239C215.987 193.672 217.27 193.389 218.737 193.389ZM218.737 196.239C217.52 196.239 216.545 196.597 215.812 197.314C215.078 198.031 214.712 198.981 214.712 200.164C214.712 201.364 215.078 202.331 215.812 203.064C216.545 203.781 217.52 204.139 218.737 204.139C219.937 204.139 220.903 203.772 221.637 203.039C222.387 202.306 222.762 201.347 222.762 200.164C222.762 198.997 222.387 198.056 221.637 197.339C220.903 196.606 219.937 196.239 218.737 196.239Z" fill="black"/>
<path d="M259.125 211.25C257.675 211.25 256.408 211.033 255.325 210.6C254.242 210.15 253.408 209.525 252.825 208.725C252.242 207.908 251.95 206.958 251.95 205.875C251.95 204.958 252.2 204.15 252.7 203.45C253.2 202.75 253.933 202.192 254.9 201.775C253.333 200.908 252.55 199.717 252.55 198.2C252.55 197.25 252.825 196.4 253.375 195.65C253.942 194.9 254.725 194.317 255.725 193.9C256.725 193.483 257.858 193.275 259.125 193.275C260.425 193.275 261.575 193.483 262.575 193.9C263.575 194.317 264.35 194.9 264.9 195.65C265.45 196.383 265.725 197.233 265.725 198.2C265.725 199.717 264.933 200.908 263.35 201.775C264.317 202.192 265.05 202.75 265.55 203.45C266.067 204.15 266.325 204.958 266.325 205.875C266.325 206.958 266.033 207.908 265.45 208.725C264.867 209.542 264.033 210.167 262.95 210.6C261.867 211.033 260.592 211.25 259.125 211.25ZM259.125 200.625C260.158 200.625 260.967 200.425 261.55 200.025C262.15 199.625 262.45 199.067 262.45 198.35C262.45 197.617 262.167 197.058 261.6 196.675C261.05 196.275 260.225 196.075 259.125 196.075C258.058 196.075 257.233 196.275 256.65 196.675C256.083 197.058 255.8 197.617 255.8 198.35C255.8 199.05 256.1 199.608 256.7 200.025C257.317 200.425 258.125 200.625 259.125 200.625ZM259.125 208.425C261.742 208.425 263.05 207.533 263.05 205.75C263.05 204.867 262.708 204.192 262.025 203.725C261.342 203.242 260.375 203 259.125 203C257.908 203 256.95 203.25 256.25 203.75C255.55 204.233 255.2 204.9 255.2 205.75C255.2 206.617 255.533 207.283 256.2 207.75C256.883 208.2 257.858 208.425 259.125 208.425ZM275.485 193.275C276.951 193.275 278.235 193.558 279.335 194.125C280.435 194.675 281.285 195.458 281.885 196.475C282.485 197.492 282.785 198.683 282.785 200.05C282.785 200.917 282.593 201.808 282.21 202.725C281.843 203.642 281.326 204.467 280.66 205.2L275.91 210.475C275.643 210.758 275.393 210.95 275.16 211.05C274.926 211.167 274.635 211.225 274.285 211.225C273.418 211.225 272.685 210.867 272.085 210.15L275.535 206.5C276.085 206.367 276.576 206.2 277.01 206L276.885 205.7C276.185 206.033 275.443 206.2 274.66 206.2C273.36 206.2 272.218 205.95 271.235 205.45C270.268 204.933 269.518 204.217 268.985 203.3C268.468 202.367 268.21 201.283 268.21 200.05C268.21 198.683 268.501 197.492 269.085 196.475C269.685 195.458 270.535 194.675 271.635 194.125C272.735 193.558 274.018 193.275 275.485 193.275ZM275.485 196.125C274.268 196.125 273.293 196.483 272.56 197.2C271.826 197.917 271.46 198.867 271.46 200.05C271.46 201.25 271.826 202.217 272.56 202.95C273.293 203.667 274.268 204.025 275.485 204.025C276.685 204.025 277.651 203.658 278.385 202.925C279.135 202.192 279.51 201.233 279.51 200.05C279.51 198.883 279.135 197.942 278.385 197.225C277.651 196.492 276.685 196.125 275.485 196.125Z" fill="black"/>
<path d="M146.739 167.92C146.739 167.503 146.897 167.145 147.214 166.845C147.547 166.545 147.947 166.395 148.414 166.395H159.564C159.564 167.395 159.389 168.128 159.039 168.595C158.705 169.045 158.155 169.27 157.389 169.27H150.089V173.62H156.739C156.739 174.62 156.564 175.353 156.214 175.82C155.88 176.27 155.33 176.495 154.564 176.495H150.089V181.02H157.914C158.664 181.02 159.205 181.253 159.539 181.72C159.889 182.17 160.064 182.895 160.064 183.895H148.414C147.947 183.895 147.547 183.753 147.214 183.47C146.897 183.17 146.739 182.803 146.739 182.37V167.92Z" fill="#7BE849"/>
<path d="M266.243 182.014C264.743 182.014 263.434 181.831 262.318 181.464C261.201 181.098 260.343 180.581 259.743 179.914C259.159 179.231 258.868 178.439 258.868 177.539C258.868 176.173 259.793 175.489 261.643 175.489C261.709 176.756 262.134 177.714 262.918 178.364C263.718 179.014 264.834 179.339 266.268 179.339C267.451 179.339 268.368 179.139 269.018 178.739C269.668 178.323 269.993 177.748 269.993 177.014C269.993 176.531 269.868 176.139 269.618 175.839C269.368 175.523 268.943 175.248 268.343 175.014C267.743 174.764 266.868 174.514 265.718 174.264C264.084 173.881 262.793 173.456 261.843 172.989C260.909 172.523 260.234 171.964 259.818 171.314C259.401 170.648 259.193 169.823 259.193 168.839C259.193 167.889 259.468 167.056 260.018 166.339C260.584 165.623 261.376 165.064 262.393 164.664C263.426 164.264 264.609 164.064 265.943 164.064C267.226 164.064 268.368 164.239 269.368 164.589C270.384 164.923 271.176 165.398 271.743 166.014C272.326 166.631 272.618 167.339 272.618 168.139C272.618 169.373 271.726 170.014 269.943 170.064C269.843 168.914 269.476 168.073 268.843 167.539C268.209 167.006 267.243 166.739 265.943 166.739C264.826 166.739 263.968 166.923 263.368 167.289C262.768 167.656 262.468 168.173 262.468 168.839C262.468 169.306 262.584 169.698 262.818 170.014C263.051 170.314 263.443 170.581 263.993 170.814C264.543 171.031 265.326 171.256 266.343 171.489C268.059 171.873 269.418 172.306 270.418 172.789C271.418 173.256 272.143 173.831 272.593 174.514C273.043 175.181 273.268 176.006 273.268 176.989C273.268 178.006 272.976 178.898 272.393 179.664C271.826 180.414 271.009 180.998 269.943 181.414C268.893 181.814 267.659 182.014 266.243 182.014Z" fill="#FF0000"/>
<path d="M202.528 167.92C202.528 167.486 202.686 167.128 203.003 166.845C203.319 166.545 203.719 166.395 204.203 166.395H210.878C212.678 166.395 214.069 166.87 215.053 167.82C216.053 168.77 216.553 170.103 216.553 171.82C216.553 172.803 216.353 173.636 215.953 174.32C215.553 174.986 214.944 175.52 214.128 175.92V175.995C215.594 176.645 216.328 177.878 216.328 179.695V181.645C216.328 182.445 216.044 183.061 215.478 183.495C214.911 183.911 214.078 184.12 212.978 184.12V179.845C212.978 178.961 212.803 178.311 212.453 177.895C212.103 177.478 211.569 177.27 210.853 177.27H205.828V181.645C205.828 182.461 205.544 183.078 204.978 183.495C204.428 183.911 203.611 184.12 202.528 184.12V167.92ZM210.703 174.42C211.503 174.42 212.119 174.195 212.553 173.745C212.986 173.278 213.203 172.628 213.203 171.795C213.203 170.095 212.369 169.245 210.703 169.245H205.828V174.42H210.703Z" fill="#0075FF"/>
<path d="M21.26 198.68C21.26 198.08 21.4667 197.62 21.88 197.3C22.3067 196.98 22.9 196.82 23.66 196.82V203.38L30.56 196.82C30.8667 197.047 31.1133 197.293 31.3 197.56C31.4867 197.827 31.58 198.06 31.58 198.26C31.58 198.447 31.5133 198.64 31.38 198.84C31.2467 199.04 31.06 199.253 30.82 199.48L26.58 203.46L32.26 210.44C31.8733 210.933 31.4 211.18 30.84 211.18C30.24 211.18 29.7533 210.953 29.38 210.5L24.92 204.98L23.66 206.16V209.42C23.66 210.02 23.4667 210.467 23.08 210.76C22.6933 211.04 22.0867 211.18 21.26 211.18V198.68ZM34.3264 198.66C34.3264 198.087 34.5397 197.633 34.9664 197.3C35.4064 196.967 35.9931 196.8 36.7264 196.8L41.1464 207.72L40.7064 208.86L40.8864 208.94L45.6064 196.82C46.3531 196.82 46.9397 196.987 47.3664 197.32C47.8064 197.653 48.0264 198.107 48.0264 198.68V211.18C46.4531 211.18 45.6664 210.573 45.6664 209.36V202.28L46.2864 200.6L46.0864 200.54L42.1464 210.52C42.0664 210.707 41.9397 210.867 41.7664 211C41.5931 211.12 41.3997 211.18 41.1864 211.18C40.9597 211.18 40.7531 211.12 40.5664 211C40.3931 210.88 40.2664 210.713 40.1864 210.5L36.2664 200.5L36.0664 200.58L36.6864 202.26V209.36C36.6864 210.573 35.8997 211.18 34.3264 211.18V198.66ZM57.1178 197.08C57.2511 196.813 57.4445 196.607 57.6978 196.46C57.9511 196.313 58.2311 196.24 58.5378 196.24C58.9911 196.24 59.4311 196.393 59.8578 196.7L52.7778 210.9C52.6445 211.167 52.4511 211.367 52.1978 211.5C51.9578 211.647 51.6845 211.72 51.3778 211.72C50.9245 211.72 50.4845 211.56 50.0578 211.24L57.1178 197.08ZM67.6241 211.18C66.4641 211.18 65.4241 210.96 64.5041 210.52C63.5974 210.067 62.8907 209.447 62.3841 208.66C61.8774 207.86 61.6241 206.953 61.6241 205.94V202C61.6241 200.987 61.8707 200.093 62.3641 199.32C62.8707 198.533 63.5707 197.92 64.4641 197.48C65.3707 197.04 66.3974 196.82 67.5441 196.82C68.7041 196.82 69.7307 197 70.6241 197.36C71.5174 197.707 72.2107 198.2 72.7041 198.84C73.2107 199.467 73.4641 200.187 73.4641 201C73.4641 201.467 73.3107 201.833 73.0041 202.1C72.6974 202.353 72.2841 202.48 71.7641 202.48C71.5107 202.48 71.2707 202.453 71.0441 202.4C71.0841 202.2 71.1041 201.9 71.1041 201.5C71.1041 200.74 70.7707 200.12 70.1041 199.64C69.4507 199.16 68.5974 198.92 67.5441 198.92C66.5041 198.92 65.6574 199.207 65.0041 199.78C64.3507 200.353 64.0241 201.093 64.0241 202V205.94C64.0241 206.86 64.3574 207.613 65.0241 208.2C65.6907 208.773 66.5574 209.06 67.6241 209.06C68.6774 209.06 69.5374 208.827 70.2041 208.36C70.8707 207.88 71.2041 207.26 71.2041 206.5C71.2041 206.127 71.1841 205.84 71.1441 205.64C71.3574 205.587 71.5907 205.56 71.8441 205.56C72.3641 205.56 72.7774 205.7 73.0841 205.98C73.4041 206.26 73.5641 206.64 73.5641 207.12C73.5641 207.907 73.3107 208.607 72.8041 209.22C72.3107 209.833 71.6107 210.313 70.7041 210.66C69.7974 211.007 68.7707 211.18 67.6241 211.18ZM75.6155 198.6C75.6155 198.027 75.8021 197.587 76.1755 197.28C76.5621 196.973 77.1221 196.82 77.8555 196.82V202.04C77.6555 202.267 77.4955 202.473 77.3755 202.66L77.4955 202.74C77.9221 202.14 78.4288 201.673 79.0155 201.34C79.6155 200.993 80.2888 200.82 81.0355 200.82C81.7288 200.82 82.3355 200.973 82.8555 201.28C83.3755 201.573 83.7755 201.987 84.0555 202.52C84.3488 203.053 84.4955 203.647 84.4955 204.3V209.74C84.4955 210.247 84.3088 210.613 83.9355 210.84C83.5621 211.067 83.0021 211.18 82.2555 211.18V204.6C82.2555 204.053 82.0888 203.613 81.7555 203.28C81.4355 202.933 80.9621 202.76 80.3355 202.76C79.6421 202.76 79.0555 202.98 78.5755 203.42C78.0955 203.847 77.8555 204.373 77.8555 205V209.74C77.8555 210.247 77.6688 210.613 77.2955 210.84C76.9221 211.067 76.3621 211.18 75.6155 211.18V198.6ZM90.1269 211.18C89.4202 211.18 88.7802 211.047 88.2069 210.78C87.6335 210.513 87.1802 210.127 86.8469 209.62C86.5135 209.113 86.3469 208.52 86.3469 207.84C86.3469 207.147 86.5202 206.547 86.8669 206.04C87.2269 205.52 87.7135 205.127 88.3269 204.86C88.9402 204.58 89.6269 204.44 90.3869 204.44C91.6002 204.44 92.6202 204.853 93.4469 205.68L93.5469 205.58C93.3069 205.34 93.1135 205.167 92.9669 205.06V204.5C92.9669 203.913 92.7669 203.453 92.3669 203.12C91.9669 202.773 91.4069 202.6 90.6869 202.6C90.0469 202.6 89.4869 202.727 89.0069 202.98C88.5269 203.22 88.1402 203.58 87.8469 204.06C87.5802 203.967 87.3535 203.82 87.1669 203.62C86.9935 203.42 86.9069 203.207 86.9069 202.98C86.9069 202.593 87.0869 202.233 87.4469 201.9C87.8069 201.567 88.2869 201.307 88.8869 201.12C89.5002 200.92 90.1602 200.82 90.8669 200.82C92.2269 200.82 93.2802 201.147 94.0269 201.8C94.7869 202.44 95.1669 203.32 95.1669 204.44V209.62C95.1669 210.167 95.0002 210.567 94.6669 210.82C94.3335 211.06 93.8002 211.18 93.0669 211.18V210.32C93.3069 210.08 93.4669 209.907 93.5469 209.8L93.4469 209.72C93.0202 210.2 92.5402 210.567 92.0069 210.82C91.4869 211.06 90.8602 211.18 90.1269 211.18ZM90.6469 209.5C91.3802 209.5 91.9535 209.353 92.3669 209.06C92.7935 208.767 93.0069 208.353 93.0069 207.82C93.0069 207.287 92.7935 206.873 92.3669 206.58C91.9535 206.273 91.3869 206.12 90.6669 206.12C90.0135 206.12 89.4935 206.273 89.1069 206.58C88.7335 206.873 88.5469 207.287 88.5469 207.82C88.5469 208.367 88.7335 208.787 89.1069 209.08C89.4802 209.36 89.9935 209.5 90.6469 209.5ZM102.468 202.76C101.695 202.76 101.061 202.98 100.568 203.42C100.075 203.847 99.8281 204.373 99.8281 205V209.74C99.8281 210.247 99.6415 210.613 99.2681 210.84C98.9081 211.067 98.3481 211.18 97.5881 211.18V202.6C97.5881 201.413 98.3015 200.82 99.7281 200.82V202.02C99.5415 202.233 99.3881 202.447 99.2681 202.66L99.3681 202.74C100.235 201.46 101.295 200.82 102.548 200.82C103.081 200.82 103.488 200.96 103.768 201.24C104.048 201.507 104.188 201.847 104.188 202.26C104.188 202.567 104.108 202.84 103.948 203.08C103.561 202.867 103.068 202.76 102.468 202.76ZM109.227 215.18C108.467 215.18 107.78 215.067 107.167 214.84C106.567 214.627 106.093 214.327 105.747 213.94C105.4 213.567 105.227 213.16 105.227 212.72C105.227 211.947 105.767 211.56 106.847 211.56C106.887 212.133 107.107 212.58 107.507 212.9C107.92 213.22 108.493 213.38 109.227 213.38C110.04 213.38 110.62 213.18 110.967 212.78C111.327 212.38 111.507 211.82 111.507 211.1V210.26C111.707 210.113 111.853 209.973 111.947 209.84L111.867 209.74C111.507 210.1 111.033 210.4 110.447 210.64C109.86 210.867 109.307 210.98 108.787 210.98C108.04 210.98 107.373 210.833 106.787 210.54C106.2 210.233 105.733 209.813 105.387 209.28C105.053 208.747 104.887 208.133 104.887 207.44V204.38C104.887 203.713 105.06 203.107 105.407 202.56C105.767 202.013 106.24 201.587 106.827 201.28C107.413 200.973 108.047 200.82 108.727 200.82C110.06 200.82 111.147 201.387 111.987 202.52L112.087 202.44C111.927 202.227 111.793 202.06 111.687 201.94C111.687 201.193 112.387 200.82 113.787 200.82V210.8C113.787 211.653 113.593 212.413 113.207 213.08C112.82 213.747 112.28 214.26 111.587 214.62C110.893 214.993 110.107 215.18 109.227 215.18ZM109.327 209.04C109.953 209.04 110.48 208.88 110.907 208.56C111.333 208.227 111.547 207.833 111.547 207.38V204.42C111.547 203.953 111.333 203.56 110.907 203.24C110.493 202.907 109.973 202.74 109.347 202.74C108.64 202.74 108.093 202.893 107.707 203.2C107.32 203.507 107.127 203.947 107.127 204.52V207.3C107.127 207.847 107.313 208.273 107.687 208.58C108.073 208.887 108.62 209.04 109.327 209.04ZM120.48 211.18C119.667 211.18 118.92 211.02 118.24 210.7C117.574 210.38 117.047 209.94 116.66 209.38C116.274 208.807 116.08 208.167 116.08 207.46V204.7C116.08 203.967 116.28 203.307 116.68 202.72C117.08 202.133 117.62 201.673 118.3 201.34C118.98 200.993 119.714 200.82 120.5 200.82C121.287 200.82 122 200.98 122.64 201.3C123.294 201.62 123.807 202.073 124.18 202.66C124.567 203.233 124.76 203.88 124.76 204.6V205.78C124.76 206.047 124.66 206.273 124.46 206.46C124.26 206.647 124.007 206.74 123.7 206.74H118.26V207.32C118.26 207.933 118.447 208.427 118.82 208.8C119.207 209.173 119.767 209.36 120.5 209.36C121.22 209.36 121.76 209.207 122.12 208.9C122.48 208.58 122.66 208.16 122.66 207.64C122.74 207.627 122.86 207.62 123.02 207.62C123.474 207.62 123.834 207.727 124.1 207.94C124.38 208.14 124.52 208.427 124.52 208.8C124.52 209.2 124.34 209.587 123.98 209.96C123.62 210.32 123.127 210.613 122.5 210.84C121.887 211.067 121.214 211.18 120.48 211.18ZM122.7 205.08V204.6C122.7 204 122.494 203.52 122.08 203.16C121.68 202.787 121.147 202.6 120.48 202.6C119.814 202.6 119.274 202.787 118.86 203.16C118.46 203.52 118.26 204 118.26 204.6V205.08H122.7Z" fill="#696969"/>
<path d="M21.475 172.025C21.475 171.592 21.6333 171.233 21.95 170.95C22.2667 170.65 22.6667 170.5 23.15 170.5H29.825C31.625 170.5 33.0167 170.975 34 171.925C35 172.875 35.5 174.208 35.5 175.925C35.5 176.908 35.3 177.742 34.9 178.425C34.5 179.092 33.8917 179.625 33.075 180.025V180.1C34.5417 180.75 35.275 181.983 35.275 183.8V185.75C35.275 186.55 34.9917 187.167 34.425 187.6C33.8583 188.017 33.025 188.225 31.925 188.225V183.95C31.925 183.067 31.75 182.417 31.4 182C31.05 181.583 30.5167 181.375 29.8 181.375H24.775V185.75C24.775 186.567 24.4917 187.183 23.925 187.6C23.375 188.017 22.5583 188.225 21.475 188.225V172.025ZM29.65 178.525C30.45 178.525 31.0667 178.3 31.5 177.85C31.9333 177.383 32.15 176.733 32.15 175.9C32.15 174.2 31.3167 173.35 29.65 173.35H24.775V178.525H29.65ZM41.7139 188.225C40.8639 188.225 40.0805 188.058 39.3639 187.725C38.6639 187.392 38.0972 186.917 37.6639 186.3C37.2472 185.667 37.0389 184.917 37.0389 184.05C37.0389 183.183 37.2639 182.433 37.7139 181.8C38.1639 181.15 38.7722 180.658 39.5389 180.325C40.3222 179.975 41.1805 179.8 42.1139 179.8C42.8805 179.8 43.5639 179.925 44.1639 180.175C44.7805 180.408 45.3472 180.767 45.8639 181.25L45.9889 181.125C45.8389 180.975 45.5805 180.75 45.2139 180.45V179.95C45.2139 179.267 44.9722 178.725 44.4889 178.325C44.0055 177.925 43.3305 177.725 42.4639 177.725C40.9139 177.725 39.7722 178.292 39.0389 179.425C38.6722 179.308 38.3639 179.125 38.1139 178.875C37.8639 178.608 37.7389 178.325 37.7389 178.025C37.7389 177.525 37.9639 177.067 38.4139 176.65C38.8639 176.233 39.4722 175.9 40.2389 175.65C41.0055 175.4 41.8389 175.275 42.7389 175.275C44.5055 175.275 45.8722 175.692 46.8389 176.525C47.8055 177.342 48.2889 178.458 48.2889 179.875V186.125C48.2889 186.858 48.0555 187.392 47.5889 187.725C47.1222 188.058 46.3889 188.225 45.3889 188.225V187.2C45.6722 186.917 45.8639 186.708 45.9639 186.575L45.8639 186.45C45.3139 187.033 44.7222 187.475 44.0889 187.775C43.4722 188.075 42.6805 188.225 41.7139 188.225ZM42.5139 185.95C43.3805 185.95 44.0555 185.783 44.5389 185.45C45.0222 185.117 45.2639 184.642 45.2639 184.025C45.2639 183.425 45.0139 182.95 44.5139 182.6C44.0305 182.25 43.3722 182.075 42.5389 182.075C41.7722 182.075 41.1639 182.25 40.7139 182.6C40.2805 182.933 40.0639 183.408 40.0639 184.025C40.0639 184.658 40.2805 185.142 40.7139 185.475C41.1472 185.792 41.7472 185.95 42.5139 185.95ZM51.0893 177.675C51.0893 176.908 51.3309 176.317 51.8143 175.9C52.3143 175.483 53.0643 175.275 54.0643 175.275V176.775C53.8643 177.008 53.6643 177.275 53.4643 177.575L53.6143 177.675C54.1143 176.925 54.7559 176.342 55.5393 175.925C56.3226 175.492 57.1893 175.275 58.1393 175.275C58.9893 175.275 59.7393 175.467 60.3893 175.85C61.0393 176.233 61.5393 176.758 61.8893 177.425C62.2559 178.092 62.4393 178.842 62.4393 179.675V186.325C62.4393 186.992 62.1809 187.475 61.6643 187.775C61.1476 188.075 60.3643 188.225 59.3143 188.225V180.125C59.3143 179.492 59.1226 178.975 58.7393 178.575C58.3726 178.175 57.8309 177.975 57.1143 177.975C56.2643 177.975 55.5643 178.242 55.0143 178.775C54.4643 179.292 54.1893 179.942 54.1893 180.725V186.325C54.1893 186.992 53.9393 187.475 53.4393 187.775C52.9393 188.075 52.1559 188.225 51.0893 188.225V177.675ZM70.375 193.225C69.3917 193.225 68.5167 193.083 67.75 192.8C66.9833 192.533 66.3833 192.167 65.95 191.7C65.5167 191.233 65.3 190.717 65.3 190.15C65.3 189.583 65.4917 189.183 65.875 188.95C66.275 188.717 66.8333 188.6 67.55 188.6C67.6167 189.283 67.8833 189.808 68.35 190.175C68.8167 190.558 69.4917 190.75 70.375 190.75C71.3583 190.75 72.05 190.508 72.45 190.025C72.8667 189.542 73.075 188.875 73.075 188.025V187.175C73.325 186.992 73.5083 186.817 73.625 186.65L73.525 186.525C73.0917 186.958 72.5083 187.308 71.775 187.575C71.0583 187.842 70.3833 187.975 69.75 187.975C68.8167 187.975 67.9833 187.792 67.25 187.425C66.5167 187.042 65.9333 186.508 65.5 185.825C65.0833 185.142 64.875 184.367 64.875 183.5V179.775C64.875 178.942 65.0917 178.183 65.525 177.5C65.975 176.8 66.5583 176.258 67.275 175.875C68.0083 175.475 68.7917 175.275 69.625 175.275C70.5417 175.275 71.3167 175.458 71.95 175.825C72.6 176.192 73.1917 176.717 73.725 177.4L73.825 177.3C73.7417 177.15 73.5833 176.933 73.35 176.65C73.35 175.733 74.3083 175.275 76.225 175.275V187.575C76.225 188.675 75.975 189.65 75.475 190.5C74.975 191.35 74.275 192.017 73.375 192.5C72.4917 192.983 71.4917 193.225 70.375 193.225ZM70.55 185.3C71.2833 185.3 71.9 185.117 72.4 184.75C72.9 184.367 73.15 183.917 73.15 183.4V179.85C73.15 179.317 72.9 178.867 72.4 178.5C71.9167 178.133 71.3 177.95 70.55 177.95C69.7333 177.95 69.1 178.125 68.65 178.475C68.2167 178.825 68 179.325 68 179.975V183.275C68 183.908 68.2167 184.408 68.65 184.775C69.0833 185.125 69.7167 185.3 70.55 185.3ZM84.5178 188.225C83.4844 188.225 82.5428 188.025 81.6928 187.625C80.8428 187.208 80.1678 186.65 79.6678 185.95C79.1678 185.233 78.9178 184.433 78.9178 183.55V180.225C78.9178 179.292 79.1761 178.45 79.6928 177.7C80.2094 176.95 80.8928 176.358 81.7428 175.925C82.6094 175.492 83.5428 175.275 84.5428 175.275C85.5261 175.275 86.4261 175.483 87.2428 175.9C88.0761 176.3 88.7344 176.867 89.2178 177.6C89.7011 178.317 89.9428 179.142 89.9428 180.075V181.475C89.9428 181.842 89.8011 182.15 89.5178 182.4C89.2511 182.65 88.9094 182.775 88.4928 182.775H81.9428V183.325C81.9428 184.042 82.1594 184.625 82.5928 185.075C83.0261 185.525 83.6761 185.75 84.5428 185.75C85.3761 185.75 85.9928 185.567 86.3928 185.2C86.8094 184.833 87.0178 184.358 87.0178 183.775C87.3178 183.742 87.5261 183.725 87.6428 183.725C88.2594 183.725 88.7428 183.867 89.0928 184.15C89.4428 184.417 89.6178 184.8 89.6178 185.3C89.6178 185.783 89.3928 186.25 88.9428 186.7C88.4928 187.15 87.8761 187.517 87.0928 187.8C86.3094 188.083 85.4511 188.225 84.5178 188.225ZM87.1178 180.55V180.075C87.1178 179.375 86.8761 178.808 86.3928 178.375C85.9094 177.942 85.2844 177.725 84.5178 177.725C83.7511 177.725 83.1261 177.942 82.6428 178.375C82.1761 178.792 81.9428 179.358 81.9428 180.075V180.55H87.1178Z" fill="black"/>
<path d="M12.842 270.083H8.504C8.504 268.691 9.134 267.995 10.394 267.995H19.592C19.592 269.387 18.956 270.083 17.684 270.083H15.254V278.975C15.254 279.551 15.05 279.995 14.642 280.307C14.234 280.607 13.634 280.757 12.842 280.757V270.083ZM22.3865 280.757C21.6065 280.757 20.8985 280.619 20.2625 280.343C19.6385 280.055 19.1465 279.659 18.7865 279.155C18.4265 278.651 18.2465 278.081 18.2465 277.445V274.907C18.2465 274.259 18.4205 273.671 18.7685 273.143C19.1285 272.615 19.6205 272.201 20.2445 271.901C20.8685 271.589 21.5825 271.433 22.3865 271.433C23.1905 271.433 23.9045 271.589 24.5285 271.901C25.1645 272.201 25.6565 272.615 26.0045 273.143C26.3645 273.671 26.5445 274.259 26.5445 274.907V277.445C26.5445 278.081 26.3585 278.651 25.9865 279.155C25.6265 279.659 25.1285 280.055 24.4925 280.343C23.8685 280.619 23.1665 280.757 22.3865 280.757ZM22.3865 278.831C22.9865 278.831 23.4545 278.693 23.7905 278.417C24.1385 278.141 24.3125 277.769 24.3125 277.301V275.015C24.3125 274.523 24.1385 274.127 23.7905 273.827C23.4545 273.515 22.9865 273.359 22.3865 273.359C21.7985 273.359 21.3305 273.515 20.9825 273.827C20.6345 274.127 20.4605 274.523 20.4605 275.015V277.301C20.4605 277.769 20.6345 278.141 20.9825 278.417C21.3305 278.693 21.7985 278.831 22.3865 278.831ZM27.9585 272.981C27.9585 272.537 28.1325 272.171 28.4805 271.883C28.8285 271.583 29.3445 271.433 30.0285 271.433V272.405C29.8245 272.681 29.7105 272.843 29.6865 272.891L29.7585 272.963C30.1425 272.459 30.5625 272.081 31.0185 271.829C31.4865 271.565 32.0625 271.433 32.7465 271.433C33.4065 271.433 33.9885 271.571 34.4925 271.847C35.0085 272.111 35.4105 272.489 35.6985 272.981C35.9865 273.473 36.1305 274.037 36.1305 274.673V277.517C36.1305 278.165 35.9685 278.735 35.6445 279.227C35.3325 279.719 34.9005 280.097 34.3485 280.361C33.7965 280.625 33.1725 280.757 32.4765 280.757C32.0325 280.757 31.5705 280.667 31.0905 280.487C30.6225 280.295 30.2265 280.037 29.9025 279.713L29.8305 279.803C29.9145 279.923 30.0465 280.049 30.2265 280.181V282.845C30.2265 283.853 29.4705 284.357 27.9585 284.357V272.981ZM32.0445 278.813C32.6325 278.813 33.0885 278.687 33.4125 278.435C33.7365 278.183 33.8985 277.829 33.8985 277.373V274.817C33.8985 274.349 33.7365 273.995 33.4125 273.755C33.1005 273.503 32.6445 273.377 32.0445 273.377C31.5045 273.377 31.0605 273.509 30.7125 273.773C30.3645 274.025 30.1905 274.343 30.1905 274.727V277.463C30.1905 277.835 30.3585 278.153 30.6945 278.417C31.0425 278.681 31.4925 278.813 32.0445 278.813ZM47.5159 280.757C46.4359 280.757 45.4939 280.625 44.6899 280.361C43.8859 280.097 43.2679 279.725 42.8359 279.245C42.4159 278.753 42.2059 278.183 42.2059 277.535C42.2059 276.551 42.8719 276.059 44.2039 276.059C44.2519 276.971 44.5579 277.661 45.1219 278.129C45.6979 278.597 46.5019 278.831 47.5339 278.831C48.3859 278.831 49.0459 278.687 49.5139 278.399C49.9819 278.099 50.2159 277.685 50.2159 277.157C50.2159 276.809 50.1259 276.527 49.9459 276.311C49.7659 276.083 49.4599 275.885 49.0279 275.717C48.5959 275.537 47.9659 275.357 47.1379 275.177C45.9619 274.901 45.0319 274.595 44.3479 274.259C43.6759 273.923 43.1899 273.521 42.8899 273.053C42.5899 272.573 42.4399 271.979 42.4399 271.271C42.4399 270.587 42.6379 269.987 43.0339 269.471C43.4419 268.955 44.0119 268.553 44.7439 268.265C45.4879 267.977 46.3399 267.833 47.2999 267.833C48.2239 267.833 49.0459 267.959 49.7659 268.211C50.4979 268.451 51.0679 268.793 51.4759 269.237C51.8959 269.681 52.1059 270.191 52.1059 270.767C52.1059 271.655 51.4639 272.117 50.1799 272.153C50.1079 271.325 49.8439 270.719 49.3879 270.335C48.9319 269.951 48.2359 269.759 47.2999 269.759C46.4959 269.759 45.8779 269.891 45.4459 270.155C45.0139 270.419 44.7979 270.791 44.7979 271.271C44.7979 271.607 44.8819 271.889 45.0499 272.117C45.2179 272.333 45.4999 272.525 45.8959 272.693C46.2919 272.849 46.8559 273.011 47.5879 273.179C48.8239 273.455 49.8019 273.767 50.5219 274.115C51.2419 274.451 51.7639 274.865 52.0879 275.357C52.4119 275.837 52.5739 276.431 52.5739 277.139C52.5739 277.871 52.3639 278.513 51.9439 279.065C51.5359 279.605 50.9479 280.025 50.1799 280.325C49.4239 280.613 48.5359 280.757 47.5159 280.757ZM54.3081 272.981C54.3081 272.537 54.4821 272.171 54.8301 271.883C55.1781 271.583 55.6941 271.433 56.3781 271.433V272.405C56.1741 272.681 56.0601 272.843 56.0361 272.891L56.1081 272.963C56.4921 272.459 56.9121 272.081 57.3681 271.829C57.8361 271.565 58.4121 271.433 59.0961 271.433C59.7561 271.433 60.3381 271.571 60.8421 271.847C61.3581 272.111 61.7601 272.489 62.0481 272.981C62.3361 273.473 62.4801 274.037 62.4801 274.673V277.517C62.4801 278.165 62.3181 278.735 61.9941 279.227C61.6821 279.719 61.2501 280.097 60.6981 280.361C60.1461 280.625 59.5221 280.757 58.8261 280.757C58.3821 280.757 57.9201 280.667 57.4401 280.487C56.9721 280.295 56.5761 280.037 56.2521 279.713L56.1801 279.803C56.2641 279.923 56.3961 280.049 56.5761 280.181V282.845C56.5761 283.853 55.8201 284.357 54.3081 284.357V272.981ZM58.3941 278.813C58.9821 278.813 59.4381 278.687 59.7621 278.435C60.0861 278.183 60.2481 277.829 60.2481 277.373V274.817C60.2481 274.349 60.0861 273.995 59.7621 273.755C59.4501 273.503 58.9941 273.377 58.3941 273.377C57.8541 273.377 57.4101 273.509 57.0621 273.773C56.7141 274.025 56.5401 274.343 56.5401 274.727V277.463C56.5401 277.835 56.7081 278.153 57.0441 278.417C57.3921 278.681 57.8421 278.813 58.3941 278.813ZM68.1989 280.757C67.4549 280.757 66.7769 280.613 66.1649 280.325C65.5529 280.025 65.0669 279.623 64.7069 279.119C64.3469 278.603 64.1669 278.027 64.1669 277.391V274.997C64.1669 274.325 64.3529 273.719 64.7249 273.179C65.0969 272.639 65.5889 272.213 66.2009 271.901C66.8249 271.589 67.4969 271.433 68.2169 271.433C68.9249 271.433 69.5729 271.583 70.1609 271.883C70.7609 272.171 71.2349 272.579 71.5829 273.107C71.9309 273.623 72.1049 274.217 72.1049 274.889V275.897C72.1049 276.161 72.0029 276.383 71.7989 276.563C71.6069 276.743 71.3609 276.833 71.0609 276.833H66.3449V277.229C66.3449 277.745 66.5009 278.165 66.8129 278.489C67.1249 278.813 67.5929 278.975 68.2169 278.975C68.8169 278.975 69.2609 278.843 69.5489 278.579C69.8489 278.315 69.9989 277.973 69.9989 277.553C70.2149 277.529 70.3649 277.517 70.4489 277.517C70.8929 277.517 71.2409 277.619 71.4929 277.823C71.7449 278.015 71.8709 278.291 71.8709 278.651C71.8709 278.999 71.7089 279.335 71.3849 279.659C71.0609 279.983 70.6169 280.247 70.0529 280.451C69.4889 280.655 68.8709 280.757 68.1989 280.757ZM70.0709 275.231V274.889C70.0709 274.385 69.8969 273.977 69.5489 273.665C69.2009 273.353 68.7509 273.197 68.1989 273.197C67.6469 273.197 67.1969 273.353 66.8489 273.665C66.5129 273.965 66.3449 274.373 66.3449 274.889V275.231H70.0709ZM77.7614 280.757C77.0174 280.757 76.3394 280.613 75.7274 280.325C75.1154 280.025 74.6294 279.623 74.2694 279.119C73.9094 278.603 73.7294 278.027 73.7294 277.391V274.997C73.7294 274.325 73.9154 273.719 74.2874 273.179C74.6594 272.639 75.1514 272.213 75.7634 271.901C76.3874 271.589 77.0594 271.433 77.7794 271.433C78.4874 271.433 79.1354 271.583 79.7234 271.883C80.3234 272.171 80.7974 272.579 81.1454 273.107C81.4934 273.623 81.6674 274.217 81.6674 274.889V275.897C81.6674 276.161 81.5654 276.383 81.3614 276.563C81.1694 276.743 80.9234 276.833 80.6234 276.833H75.9074V277.229C75.9074 277.745 76.0634 278.165 76.3754 278.489C76.6874 278.813 77.1554 278.975 77.7794 278.975C78.3794 278.975 78.8234 278.843 79.1114 278.579C79.4114 278.315 79.5614 277.973 79.5614 277.553C79.7774 277.529 79.9274 277.517 80.0114 277.517C80.4554 277.517 80.8034 277.619 81.0554 277.823C81.3074 278.015 81.4334 278.291 81.4334 278.651C81.4334 278.999 81.2714 279.335 80.9474 279.659C80.6234 279.983 80.1794 280.247 79.6154 280.451C79.0514 280.655 78.4334 280.757 77.7614 280.757ZM79.6334 275.231V274.889C79.6334 274.385 79.4594 273.977 79.1114 273.665C78.7634 273.353 78.3134 273.197 77.7614 273.197C77.2094 273.197 76.7594 273.353 76.4114 273.665C76.0754 273.965 75.9074 274.373 75.9074 274.889V275.231H79.6334ZM86.7119 280.757C86.0639 280.757 85.4819 280.619 84.9659 280.343C84.4499 280.067 84.0419 279.689 83.7419 279.209C83.4419 278.717 83.2919 278.153 83.2919 277.517V274.673C83.2919 274.049 83.4479 273.491 83.7599 272.999C84.0719 272.507 84.5039 272.123 85.0559 271.847C85.6199 271.571 86.2439 271.433 86.9279 271.433C87.3719 271.433 87.8279 271.529 88.2959 271.721C88.7759 271.901 89.1779 272.147 89.5019 272.459L89.5739 272.369C89.5139 272.273 89.3819 272.153 89.1779 272.009V269.345C89.1779 268.865 89.3639 268.493 89.7359 268.229C90.1199 267.965 90.6959 267.833 91.4639 267.833V279.209C91.4639 279.653 91.2959 280.025 90.9599 280.325C90.6239 280.613 90.1019 280.757 89.3939 280.757V279.767C89.5499 279.575 89.6639 279.419 89.7359 279.299L89.6459 279.227C89.2739 279.731 88.8599 280.115 88.4039 280.379C87.9599 280.631 87.3959 280.757 86.7119 280.757ZM87.3779 278.813C87.9179 278.813 88.3559 278.687 88.6919 278.435C89.0399 278.171 89.2139 277.841 89.2139 277.445V274.727C89.2139 274.343 89.0399 274.025 88.6919 273.773C88.3559 273.509 87.9119 273.377 87.3599 273.377C86.7719 273.377 86.3159 273.503 85.9919 273.755C85.6799 273.995 85.5239 274.343 85.5239 274.799V277.355C85.5239 277.835 85.6799 278.201 85.9919 278.453C86.3159 278.693 86.7779 278.813 87.3779 278.813Z" fill="black"/>
<path d="M19.3168 241.275C20.7835 241.275 22.0668 241.558 23.1668 242.125C24.2668 242.675 25.1168 243.458 25.7168 244.475C26.3168 245.492 26.6168 246.683 26.6168 248.05C26.6168 248.917 26.4251 249.808 26.0418 250.725C25.6751 251.642 25.1585 252.467 24.4918 253.2L19.7418 258.475C19.4751 258.758 19.2251 258.95 18.9918 259.05C18.7585 259.167 18.4668 259.225 18.1168 259.225C17.2501 259.225 16.5168 258.867 15.9168 258.15L19.3668 254.5C19.9168 254.367 20.4085 254.2 20.8418 254L20.7168 253.7C20.0168 254.033 19.2751 254.2 18.4918 254.2C17.1918 254.2 16.0501 253.95 15.0668 253.45C14.1001 252.933 13.3501 252.217 12.8168 251.3C12.3001 250.367 12.0418 249.283 12.0418 248.05C12.0418 246.683 12.3335 245.492 12.9168 244.475C13.5168 243.458 14.3668 242.675 15.4668 242.125C16.5668 241.558 17.8501 241.275 19.3168 241.275ZM19.3168 244.125C18.1001 244.125 17.1251 244.483 16.3918 245.2C15.6585 245.917 15.2918 246.867 15.2918 248.05C15.2918 249.25 15.6585 250.217 16.3918 250.95C17.1251 251.667 18.1001 252.025 19.3168 252.025C20.5168 252.025 21.4835 251.658 22.2168 250.925C22.9668 250.192 23.3418 249.233 23.3418 248.05C23.3418 246.883 22.9668 245.942 22.2168 245.225C21.4835 244.492 20.5168 244.125 19.3168 244.125ZM31.8463 244.375H30.5713C29.8713 244.375 29.313 244.117 28.8963 243.6C28.4796 243.067 28.2713 242.367 28.2713 241.5H33.6463C34.0796 241.5 34.4463 241.642 34.7463 241.925C35.0463 242.208 35.1963 242.542 35.1963 242.925V256.75C35.1963 257.55 34.9046 258.167 34.3213 258.6C33.7546 259.017 32.9296 259.225 31.8463 259.225V244.375Z" fill="black"/>
<path d="M48.2682 258.595C48.1782 258.765 48.0482 258.9 47.8782 259C47.7082 259.09 47.5132 259.135 47.2932 259.135C47.1032 259.135 46.9332 259.09 46.7832 259C46.6332 258.92 46.4882 258.785 46.3482 258.595L44.3682 255.67L43.3482 256.615V257.995C43.3482 258.395 43.1932 258.685 42.8832 258.865C42.5832 259.045 42.1232 259.135 41.5032 259.135V249.805C41.5032 248.845 42.1282 248.365 43.3782 248.365V254.56L46.8132 251.365C47.3132 251.755 47.5632 252.075 47.5632 252.325C47.5632 252.485 47.5182 252.625 47.4282 252.745C47.3482 252.865 47.2182 253.005 47.0382 253.165L45.4632 254.635L48.2682 258.595ZM49.677 252.805C49.677 252.345 49.822 251.99 50.112 251.74C50.402 251.49 50.842 251.365 51.432 251.365V252.265C51.252 252.485 51.132 252.645 51.072 252.745L51.177 252.805C51.487 252.335 51.817 251.98 52.167 251.74C52.517 251.49 52.932 251.365 53.412 251.365C54.282 251.365 54.882 251.79 55.212 252.64C55.462 252.24 55.782 251.93 56.172 251.71C56.562 251.48 57.002 251.365 57.492 251.365C58.172 251.365 58.712 251.615 59.112 252.115C59.522 252.605 59.727 253.235 59.727 254.005V257.995C59.727 258.395 59.572 258.685 59.262 258.865C58.962 259.045 58.502 259.135 57.882 259.135V254.155C57.882 253.785 57.797 253.49 57.627 253.27C57.467 253.05 57.217 252.94 56.877 252.94C56.517 252.94 56.212 253.065 55.962 253.315C55.722 253.555 55.602 253.935 55.602 254.455V257.995C55.602 258.395 55.452 258.685 55.152 258.865C54.862 259.045 54.407 259.135 53.787 259.135V254.155C53.787 253.775 53.707 253.48 53.547 253.27C53.387 253.05 53.137 252.94 52.797 252.94C52.377 252.94 52.057 253.085 51.837 253.375C51.627 253.655 51.522 254.04 51.522 254.53V257.995C51.522 258.395 51.367 258.685 51.057 258.865C50.757 259.045 50.297 259.135 49.677 259.135V252.805ZM66.3157 248.605C66.4157 248.395 66.5657 248.235 66.7657 248.125C66.9757 248.005 67.2057 247.945 67.4557 247.945C67.8657 247.945 68.2357 248.075 68.5657 248.335L63.3157 258.88C63.2057 259.09 63.0507 259.25 62.8507 259.36C62.6507 259.48 62.4257 259.54 62.1757 259.54C61.7957 259.54 61.4307 259.405 61.0807 259.135L66.3157 248.605ZM70.0237 249.805C70.0237 249.345 70.1837 248.99 70.5037 248.74C70.8237 248.49 71.2837 248.365 71.8837 248.365V252.265C71.7537 252.405 71.6337 252.565 71.5237 252.745L71.6137 252.805C72.3037 251.845 73.1837 251.365 74.2537 251.365C74.7637 251.365 75.2137 251.48 75.6037 251.71C75.9937 251.94 76.2937 252.255 76.5037 252.655C76.7237 253.055 76.8337 253.505 76.8337 254.005V257.995C76.8337 258.395 76.6787 258.685 76.3687 258.865C76.0587 259.045 75.5887 259.135 74.9587 259.135V254.275C74.9587 253.895 74.8437 253.585 74.6137 253.345C74.3937 253.105 74.0687 252.985 73.6387 252.985C73.1287 252.985 72.7087 253.145 72.3787 253.465C72.0487 253.775 71.8837 254.165 71.8837 254.635V257.995C71.8837 258.395 71.7287 258.685 71.4187 258.865C71.1087 259.045 70.6437 259.135 70.0237 259.135V249.805Z" fill="#757575"/>
<path d="M234.246 281.162C233.178 281.162 232.224 280.958 231.384 280.55C230.556 280.142 229.908 279.572 229.44 278.84C228.972 278.108 228.738 277.274 228.738 276.338V273.026C228.738 272.09 228.966 271.262 229.422 270.542C229.89 269.81 230.532 269.246 231.348 268.85C232.164 268.442 233.1 268.238 234.156 268.238C235.212 268.238 236.148 268.4 236.964 268.724C237.792 269.036 238.434 269.48 238.89 270.056C239.346 270.62 239.574 271.268 239.574 272C239.574 272.444 239.424 272.798 239.124 273.062C238.836 273.314 238.446 273.44 237.954 273.44C237.714 273.44 237.45 273.404 237.162 273.332C237.186 273.044 237.198 272.762 237.198 272.486C237.198 271.85 236.916 271.334 236.352 270.938C235.788 270.542 235.056 270.344 234.156 270.344C233.268 270.344 232.542 270.596 231.978 271.1C231.426 271.592 231.15 272.234 231.15 273.026V276.338C231.15 277.142 231.438 277.796 232.014 278.3C232.59 278.804 233.334 279.056 234.246 279.056C235.146 279.056 235.878 278.858 236.442 278.462C237.006 278.066 237.288 277.556 237.288 276.932C237.288 276.644 237.276 276.368 237.252 276.104C237.552 276.044 237.804 276.014 238.008 276.014C238.512 276.014 238.914 276.146 239.214 276.41C239.514 276.674 239.664 277.034 239.664 277.49C239.664 278.198 239.436 278.834 238.98 279.398C238.524 279.95 237.882 280.382 237.054 280.694C236.238 281.006 235.302 281.162 234.246 281.162ZM241.402 269.966C241.402 269.414 241.594 268.988 241.978 268.688C242.362 268.388 242.914 268.238 243.634 268.238V272.918C243.478 273.086 243.334 273.278 243.202 273.494L243.31 273.566C244.138 272.414 245.194 271.838 246.478 271.838C247.09 271.838 247.63 271.976 248.098 272.252C248.566 272.528 248.926 272.906 249.178 273.386C249.442 273.866 249.574 274.406 249.574 275.006V279.794C249.574 280.274 249.388 280.622 249.016 280.838C248.644 281.054 248.08 281.162 247.324 281.162V275.33C247.324 274.874 247.186 274.502 246.91 274.214C246.646 273.926 246.256 273.782 245.74 273.782C245.128 273.782 244.624 273.974 244.228 274.358C243.832 274.73 243.634 275.198 243.634 275.762V279.794C243.634 280.274 243.448 280.622 243.076 280.838C242.704 281.054 242.146 281.162 241.402 281.162V269.966ZM254.497 281.162C253.885 281.162 253.321 281.042 252.805 280.802C252.301 280.562 251.893 280.22 251.581 279.776C251.281 279.32 251.131 278.78 251.131 278.156C251.131 277.532 251.293 276.992 251.617 276.536C251.941 276.068 252.379 275.714 252.931 275.474C253.495 275.222 254.113 275.096 254.785 275.096C255.337 275.096 255.829 275.186 256.261 275.366C256.705 275.534 257.113 275.792 257.485 276.14L257.575 276.05C257.467 275.942 257.281 275.78 257.017 275.564V275.204C257.017 274.712 256.843 274.322 256.495 274.034C256.147 273.746 255.661 273.602 255.037 273.602C253.921 273.602 253.099 274.01 252.571 274.826C252.307 274.742 252.085 274.61 251.905 274.43C251.725 274.238 251.635 274.034 251.635 273.818C251.635 273.458 251.797 273.128 252.121 272.828C252.445 272.528 252.883 272.288 253.435 272.108C253.987 271.928 254.587 271.838 255.235 271.838C256.507 271.838 257.491 272.138 258.187 272.738C258.883 273.326 259.231 274.13 259.231 275.15V279.65C259.231 280.178 259.063 280.562 258.727 280.802C258.391 281.042 257.863 281.162 257.143 281.162V280.424C257.347 280.22 257.485 280.07 257.557 279.974L257.485 279.884C257.089 280.304 256.663 280.622 256.207 280.838C255.763 281.054 255.193 281.162 254.497 281.162ZM255.073 279.524C255.697 279.524 256.183 279.404 256.531 279.164C256.879 278.924 257.053 278.582 257.053 278.138C257.053 277.706 256.873 277.364 256.513 277.112C256.165 276.86 255.691 276.734 255.091 276.734C254.539 276.734 254.101 276.86 253.777 277.112C253.465 277.352 253.309 277.694 253.309 278.138C253.309 278.594 253.465 278.942 253.777 279.182C254.089 279.41 254.521 279.524 255.073 279.524ZM265.874 273.782C265.166 273.782 264.59 273.974 264.146 274.358C263.702 274.73 263.48 275.198 263.48 275.762V279.794C263.48 280.274 263.3 280.622 262.94 280.838C262.58 281.054 262.016 281.162 261.248 281.162V273.566C261.248 273.014 261.422 272.588 261.77 272.288C262.13 271.988 262.67 271.838 263.39 271.838V272.9C263.21 273.104 263.066 273.302 262.958 273.494L263.066 273.566C263.822 272.414 264.77 271.838 265.91 271.838C266.426 271.838 266.816 271.976 267.08 272.252C267.344 272.516 267.476 272.852 267.476 273.26C267.476 273.572 267.392 273.836 267.224 274.052C266.9 273.872 266.45 273.782 265.874 273.782ZM271.916 284.762C271.208 284.762 270.578 284.66 270.026 284.456C269.474 284.264 269.042 284 268.73 283.664C268.418 283.328 268.262 282.956 268.262 282.548C268.262 282.14 268.4 281.852 268.676 281.684C268.964 281.516 269.366 281.432 269.882 281.432C269.93 281.924 270.122 282.302 270.458 282.566C270.794 282.842 271.28 282.98 271.916 282.98C272.624 282.98 273.122 282.806 273.41 282.458C273.71 282.11 273.86 281.63 273.86 281.018V280.406C274.04 280.274 274.172 280.148 274.256 280.028L274.184 279.938C273.872 280.25 273.452 280.502 272.924 280.694C272.408 280.886 271.922 280.982 271.466 280.982C270.794 280.982 270.194 280.85 269.666 280.586C269.138 280.31 268.718 279.926 268.406 279.434C268.106 278.942 267.956 278.384 267.956 277.76V275.078C267.956 274.478 268.112 273.932 268.424 273.44C268.748 272.936 269.168 272.546 269.684 272.27C270.212 271.982 270.776 271.838 271.376 271.838C272.036 271.838 272.594 271.97 273.05 272.234C273.518 272.498 273.944 272.876 274.328 273.368L274.4 273.296C274.34 273.188 274.226 273.032 274.058 272.828C274.058 272.168 274.748 271.838 276.128 271.838V280.694C276.128 281.486 275.948 282.188 275.588 282.8C275.228 283.412 274.724 283.892 274.076 284.24C273.44 284.588 272.72 284.762 271.916 284.762ZM272.042 279.056C272.57 279.056 273.014 278.924 273.374 278.66C273.734 278.384 273.914 278.06 273.914 277.688V275.132C273.914 274.748 273.734 274.424 273.374 274.16C273.026 273.896 272.582 273.764 272.042 273.764C271.454 273.764 270.998 273.89 270.674 274.142C270.362 274.394 270.206 274.754 270.206 275.222V277.598C270.206 278.054 270.362 278.414 270.674 278.678C270.986 278.93 271.442 279.056 272.042 279.056ZM282.099 281.162C281.355 281.162 280.677 281.018 280.065 280.73C279.453 280.43 278.967 280.028 278.607 279.524C278.247 279.008 278.067 278.432 278.067 277.796V275.402C278.067 274.73 278.253 274.124 278.625 273.584C278.997 273.044 279.489 272.618 280.101 272.306C280.725 271.994 281.397 271.838 282.117 271.838C282.825 271.838 283.473 271.988 284.061 272.288C284.661 272.576 285.135 272.984 285.483 273.512C285.831 274.028 286.005 274.622 286.005 275.294V276.302C286.005 276.566 285.903 276.788 285.699 276.968C285.507 277.148 285.261 277.238 284.961 277.238H280.245V277.634C280.245 278.15 280.401 278.57 280.713 278.894C281.025 279.218 281.493 279.38 282.117 279.38C282.717 279.38 283.161 279.248 283.449 278.984C283.749 278.72 283.899 278.378 283.899 277.958C284.115 277.934 284.265 277.922 284.349 277.922C284.793 277.922 285.141 278.024 285.393 278.228C285.645 278.42 285.771 278.696 285.771 279.056C285.771 279.404 285.609 279.74 285.285 280.064C284.961 280.388 284.517 280.652 283.953 280.856C283.389 281.06 282.771 281.162 282.099 281.162ZM283.971 275.636V275.294C283.971 274.79 283.797 274.382 283.449 274.07C283.101 273.758 282.651 273.602 282.099 273.602C281.547 273.602 281.097 273.758 280.749 274.07C280.413 274.37 280.245 274.778 280.245 275.294V275.636H283.971ZM291.392 281.162C290.24 281.162 289.31 280.958 288.602 280.55C287.906 280.13 287.552 279.572 287.54 278.876C287.54 278.576 287.66 278.324 287.9 278.12C288.152 277.916 288.548 277.808 289.088 277.796C289.196 278.324 289.448 278.732 289.844 279.02C290.24 279.296 290.72 279.434 291.284 279.434C291.896 279.434 292.376 279.356 292.724 279.2C293.072 279.044 293.246 278.81 293.246 278.498C293.246 278.21 293.102 277.97 292.814 277.778C292.538 277.586 291.986 277.394 291.158 277.202C290.258 276.986 289.556 276.77 289.052 276.554C288.56 276.338 288.194 276.062 287.954 275.726C287.714 275.39 287.594 274.946 287.594 274.394C287.594 273.626 287.918 273.008 288.566 272.54C289.214 272.072 290.102 271.838 291.23 271.838C292.322 271.838 293.228 272.036 293.948 272.432C294.668 272.816 295.028 273.332 295.028 273.98C295.028 274.304 294.908 274.544 294.668 274.7C294.428 274.856 294.032 274.94 293.48 274.952C293.36 274.472 293.132 274.112 292.796 273.872C292.46 273.632 291.986 273.512 291.374 273.512C290.918 273.512 290.522 273.59 290.186 273.746C289.862 273.902 289.7 274.106 289.7 274.358C289.7 274.622 289.838 274.826 290.114 274.97C290.39 275.114 290.87 275.258 291.554 275.402C292.898 275.69 293.87 276.074 294.47 276.554C295.082 277.034 295.388 277.688 295.388 278.516C295.388 279.32 295.028 279.962 294.308 280.442C293.6 280.922 292.628 281.162 291.392 281.162Z" fill="black"/>
<path d="M243.275 244.375H242C241.3 244.375 240.742 244.117 240.325 243.6C239.908 243.067 239.7 242.367 239.7 241.5H245.075C245.508 241.5 245.875 241.642 246.175 241.925C246.475 242.208 246.625 242.542 246.625 242.925V256.75C246.625 257.55 246.333 258.167 245.75 258.6C245.183 259.017 244.358 259.225 243.275 259.225V244.375ZM256.53 259.225C255.23 259.225 254.038 258.975 252.955 258.475C251.888 257.975 251.046 257.292 250.43 256.425C249.813 255.542 249.505 254.575 249.505 253.525V246.975C249.505 245.925 249.813 244.967 250.43 244.1C251.046 243.217 251.888 242.525 252.955 242.025C254.038 241.525 255.23 241.275 256.53 241.275C257.83 241.275 259.013 241.533 260.08 242.05C261.163 242.55 262.013 243.233 262.63 244.1C263.263 244.967 263.58 245.925 263.58 246.975V253.525C263.58 254.575 263.263 255.533 262.63 256.4C262.013 257.267 261.163 257.958 260.08 258.475C259.013 258.975 257.83 259.225 256.53 259.225ZM256.53 256.3C257.663 256.3 258.563 256.042 259.23 255.525C259.896 254.992 260.23 254.292 260.23 253.425V247.075C260.23 246.208 259.896 245.517 259.23 245C258.563 244.467 257.663 244.2 256.53 244.2C255.396 244.2 254.496 244.467 253.83 245C253.163 245.517 252.83 246.208 252.83 247.075V253.425C252.83 254.292 253.163 254.992 253.83 255.525C254.496 256.042 255.396 256.3 256.53 256.3ZM272.879 259.225C271.512 259.225 270.296 259.025 269.229 258.625C268.162 258.208 267.329 257.633 266.729 256.9C266.129 256.15 265.829 255.3 265.829 254.35C265.829 253.567 266.079 253 266.579 252.65C267.096 252.3 267.929 252.125 269.079 252.125C269.029 252.442 269.004 252.817 269.004 253.25C269.004 254.25 269.329 255.017 269.979 255.55C270.646 256.067 271.612 256.325 272.879 256.325C274.129 256.325 275.071 256.125 275.704 255.725C276.354 255.325 276.679 254.733 276.679 253.95C276.679 252.317 275.571 251.5 273.354 251.5H272.529C272.112 251.5 271.771 251.367 271.504 251.1C271.237 250.833 271.104 250.492 271.104 250.075C271.104 249.642 271.229 249.3 271.479 249.05C271.746 248.783 272.096 248.65 272.529 248.65H273.379C275.246 248.65 276.179 247.892 276.179 246.375C276.179 245.658 275.904 245.117 275.354 244.75C274.804 244.367 274.012 244.175 272.979 244.175C271.846 244.175 270.971 244.375 270.354 244.775C269.737 245.158 269.429 245.717 269.429 246.45C269.429 246.767 269.462 247.125 269.529 247.525C268.562 247.558 267.771 247.392 267.154 247.025C266.554 246.658 266.254 246.167 266.254 245.55C266.254 244.717 266.537 243.975 267.104 243.325C267.671 242.675 268.462 242.175 269.479 241.825C270.512 241.458 271.679 241.275 272.979 241.275C274.296 241.275 275.454 241.483 276.454 241.9C277.454 242.317 278.221 242.917 278.754 243.7C279.304 244.467 279.579 245.358 279.579 246.375C279.579 247.942 278.771 249.175 277.154 250.075C278.204 250.525 278.946 251.05 279.379 251.65C279.829 252.25 280.054 253.017 280.054 253.95C280.054 255 279.754 255.925 279.154 256.725C278.554 257.525 277.712 258.142 276.629 258.575C275.546 259.008 274.296 259.225 272.879 259.225Z" fill="black"/>
<path d="M129.275 244.375H128C127.3 244.375 126.742 244.117 126.325 243.6C125.908 243.067 125.7 242.367 125.7 241.5H131.075C131.508 241.5 131.875 241.642 132.175 241.925C132.475 242.208 132.625 242.542 132.625 242.925V256.75C132.625 257.55 132.333 258.167 131.75 258.6C131.183 259.017 130.358 259.225 129.275 259.225V244.375ZM142.005 259.225C140.738 259.225 139.58 259.025 138.53 258.625C137.48 258.208 136.646 257.642 136.03 256.925C135.43 256.208 135.13 255.417 135.13 254.55C135.13 253.817 135.338 253.283 135.755 252.95C136.171 252.617 136.83 252.45 137.73 252.45L138.255 252.475C138.205 252.742 138.18 253.075 138.18 253.475C138.18 254.358 138.521 255.05 139.205 255.55C139.888 256.05 140.821 256.3 142.005 256.3C143.238 256.3 144.18 255.983 144.83 255.35C145.496 254.7 145.83 253.783 145.83 252.6C145.83 251.483 145.488 250.617 144.805 250C144.121 249.383 143.171 249.075 141.955 249.075C140.621 249.075 139.488 249.425 138.555 250.125C138.138 250.425 137.705 250.575 137.255 250.575C136.805 250.575 136.421 250.442 136.105 250.175C135.788 249.892 135.63 249.533 135.63 249.1C135.63 248.983 135.638 248.892 135.655 248.825L136.655 242.7C136.721 242.3 136.888 242 137.155 241.8C137.438 241.6 137.805 241.5 138.255 241.5H148.305C148.305 243.4 147.53 244.35 145.98 244.35H139.23L138.78 247.025C138.363 247.308 138.021 247.592 137.755 247.875L137.88 248.025C138.513 247.492 139.271 247.067 140.155 246.75C141.055 246.433 141.938 246.275 142.805 246.275C144.071 246.275 145.171 246.533 146.105 247.05C147.055 247.567 147.78 248.3 148.28 249.25C148.796 250.2 149.055 251.317 149.055 252.6C149.055 253.95 148.771 255.125 148.205 256.125C147.638 257.125 146.821 257.892 145.755 258.425C144.705 258.958 143.455 259.225 142.005 259.225ZM159.4 254.675H152.1C151.667 254.675 151.325 254.558 151.075 254.325C150.825 254.092 150.7 253.783 150.7 253.4C150.7 252.967 150.817 252.625 151.05 252.375L159.825 241.8C159.958 241.633 160.158 241.508 160.425 241.425C160.692 241.325 160.975 241.275 161.275 241.275C161.708 241.275 162.067 241.417 162.35 241.7C162.633 241.967 162.775 242.308 162.775 242.725V251.825H165.65C165.65 252.825 165.475 253.55 165.125 254C164.792 254.45 164.258 254.675 163.525 254.675H162.775V257.1C162.775 257.833 162.5 258.375 161.95 258.725C161.417 259.058 160.567 259.225 159.4 259.225V254.675ZM159.6 251.825V246.8L160.525 245.575L160.325 245.45L155.075 251.825H159.6Z" fill="black"/>
<path d="M177.875 258.595C177.785 258.765 177.655 258.9 177.485 259C177.315 259.09 177.12 259.135 176.9 259.135C176.71 259.135 176.54 259.09 176.39 259C176.24 258.92 176.095 258.785 175.955 258.595L173.975 255.67L172.955 256.615V257.995C172.955 258.395 172.8 258.685 172.49 258.865C172.19 259.045 171.73 259.135 171.11 259.135V249.805C171.11 248.845 171.735 248.365 172.985 248.365V254.56L176.42 251.365C176.92 251.755 177.17 252.075 177.17 252.325C177.17 252.485 177.125 252.625 177.035 252.745C176.955 252.865 176.825 253.005 176.645 253.165L175.07 254.635L177.875 258.595ZM179.283 252.805C179.283 252.345 179.428 251.99 179.718 251.74C180.008 251.49 180.448 251.365 181.038 251.365V252.265C180.858 252.485 180.738 252.645 180.678 252.745L180.783 252.805C181.093 252.335 181.423 251.98 181.773 251.74C182.123 251.49 182.538 251.365 183.018 251.365C183.888 251.365 184.488 251.79 184.818 252.64C185.068 252.24 185.388 251.93 185.778 251.71C186.168 251.48 186.608 251.365 187.098 251.365C187.778 251.365 188.318 251.615 188.718 252.115C189.128 252.605 189.333 253.235 189.333 254.005V257.995C189.333 258.395 189.178 258.685 188.868 258.865C188.568 259.045 188.108 259.135 187.488 259.135V254.155C187.488 253.785 187.403 253.49 187.233 253.27C187.073 253.05 186.823 252.94 186.483 252.94C186.123 252.94 185.818 253.065 185.568 253.315C185.328 253.555 185.208 253.935 185.208 254.455V257.995C185.208 258.395 185.058 258.685 184.758 258.865C184.468 259.045 184.013 259.135 183.393 259.135V254.155C183.393 253.775 183.313 253.48 183.153 253.27C182.993 253.05 182.743 252.94 182.403 252.94C181.983 252.94 181.663 253.085 181.443 253.375C181.233 253.655 181.128 254.04 181.128 254.53V257.995C181.128 258.395 180.973 258.685 180.663 258.865C180.363 259.045 179.903 259.135 179.283 259.135V252.805Z" fill="#757575"/>
<path d="M110.322 281C109.974 281 109.674 280.874 109.422 280.622C109.182 280.37 109.062 280.07 109.062 279.722V270.02C109.062 269.42 109.26 268.976 109.656 268.688C110.052 268.388 110.658 268.238 111.474 268.238V278.912H116.334C116.898 278.912 117.324 279.092 117.612 279.452C117.9 279.8 118.044 280.316 118.044 281H110.322ZM122.562 281.162C121.782 281.162 121.074 281.024 120.438 280.748C119.814 280.46 119.322 280.064 118.962 279.56C118.602 279.056 118.422 278.486 118.422 277.85V275.312C118.422 274.664 118.596 274.076 118.944 273.548C119.304 273.02 119.796 272.606 120.42 272.306C121.044 271.994 121.758 271.838 122.562 271.838C123.366 271.838 124.08 271.994 124.704 272.306C125.34 272.606 125.832 273.02 126.18 273.548C126.54 274.076 126.72 274.664 126.72 275.312V277.85C126.72 278.486 126.534 279.056 126.162 279.56C125.802 280.064 125.304 280.46 124.668 280.748C124.044 281.024 123.342 281.162 122.562 281.162ZM122.562 279.236C123.162 279.236 123.63 279.098 123.966 278.822C124.314 278.546 124.488 278.174 124.488 277.706V275.42C124.488 274.928 124.314 274.532 123.966 274.232C123.63 273.92 123.162 273.764 122.562 273.764C121.974 273.764 121.506 273.92 121.158 274.232C120.81 274.532 120.636 274.928 120.636 275.42V277.706C120.636 278.174 120.81 278.546 121.158 278.822C121.506 279.098 121.974 279.236 122.562 279.236ZM128.134 273.566C128.134 273.014 128.308 272.588 128.656 272.288C129.016 271.988 129.556 271.838 130.276 271.838V272.918C130.132 273.086 129.988 273.278 129.844 273.494L129.952 273.566C130.312 273.026 130.774 272.606 131.338 272.306C131.902 271.994 132.526 271.838 133.21 271.838C133.822 271.838 134.362 271.976 134.83 272.252C135.298 272.528 135.658 272.906 135.91 273.386C136.174 273.866 136.306 274.406 136.306 275.006V279.794C136.306 280.274 136.12 280.622 135.748 280.838C135.376 281.054 134.812 281.162 134.056 281.162V275.33C134.056 274.874 133.918 274.502 133.642 274.214C133.378 273.926 132.988 273.782 132.472 273.782C131.86 273.782 131.356 273.974 130.96 274.358C130.564 274.73 130.366 275.198 130.366 275.762V279.794C130.366 280.274 130.186 280.622 129.826 280.838C129.466 281.054 128.902 281.162 128.134 281.162V273.566ZM142.02 284.762C141.312 284.762 140.682 284.66 140.13 284.456C139.578 284.264 139.146 284 138.834 283.664C138.522 283.328 138.366 282.956 138.366 282.548C138.366 282.14 138.504 281.852 138.78 281.684C139.068 281.516 139.47 281.432 139.986 281.432C140.034 281.924 140.226 282.302 140.562 282.566C140.898 282.842 141.384 282.98 142.02 282.98C142.728 282.98 143.226 282.806 143.514 282.458C143.814 282.11 143.964 281.63 143.964 281.018V280.406C144.144 280.274 144.276 280.148 144.36 280.028L144.288 279.938C143.976 280.25 143.556 280.502 143.028 280.694C142.512 280.886 142.026 280.982 141.57 280.982C140.898 280.982 140.298 280.85 139.77 280.586C139.242 280.31 138.822 279.926 138.51 279.434C138.21 278.942 138.06 278.384 138.06 277.76V275.078C138.06 274.478 138.216 273.932 138.528 273.44C138.852 272.936 139.272 272.546 139.788 272.27C140.316 271.982 140.88 271.838 141.48 271.838C142.14 271.838 142.698 271.97 143.154 272.234C143.622 272.498 144.048 272.876 144.432 273.368L144.504 273.296C144.444 273.188 144.33 273.032 144.162 272.828C144.162 272.168 144.852 271.838 146.232 271.838V280.694C146.232 281.486 146.052 282.188 145.692 282.8C145.332 283.412 144.828 283.892 144.18 284.24C143.544 284.588 142.824 284.762 142.02 284.762ZM142.146 279.056C142.674 279.056 143.118 278.924 143.478 278.66C143.838 278.384 144.018 278.06 144.018 277.688V275.132C144.018 274.748 143.838 274.424 143.478 274.16C143.13 273.896 142.686 273.764 142.146 273.764C141.558 273.764 141.102 273.89 140.778 274.142C140.466 274.394 140.31 274.754 140.31 275.222V277.598C140.31 278.054 140.466 278.414 140.778 278.678C141.09 278.93 141.546 279.056 142.146 279.056ZM152.203 281.162C151.459 281.162 150.781 281.018 150.169 280.73C149.557 280.43 149.071 280.028 148.711 279.524C148.351 279.008 148.171 278.432 148.171 277.796V275.402C148.171 274.73 148.357 274.124 148.729 273.584C149.101 273.044 149.593 272.618 150.205 272.306C150.829 271.994 151.501 271.838 152.221 271.838C152.929 271.838 153.577 271.988 154.165 272.288C154.765 272.576 155.239 272.984 155.587 273.512C155.935 274.028 156.109 274.622 156.109 275.294V276.302C156.109 276.566 156.007 276.788 155.803 276.968C155.611 277.148 155.365 277.238 155.065 277.238H150.349V277.634C150.349 278.15 150.505 278.57 150.817 278.894C151.129 279.218 151.597 279.38 152.221 279.38C152.821 279.38 153.265 279.248 153.553 278.984C153.853 278.72 154.003 278.378 154.003 277.958C154.219 277.934 154.369 277.922 154.453 277.922C154.897 277.922 155.245 278.024 155.497 278.228C155.749 278.42 155.875 278.696 155.875 279.056C155.875 279.404 155.713 279.74 155.389 280.064C155.065 280.388 154.621 280.652 154.057 280.856C153.493 281.06 152.875 281.162 152.203 281.162ZM154.075 275.636V275.294C154.075 274.79 153.901 274.382 153.553 274.07C153.205 273.758 152.755 273.602 152.203 273.602C151.651 273.602 151.201 273.758 150.853 274.07C150.517 274.37 150.349 274.778 150.349 275.294V275.636H154.075ZM161.495 281.162C160.343 281.162 159.413 280.958 158.705 280.55C158.009 280.13 157.655 279.572 157.643 278.876C157.643 278.576 157.763 278.324 158.003 278.12C158.255 277.916 158.651 277.808 159.191 277.796C159.299 278.324 159.551 278.732 159.947 279.02C160.343 279.296 160.823 279.434 161.387 279.434C161.999 279.434 162.479 279.356 162.827 279.2C163.175 279.044 163.349 278.81 163.349 278.498C163.349 278.21 163.205 277.97 162.917 277.778C162.641 277.586 162.089 277.394 161.261 277.202C160.361 276.986 159.659 276.77 159.155 276.554C158.663 276.338 158.297 276.062 158.057 275.726C157.817 275.39 157.697 274.946 157.697 274.394C157.697 273.626 158.021 273.008 158.669 272.54C159.317 272.072 160.205 271.838 161.333 271.838C162.425 271.838 163.331 272.036 164.051 272.432C164.771 272.816 165.131 273.332 165.131 273.98C165.131 274.304 165.011 274.544 164.771 274.7C164.531 274.856 164.135 274.94 163.583 274.952C163.463 274.472 163.235 274.112 162.899 273.872C162.563 273.632 162.089 273.512 161.477 273.512C161.021 273.512 160.625 273.59 160.289 273.746C159.965 273.902 159.803 274.106 159.803 274.358C159.803 274.622 159.941 274.826 160.217 274.97C160.493 275.114 160.973 275.258 161.657 275.402C163.001 275.69 163.973 276.074 164.573 276.554C165.185 277.034 165.491 277.688 165.491 278.516C165.491 279.32 165.131 279.962 164.411 280.442C163.703 280.922 162.731 281.162 161.495 281.162ZM170.58 281.162C169.608 281.162 168.888 280.88 168.42 280.316C167.952 279.752 167.718 279.026 167.718 278.138V273.674H165.864C165.864 273.11 165.972 272.69 166.188 272.414C166.404 272.138 166.692 272 167.052 272H167.754V270.506C167.754 270.014 167.934 269.666 168.294 269.462C168.654 269.246 169.2 269.138 169.932 269.138V272H172.326C172.326 272.6 172.212 273.032 171.984 273.296C171.756 273.548 171.39 273.674 170.886 273.674H169.968V278.048C169.968 278.468 170.046 278.768 170.202 278.948C170.37 279.128 170.652 279.218 171.048 279.218C171.468 279.218 171.888 279.104 172.308 278.876C172.428 278.984 172.524 279.122 172.596 279.29C172.668 279.446 172.704 279.608 172.704 279.776C172.704 280.136 172.518 280.46 172.146 280.748C171.774 281.024 171.252 281.162 170.58 281.162ZM179.041 269.498C179.041 269.186 179.155 268.928 179.383 268.724C179.611 268.508 179.899 268.4 180.247 268.4H185.053C186.349 268.4 187.351 268.742 188.059 269.426C188.779 270.11 189.139 271.07 189.139 272.306C189.139 273.014 188.995 273.614 188.707 274.106C188.419 274.586 187.981 274.97 187.393 275.258V275.312C188.449 275.78 188.977 276.668 188.977 277.976V279.38C188.977 279.956 188.773 280.4 188.365 280.712C187.957 281.012 187.357 281.162 186.565 281.162V278.084C186.565 277.448 186.439 276.98 186.187 276.68C185.935 276.38 185.551 276.23 185.035 276.23H181.417V279.38C181.417 279.968 181.213 280.412 180.805 280.712C180.409 281.012 179.821 281.162 179.041 281.162V269.498ZM184.927 274.178C185.503 274.178 185.947 274.016 186.259 273.692C186.571 273.356 186.727 272.888 186.727 272.288C186.727 271.064 186.127 270.452 184.927 270.452H181.417V274.178H184.927ZM192.576 270.992C192.144 270.992 191.784 270.866 191.496 270.614C191.22 270.35 191.082 270.014 191.082 269.606C191.082 269.21 191.22 268.886 191.496 268.634C191.784 268.37 192.144 268.238 192.576 268.238C193.008 268.238 193.362 268.37 193.638 268.634C193.926 268.886 194.07 269.21 194.07 269.606C194.07 270.014 193.926 270.35 193.638 270.614C193.362 270.866 193.008 270.992 192.576 270.992ZM191.442 273.206C191.442 272.714 191.628 272.366 192 272.162C192.372 271.946 192.936 271.838 193.692 271.838V279.794C193.692 280.274 193.506 280.622 193.134 280.838C192.762 281.054 192.198 281.162 191.442 281.162V273.206ZM199.509 281.162C198.861 281.162 198.279 281.024 197.763 280.748C197.247 280.472 196.839 280.094 196.539 279.614C196.239 279.122 196.089 278.558 196.089 277.922V275.078C196.089 274.454 196.245 273.896 196.557 273.404C196.869 272.912 197.301 272.528 197.853 272.252C198.417 271.976 199.041 271.838 199.725 271.838C200.169 271.838 200.625 271.934 201.093 272.126C201.573 272.306 201.975 272.552 202.299 272.864L202.371 272.774C202.311 272.678 202.179 272.558 201.975 272.414V269.75C201.975 269.27 202.161 268.898 202.533 268.634C202.917 268.37 203.493 268.238 204.261 268.238V279.614C204.261 280.058 204.093 280.43 203.757 280.73C203.421 281.018 202.899 281.162 202.191 281.162V280.172C202.347 279.98 202.461 279.824 202.533 279.704L202.443 279.632C202.071 280.136 201.657 280.52 201.201 280.784C200.757 281.036 200.193 281.162 199.509 281.162ZM200.175 279.218C200.715 279.218 201.153 279.092 201.489 278.84C201.837 278.576 202.011 278.246 202.011 277.85V275.132C202.011 274.748 201.837 274.43 201.489 274.178C201.153 273.914 200.709 273.782 200.157 273.782C199.569 273.782 199.113 273.908 198.789 274.16C198.477 274.4 198.321 274.748 198.321 275.204V277.76C198.321 278.24 198.477 278.606 198.789 278.858C199.113 279.098 199.575 279.218 200.175 279.218ZM210.299 281.162C209.555 281.162 208.877 281.018 208.265 280.73C207.653 280.43 207.167 280.028 206.807 279.524C206.447 279.008 206.267 278.432 206.267 277.796V275.402C206.267 274.73 206.453 274.124 206.825 273.584C207.197 273.044 207.689 272.618 208.301 272.306C208.925 271.994 209.597 271.838 210.317 271.838C211.025 271.838 211.673 271.988 212.261 272.288C212.861 272.576 213.335 272.984 213.683 273.512C214.031 274.028 214.205 274.622 214.205 275.294V276.302C214.205 276.566 214.103 276.788 213.899 276.968C213.707 277.148 213.461 277.238 213.161 277.238H208.445V277.634C208.445 278.15 208.601 278.57 208.913 278.894C209.225 279.218 209.693 279.38 210.317 279.38C210.917 279.38 211.361 279.248 211.649 278.984C211.949 278.72 212.099 278.378 212.099 277.958C212.315 277.934 212.465 277.922 212.549 277.922C212.993 277.922 213.341 278.024 213.593 278.228C213.845 278.42 213.971 278.696 213.971 279.056C213.971 279.404 213.809 279.74 213.485 280.064C213.161 280.388 212.717 280.652 212.153 280.856C211.589 281.06 210.971 281.162 210.299 281.162ZM212.171 275.636V275.294C212.171 274.79 211.997 274.382 211.649 274.07C211.301 273.758 210.851 273.602 210.299 273.602C209.747 273.602 209.297 273.758 208.949 274.07C208.613 274.37 208.445 274.778 208.445 275.294V275.636H212.171Z" fill="black"/>
<path d="M22.003 37.137C22.003 36.8423 22.1107 36.5987 22.326 36.406C22.5413 36.202 22.8133 36.1 23.142 36.1H27.681C28.905 36.1 29.8513 36.423 30.52 37.069C31.2 37.715 31.54 38.6217 31.54 39.789C31.54 40.4577 31.404 41.0243 31.132 41.489C30.86 41.9423 30.4463 42.305 29.891 42.577V42.628C30.8883 43.07 31.387 43.9087 31.387 45.144V46.47C31.387 47.014 31.1943 47.4333 30.809 47.728C30.4237 48.0113 29.857 48.153 29.109 48.153V45.246C29.109 44.6453 28.99 44.2033 28.752 43.92C28.514 43.6367 28.1513 43.495 27.664 43.495H24.247V46.47C24.247 47.0253 24.0543 47.4447 23.669 47.728C23.295 48.0113 22.7397 48.153 22.003 48.153V37.137ZM27.562 41.557C28.106 41.557 28.5253 41.404 28.82 41.098C29.1147 40.7807 29.262 40.3387 29.262 39.772C29.262 38.616 28.6953 38.038 27.562 38.038H24.247V41.557H27.562ZM34.7861 38.548C34.3781 38.548 34.0381 38.429 33.7661 38.191C33.5054 37.9417 33.3751 37.6243 33.3751 37.239C33.3751 36.865 33.5054 36.559 33.7661 36.321C34.0381 36.0717 34.3781 35.947 34.7861 35.947C35.1941 35.947 35.5284 36.0717 35.7891 36.321C36.0611 36.559 36.1971 36.865 36.1971 37.239C36.1971 37.6243 36.0611 37.9417 35.7891 38.191C35.5284 38.429 35.1941 38.548 34.7861 38.548ZM33.7151 40.639C33.7151 40.1743 33.8907 39.8457 34.2421 39.653C34.5934 39.449 35.1261 39.347 35.8401 39.347V46.861C35.8401 47.3143 35.6644 47.643 35.3131 47.847C34.9617 48.051 34.4291 48.153 33.7151 48.153V40.639ZM41.3341 48.153C40.7221 48.153 40.1725 48.0227 39.6851 47.762C39.1978 47.5013 38.8125 47.1443 38.5291 46.691C38.2458 46.2263 38.1041 45.6937 38.1041 45.093V42.407C38.1041 41.8177 38.2515 41.2907 38.5461 40.826C38.8408 40.3613 39.2488 39.9987 39.7701 39.738C40.3028 39.4773 40.8921 39.347 41.5381 39.347C41.9575 39.347 42.3881 39.4377 42.8301 39.619C43.2835 39.789 43.6631 40.0213 43.9691 40.316L44.0371 40.231C43.9805 40.1403 43.8558 40.027 43.6631 39.891V37.375C43.6631 36.9217 43.8388 36.5703 44.1901 36.321C44.5528 36.0717 45.0968 35.947 45.8221 35.947V46.691C45.8221 47.1103 45.6635 47.4617 45.3461 47.745C45.0288 48.017 44.5358 48.153 43.8671 48.153V47.218C44.0145 47.0367 44.1221 46.8893 44.1901 46.776L44.1051 46.708C43.7538 47.184 43.3628 47.5467 42.9321 47.796C42.5128 48.034 41.9801 48.153 41.3341 48.153ZM41.9631 46.317C42.4731 46.317 42.8868 46.198 43.2041 45.96C43.5328 45.7107 43.6971 45.399 43.6971 45.025V42.458C43.6971 42.0953 43.5328 41.795 43.2041 41.557C42.8868 41.3077 42.4675 41.183 41.9461 41.183C41.3908 41.183 40.9601 41.302 40.6541 41.54C40.3595 41.7667 40.2121 42.0953 40.2121 42.526V44.94C40.2121 45.3933 40.3595 45.739 40.6541 45.977C40.9601 46.2037 41.3965 46.317 41.9631 46.317ZM51.5244 48.153C50.8218 48.153 50.1814 48.017 49.6034 47.745C49.0254 47.4617 48.5664 47.082 48.2264 46.606C47.8864 46.1187 47.7164 45.5747 47.7164 44.974V42.713C47.7164 42.0783 47.8921 41.506 48.2434 40.996C48.5948 40.486 49.0594 40.0837 49.6374 39.789C50.2268 39.4943 50.8614 39.347 51.5414 39.347C52.2101 39.347 52.8221 39.4887 53.3774 39.772C53.9441 40.044 54.3918 40.4293 54.7204 40.928C55.0491 41.4153 55.2134 41.9763 55.2134 42.611V43.563C55.2134 43.8123 55.1171 44.022 54.9244 44.192C54.7431 44.362 54.5108 44.447 54.2274 44.447H49.7734V44.821C49.7734 45.3083 49.9208 45.705 50.2154 46.011C50.5101 46.317 50.9521 46.47 51.5414 46.47C52.1081 46.47 52.5274 46.3453 52.7994 46.096C53.0828 45.8467 53.2244 45.5237 53.2244 45.127C53.4284 45.1043 53.5701 45.093 53.6494 45.093C54.0688 45.093 54.3974 45.1893 54.6354 45.382C54.8734 45.5633 54.9924 45.824 54.9924 46.164C54.9924 46.4927 54.8394 46.81 54.5334 47.116C54.2274 47.422 53.8081 47.6713 53.2754 47.864C52.7428 48.0567 52.1591 48.153 51.5244 48.153ZM53.2924 42.934V42.611C53.2924 42.135 53.1281 41.7497 52.7994 41.455C52.4708 41.1603 52.0458 41.013 51.5244 41.013C51.0031 41.013 50.5781 41.1603 50.2494 41.455C49.9321 41.7383 49.7734 42.1237 49.7734 42.611V42.934H53.2924ZM61.2187 41.183C60.55 41.183 60.006 41.3643 59.5867 41.727C59.1673 42.0783 58.9577 42.5203 58.9577 43.053V46.861C58.9577 47.3143 58.7877 47.643 58.4477 47.847C58.1077 48.051 57.575 48.153 56.8497 48.153V40.979C56.8497 40.4577 57.014 40.0553 57.3427 39.772C57.6827 39.4887 58.1927 39.347 58.8727 39.347V40.35C58.7027 40.5427 58.5667 40.7297 58.4647 40.911L58.5667 40.979C59.2807 39.891 60.176 39.347 61.2527 39.347C61.74 39.347 62.1083 39.4773 62.3577 39.738C62.607 39.9873 62.7317 40.3047 62.7317 40.69C62.7317 40.9847 62.6523 41.234 62.4937 41.438C62.1877 41.268 61.7627 41.183 61.2187 41.183ZM68.5704 37.137C68.5704 36.8423 68.678 36.5987 68.8934 36.406C69.1087 36.202 69.3807 36.1 69.7094 36.1H74.4354C75.2514 36.1 75.971 36.2643 76.5944 36.593C77.229 36.9103 77.7164 37.3693 78.0564 37.97C78.4077 38.5593 78.5834 39.245 78.5834 40.027C78.5834 40.8203 78.4134 41.5173 78.0734 42.118C77.7334 42.7073 77.2517 43.1663 76.6284 43.495C76.005 43.8123 75.274 43.971 74.4354 43.971H70.8484V46.47C70.8484 47.014 70.65 47.4333 70.2534 47.728C69.868 48.0113 69.307 48.153 68.5704 48.153V37.137ZM74.4354 41.999C75.036 41.999 75.5007 41.8233 75.8294 41.472C76.1581 41.1207 76.3224 40.6333 76.3224 40.01C76.3224 39.398 76.1524 38.922 75.8124 38.582C75.4837 38.242 75.0247 38.072 74.4354 38.072H70.8484V41.999H74.4354ZM83.996 41.183C83.3274 41.183 82.7834 41.3643 82.364 41.727C81.9447 42.0783 81.735 42.5203 81.735 43.053V46.861C81.735 47.3143 81.565 47.643 81.225 47.847C80.885 48.051 80.3524 48.153 79.627 48.153V40.979C79.627 40.4577 79.7914 40.0553 80.12 39.772C80.46 39.4887 80.97 39.347 81.65 39.347V40.35C81.48 40.5427 81.344 40.7297 81.242 40.911L81.344 40.979C82.058 39.891 82.9534 39.347 84.03 39.347C84.5174 39.347 84.8857 39.4773 85.135 39.738C85.3844 39.9873 85.509 40.3047 85.509 40.69C85.509 40.9847 85.4297 41.234 85.271 41.438C84.965 41.268 84.54 41.183 83.996 41.183ZM89.4056 48.153C88.6689 48.153 88.0003 48.0227 87.3996 47.762C86.8103 47.49 86.3456 47.116 86.0056 46.64C85.6656 46.164 85.4956 45.6257 85.4956 45.025V42.628C85.4956 42.016 85.6599 41.4607 85.9886 40.962C86.3286 40.4633 86.7933 40.0723 87.3826 39.789C87.9719 39.4943 88.6463 39.347 89.4056 39.347C90.1649 39.347 90.8393 39.4943 91.4286 39.789C92.0293 40.0723 92.4939 40.4633 92.8226 40.962C93.1626 41.4607 93.3326 42.016 93.3326 42.628V45.025C93.3326 45.6257 93.1569 46.164 92.8056 46.64C92.4656 47.116 91.9953 47.49 91.3946 47.762C90.8053 48.0227 90.1423 48.153 89.4056 48.153ZM89.4056 46.334C89.9723 46.334 90.4143 46.2037 90.7316 45.943C91.0603 45.6823 91.2246 45.331 91.2246 44.889V42.73C91.2246 42.2653 91.0603 41.8913 90.7316 41.608C90.4143 41.3133 89.9723 41.166 89.4056 41.166C88.8503 41.166 88.4083 41.3133 88.0796 41.608C87.7509 41.8913 87.5866 42.2653 87.5866 42.73V44.889C87.5866 45.331 87.7509 45.6823 88.0796 45.943C88.4083 46.2037 88.8503 46.334 89.4056 46.334ZM95.8165 41.081H94.4565C94.4565 40.537 94.5358 40.1347 94.6945 39.874C94.8531 39.6133 95.0968 39.483 95.4255 39.483H95.8165V38.837C95.8165 37.953 96.0771 37.2503 96.5985 36.729C97.1198 36.2077 97.8281 35.947 98.7235 35.947C99.2901 35.947 99.7605 36.0717 100.134 36.321C100.508 36.5703 100.695 36.8877 100.695 37.273C100.695 37.6357 100.576 37.919 100.338 38.123C99.9191 37.8963 99.4941 37.783 99.0635 37.783C98.6781 37.783 98.3891 37.8737 98.1965 38.055C98.0151 38.2363 97.9245 38.5197 97.9245 38.905V39.483H103.738V46.861C103.738 47.303 103.568 47.6317 103.228 47.847C102.888 48.051 102.356 48.153 101.63 48.153V41.081H97.9245V46.861C97.9245 47.3143 97.7545 47.643 97.4145 47.847C97.0858 48.051 96.5531 48.153 95.8165 48.153V41.081ZM102.701 38.548C102.293 38.548 101.953 38.4233 101.681 38.174C101.409 37.9247 101.273 37.613 101.273 37.239C101.273 36.865 101.409 36.559 101.681 36.321C101.953 36.0717 102.293 35.947 102.701 35.947C103.098 35.947 103.432 36.0717 103.704 36.321C103.976 36.559 104.112 36.865 104.112 37.239C104.112 37.613 103.976 37.9247 103.704 38.174C103.432 38.4233 103.098 38.548 102.701 38.548ZM108.895 48.153C107.954 48.153 107.24 47.8867 106.753 47.354C106.277 46.81 106.039 46.1243 106.039 45.297V37.239C106.039 36.7743 106.209 36.4457 106.549 36.253C106.9 36.049 107.438 35.947 108.164 35.947V45.212C108.164 45.5973 108.249 45.8807 108.419 46.062C108.589 46.232 108.861 46.317 109.235 46.317C109.654 46.317 110.073 46.2093 110.493 45.994C110.606 46.096 110.691 46.2263 110.748 46.385C110.816 46.5323 110.85 46.6853 110.85 46.844C110.85 47.184 110.68 47.49 110.34 47.762C110 48.0227 109.518 48.153 108.895 48.153ZM115.59 48.153C114.887 48.153 114.247 48.017 113.669 47.745C113.091 47.4617 112.632 47.082 112.292 46.606C111.952 46.1187 111.782 45.5747 111.782 44.974V42.713C111.782 42.0783 111.958 41.506 112.309 40.996C112.66 40.486 113.125 40.0837 113.703 39.789C114.292 39.4943 114.927 39.347 115.607 39.347C116.276 39.347 116.888 39.4887 117.443 39.772C118.01 40.044 118.457 40.4293 118.786 40.928C119.115 41.4153 119.279 41.9763 119.279 42.611V43.563C119.279 43.8123 119.183 44.022 118.99 44.192C118.809 44.362 118.576 44.447 118.293 44.447H113.839V44.821C113.839 45.3083 113.986 45.705 114.281 46.011C114.576 46.317 115.018 46.47 115.607 46.47C116.174 46.47 116.593 46.3453 116.865 46.096C117.148 45.8467 117.29 45.5237 117.29 45.127C117.494 45.1043 117.636 45.093 117.715 45.093C118.134 45.093 118.463 45.1893 118.701 45.382C118.939 45.5633 119.058 45.824 119.058 46.164C119.058 46.4927 118.905 46.81 118.599 47.116C118.293 47.422 117.874 47.6713 117.341 47.864C116.808 48.0567 116.225 48.153 115.59 48.153ZM117.358 42.934V42.611C117.358 42.135 117.194 41.7497 116.865 41.455C116.536 41.1603 116.111 41.013 115.59 41.013C115.069 41.013 114.644 41.1603 114.315 41.455C113.998 41.7383 113.839 42.1237 113.839 42.611V42.934H117.358Z" fill="#515151"/>
<path d="M25.772 30C25.376 30 25.0313 29.868 24.738 29.604C24.4447 29.34 24.298 29.0247 24.298 28.658V15.942C24.298 15.5753 24.4373 15.26 24.716 14.996C25.0093 14.732 25.3613 14.6 25.772 14.6H31.69C33.098 14.6 34.22 14.996 35.056 15.788C35.9067 16.5653 36.332 17.614 36.332 18.934C36.332 19.5647 36.1633 20.166 35.826 20.738C35.4887 21.2953 35.0413 21.728 34.484 22.036V22.102C35.2467 22.366 35.848 22.7987 36.288 23.4C36.7427 24.0013 36.97 24.6907 36.97 25.468C36.97 26.348 36.7647 27.1327 36.354 27.822C35.9433 28.5113 35.3713 29.0467 34.638 29.428C33.9047 29.8093 33.0687 30 32.13 30H25.772ZM31.646 21.068C32.13 21.068 32.5407 20.87 32.878 20.474C33.23 20.078 33.406 19.6013 33.406 19.044C33.406 18.4427 33.2447 17.966 32.922 17.614C32.614 17.262 32.1887 17.086 31.646 17.086H27.158V21.068H31.646ZM32.086 27.514C32.6873 27.514 33.164 27.338 33.516 26.986C33.868 26.6193 34.044 26.1207 34.044 25.49C34.044 24.874 33.868 24.3973 33.516 24.06C33.1787 23.708 32.702 23.532 32.086 23.532H27.158V27.514H32.086ZM42.6238 30.198C41.8758 30.198 41.1865 30.0513 40.5558 29.758C39.9398 29.4647 39.4412 29.0467 39.0598 28.504C38.6932 27.9467 38.5098 27.2867 38.5098 26.524C38.5098 25.7613 38.7078 25.1013 39.1038 24.544C39.4998 23.972 40.0352 23.5393 40.7098 23.246C41.3992 22.938 42.1545 22.784 42.9758 22.784C43.6505 22.784 44.2518 22.894 44.7798 23.114C45.3225 23.3193 45.8212 23.6347 46.2758 24.06L46.3858 23.95C46.2538 23.818 46.0265 23.62 45.7038 23.356V22.916C45.7038 22.3147 45.4912 21.838 45.0658 21.486C44.6405 21.134 44.0465 20.958 43.2838 20.958C41.9198 20.958 40.9152 21.4567 40.2698 22.454C39.9472 22.3513 39.6758 22.19 39.4558 21.97C39.2358 21.7353 39.1258 21.486 39.1258 21.222C39.1258 20.782 39.3238 20.3787 39.7198 20.012C40.1158 19.6453 40.6512 19.352 41.3258 19.132C42.0005 18.912 42.7338 18.802 43.5258 18.802C45.0805 18.802 46.2832 19.1687 47.1338 19.902C47.9845 20.6207 48.4098 21.6033 48.4098 22.85V28.35C48.4098 28.9953 48.2045 29.4647 47.7938 29.758C47.3832 30.0513 46.7378 30.198 45.8578 30.198V29.296C46.1072 29.0467 46.2758 28.8633 46.3638 28.746L46.2758 28.636C45.7918 29.1493 45.2712 29.538 44.7138 29.802C44.1712 30.066 43.4745 30.198 42.6238 30.198ZM43.3278 28.196C44.0905 28.196 44.6845 28.0493 45.1098 27.756C45.5352 27.4627 45.7478 27.0447 45.7478 26.502C45.7478 25.974 45.5278 25.556 45.0878 25.248C44.6625 24.94 44.0832 24.786 43.3498 24.786C42.6752 24.786 42.1398 24.94 41.7438 25.248C41.3625 25.5413 41.1718 25.9593 41.1718 26.502C41.1718 27.0593 41.3625 27.4847 41.7438 27.778C42.1252 28.0567 42.6532 28.196 43.3278 28.196ZM54.4822 30.198C53.2648 30.198 52.3408 29.8533 51.7102 29.164C51.0942 28.46 50.7862 27.5727 50.7862 26.502V16.074C50.7862 15.4727 51.0062 15.0473 51.4462 14.798C51.9008 14.534 52.5975 14.402 53.5362 14.402V26.392C53.5362 26.8907 53.6462 27.2573 53.8662 27.492C54.0862 27.712 54.4382 27.822 54.9222 27.822C55.4648 27.822 56.0075 27.6827 56.5502 27.404C56.6968 27.536 56.8068 27.7047 56.8802 27.91C56.9682 28.1007 57.0122 28.2987 57.0122 28.504C57.0122 28.944 56.7922 29.34 56.3522 29.692C55.9122 30.0293 55.2888 30.198 54.4822 30.198ZM62.0027 30.198C61.2547 30.198 60.5654 30.0513 59.9347 29.758C59.3187 29.4647 58.8201 29.0467 58.4387 28.504C58.0721 27.9467 57.8887 27.2867 57.8887 26.524C57.8887 25.7613 58.0867 25.1013 58.4827 24.544C58.8787 23.972 59.4141 23.5393 60.0887 23.246C60.7781 22.938 61.5334 22.784 62.3547 22.784C63.0294 22.784 63.6307 22.894 64.1587 23.114C64.7014 23.3193 65.2001 23.6347 65.6547 24.06L65.7647 23.95C65.6327 23.818 65.4054 23.62 65.0827 23.356V22.916C65.0827 22.3147 64.8701 21.838 64.4447 21.486C64.0194 21.134 63.4254 20.958 62.6627 20.958C61.2987 20.958 60.2941 21.4567 59.6487 22.454C59.3261 22.3513 59.0547 22.19 58.8347 21.97C58.6147 21.7353 58.5047 21.486 58.5047 21.222C58.5047 20.782 58.7027 20.3787 59.0987 20.012C59.4947 19.6453 60.0301 19.352 60.7047 19.132C61.3794 18.912 62.1127 18.802 62.9047 18.802C64.4594 18.802 65.6621 19.1687 66.5127 19.902C67.3634 20.6207 67.7887 21.6033 67.7887 22.85V28.35C67.7887 28.9953 67.5834 29.4647 67.1727 29.758C66.7621 30.0513 66.1167 30.198 65.2367 30.198V29.296C65.4861 29.0467 65.6547 28.8633 65.7427 28.746L65.6547 28.636C65.1707 29.1493 64.6501 29.538 64.0927 29.802C63.5501 30.066 62.8534 30.198 62.0027 30.198ZM62.7067 28.196C63.4694 28.196 64.0634 28.0493 64.4887 27.756C64.9141 27.4627 65.1267 27.0447 65.1267 26.502C65.1267 25.974 64.9067 25.556 64.4667 25.248C64.0414 24.94 63.4621 24.786 62.7287 24.786C62.0541 24.786 61.5187 24.94 61.1227 25.248C60.7414 25.5413 60.5507 25.9593 60.5507 26.502C60.5507 27.0593 60.7414 27.4847 61.1227 27.778C61.5041 28.0567 62.0321 28.196 62.7067 28.196ZM70.2531 20.914C70.2531 20.2393 70.4657 19.7187 70.8911 19.352C71.3311 18.9853 71.9911 18.802 72.8711 18.802V20.122C72.6951 20.3273 72.5191 20.562 72.3431 20.826L72.4751 20.914C72.9151 20.254 73.4797 19.7407 74.1691 19.374C74.8584 18.9927 75.6211 18.802 76.4571 18.802C77.2051 18.802 77.8651 18.9707 78.4371 19.308C79.0091 19.6453 79.4491 20.1073 79.7571 20.694C80.0797 21.2807 80.2411 21.9407 80.2411 22.674V28.526C80.2411 29.1127 80.0137 29.538 79.5591 29.802C79.1044 30.066 78.4151 30.198 77.4911 30.198V23.07C77.4911 22.5127 77.3224 22.058 76.9851 21.706C76.6624 21.354 76.1857 21.178 75.5551 21.178C74.8071 21.178 74.1911 21.4127 73.7071 21.882C73.2231 22.3367 72.9811 22.9087 72.9811 23.598V28.526C72.9811 29.1127 72.7611 29.538 72.3211 29.802C71.8811 30.066 71.1917 30.198 70.2531 30.198V20.914ZM87.4225 30.198C86.4692 30.198 85.6259 30.0293 84.8925 29.692C84.1592 29.34 83.5872 28.856 83.1765 28.24C82.7659 27.624 82.5605 26.9273 82.5605 26.15V23.07C82.5605 22.234 82.7659 21.4933 83.1765 20.848C83.5872 20.2027 84.1592 19.704 84.8925 19.352C85.6259 18.9853 86.4619 18.802 87.4005 18.802C88.2805 18.802 89.0579 18.9267 89.7325 19.176C90.4219 19.4253 90.9572 19.7773 91.3385 20.232C91.7199 20.672 91.9105 21.1853 91.9105 21.772C91.9105 22.2267 91.7345 22.5933 91.3825 22.872C91.0305 23.1507 90.5685 23.29 89.9965 23.29C89.8352 23.29 89.7179 23.2827 89.6445 23.268C89.6445 22.6373 89.4392 22.1313 89.0285 21.75C88.6325 21.3687 88.1119 21.178 87.4665 21.178C86.8212 21.178 86.2932 21.3613 85.8825 21.728C85.4865 22.0947 85.2885 22.5787 85.2885 23.18V25.952C85.2885 26.5093 85.4939 26.964 85.9045 27.316C86.3152 27.6533 86.8432 27.822 87.4885 27.822C88.1339 27.822 88.6619 27.6313 89.0725 27.25C89.4832 26.854 89.6885 26.3553 89.6885 25.754C89.7765 25.7393 89.9012 25.732 90.0625 25.732C90.6345 25.732 91.0965 25.864 91.4485 26.128C91.8005 26.392 91.9765 26.7513 91.9765 27.206C91.9765 27.7927 91.7785 28.3133 91.3825 28.768C91.0012 29.208 90.4659 29.56 89.7765 29.824C89.0872 30.0733 88.3025 30.198 87.4225 30.198ZM98.8753 30.198C97.9659 30.198 97.1373 30.022 96.3893 29.67C95.6413 29.3033 95.0473 28.812 94.6073 28.196C94.1673 27.5653 93.9473 26.8613 93.9473 26.084V23.158C93.9473 22.3367 94.1746 21.596 94.6293 20.936C95.0839 20.276 95.6853 19.7553 96.4333 19.374C97.1959 18.9927 98.0173 18.802 98.8973 18.802C99.7626 18.802 100.555 18.9853 101.273 19.352C102.007 19.704 102.586 20.2027 103.011 20.848C103.437 21.4787 103.649 22.2047 103.649 23.026V24.258C103.649 24.5807 103.525 24.852 103.275 25.072C103.041 25.292 102.74 25.402 102.373 25.402H96.6093V25.886C96.6093 26.5167 96.7999 27.03 97.1813 27.426C97.5626 27.822 98.1346 28.02 98.8973 28.02C99.6306 28.02 100.173 27.8587 100.525 27.536C100.892 27.2133 101.075 26.7953 101.075 26.282C101.339 26.2527 101.523 26.238 101.625 26.238C102.168 26.238 102.593 26.3627 102.901 26.612C103.209 26.8467 103.363 27.184 103.363 27.624C103.363 28.0493 103.165 28.46 102.769 28.856C102.373 29.252 101.831 29.5747 101.141 29.824C100.452 30.0733 99.6966 30.198 98.8753 30.198ZM101.163 23.444V23.026C101.163 22.41 100.951 21.9113 100.525 21.53C100.1 21.1487 99.5499 20.958 98.8753 20.958C98.2006 20.958 97.6506 21.1487 97.2253 21.53C96.8146 21.8967 96.6093 22.3953 96.6093 23.026V23.444H101.163ZM109.815 30.198C109.023 30.198 108.311 30.0293 107.681 29.692C107.05 29.3547 106.551 28.8927 106.185 28.306C105.818 27.7047 105.635 27.0153 105.635 26.238V22.762C105.635 21.9993 105.825 21.3173 106.207 20.716C106.588 20.1147 107.116 19.6453 107.791 19.308C108.48 18.9707 109.243 18.802 110.079 18.802C110.621 18.802 111.179 18.9193 111.751 19.154C112.337 19.374 112.829 19.6747 113.225 20.056L113.313 19.946C113.239 19.8287 113.078 19.682 112.829 19.506V16.25C112.829 15.6633 113.056 15.2087 113.511 14.886C113.98 14.5633 114.684 14.402 115.623 14.402V28.306C115.623 28.8487 115.417 29.3033 115.007 29.67C114.596 30.022 113.958 30.198 113.093 30.198V28.988C113.283 28.7533 113.423 28.5627 113.511 28.416L113.401 28.328C112.946 28.944 112.44 29.4133 111.883 29.736C111.34 30.044 110.651 30.198 109.815 30.198ZM110.629 27.822C111.289 27.822 111.824 27.668 112.235 27.36C112.66 27.0373 112.873 26.634 112.873 26.15V22.828C112.873 22.3587 112.66 21.97 112.235 21.662C111.824 21.3393 111.281 21.178 110.607 21.178C109.888 21.178 109.331 21.332 108.935 21.64C108.553 21.9333 108.363 22.3587 108.363 22.916V26.04C108.363 26.6267 108.553 27.074 108.935 27.382C109.331 27.6753 109.895 27.822 110.629 27.822Z" fill="black"/>
<rect x="129.471" y="74.7368" width="80" height="60" fill="#68C83B"/>
<rect x="209.471" y="74.7368" width="47.3684" height="60" fill="#0075FF"/>
<rect x="256.84" y="74.7368" width="30.5263" height="60" fill="#FF0000"/>
</svg>
