<svg width="300" height="300" viewBox="0 0 300 300" fill="none" xmlns="http://www.w3.org/2000/svg">
<rect width="300" height="300" rx="10" fill="#1A1A1A"/>
<path d="M18.6024 29.3C16.8824 29.3 15.3824 29.04 14.1024 28.52C12.8424 28 11.8624 27.26 11.1624 26.3C10.4824 25.34 10.1424 24.21 10.1424 22.91C10.1424 21.79 10.4524 20.81 11.0724 19.97C11.7124 19.11 12.6424 18.43 13.8624 17.93C12.8824 17.43 12.1324 16.81 11.6124 16.07C11.1124 15.33 10.8624 14.5 10.8624 13.58C10.8624 12.44 11.1924 11.43 11.8524 10.55C12.5124 9.65 13.4224 8.96 14.5824 8.48C15.7624 7.98 17.1024 7.73 18.6024 7.73C20.1224 7.73 21.4624 7.98 22.6224 8.48C23.8024 8.96 24.7124 9.64 25.3524 10.52C26.0124 11.4 26.3424 12.42 26.3424 13.58C26.3424 14.52 26.0924 15.36 25.5924 16.1C25.0924 16.82 24.3524 17.43 23.3724 17.93C24.5724 18.43 25.4824 19.11 26.1024 19.97C26.7424 20.81 27.0624 21.79 27.0624 22.91C27.0624 24.21 26.7224 25.34 26.0424 26.3C25.3624 27.26 24.3824 28 23.1024 28.52C21.8424 29.04 20.3424 29.3 18.6024 29.3ZM18.6024 16.67C19.9024 16.67 20.9224 16.41 21.6624 15.89C22.4224 15.35 22.8024 14.63 22.8024 13.73C22.8024 12.75 22.4424 12.02 21.7224 11.54C21.0224 11.04 19.9824 10.79 18.6024 10.79C17.2424 10.79 16.2024 11.04 15.4824 11.54C14.7624 12.04 14.4024 12.77 14.4024 13.73C14.4024 14.61 14.7824 15.32 15.5424 15.86C16.3224 16.4 17.3424 16.67 18.6024 16.67ZM18.6024 26.21C20.2224 26.21 21.4424 25.93 22.2624 25.37C23.1024 24.79 23.5224 23.94 23.5224 22.82C23.5224 21.7 23.0924 20.84 22.2324 20.24C21.3924 19.62 20.1824 19.31 18.6024 19.31C17.0624 19.31 15.8524 19.62 14.9724 20.24C14.1124 20.86 13.6824 21.72 13.6824 22.82C13.6824 23.92 14.1024 24.76 14.9424 25.34C15.8024 25.92 17.0224 26.21 18.6024 26.21ZM37.549 29.27C36.049 29.27 34.679 29.03 33.439 28.55C32.199 28.05 31.219 27.37 30.499 26.51C29.799 25.65 29.449 24.7 29.449 23.66C29.449 22.84 29.679 22.24 30.139 21.86C30.599 21.46 31.319 21.26 32.299 21.26L32.869 21.29C32.809 21.65 32.779 22.03 32.779 22.43C32.779 23.59 33.199 24.49 34.039 25.13C34.879 25.77 36.049 26.09 37.549 26.09C39.069 26.09 40.249 25.68 41.089 24.86C41.929 24.04 42.349 22.88 42.349 21.38C42.349 19.92 41.929 18.8 41.089 18.02C40.249 17.24 39.049 16.85 37.489 16.85C35.789 16.85 34.389 17.32 33.289 18.26C32.869 18.6 32.399 18.77 31.879 18.77C31.379 18.77 30.949 18.62 30.589 18.32C30.249 18 30.079 17.6 30.079 17.12C30.079 17 30.089 16.91 30.109 16.85L31.339 9.29C31.399 8.87 31.579 8.55 31.879 8.33C32.199 8.11 32.609 8 33.109 8H44.899C44.899 10.06 44.039 11.09 42.319 11.09H34.129L33.559 14.72C33.059 15.06 32.669 15.38 32.389 15.68L32.509 15.86C33.269 15.24 34.179 14.75 35.239 14.39C36.299 14.01 37.329 13.82 38.329 13.82C40.649 13.82 42.479 14.5 43.819 15.86C45.179 17.2 45.859 19.04 45.859 21.38C45.859 22.98 45.519 24.38 44.839 25.58C44.179 26.76 43.219 27.67 41.959 28.31C40.719 28.95 39.249 29.27 37.549 29.27Z" fill="#7BE849"/>
<path d="M57.5385 28.632C57.3358 28.9733 57.0211 29.144 56.5945 29.144C56.3918 29.144 56.2158 29.1013 56.0665 29.016C55.9278 28.9307 55.7945 28.792 55.6665 28.6L53.4105 25.208L52.2905 26.232V27.992C52.2905 28.3973 52.1411 28.6907 51.8425 28.872C51.5545 29.0533 51.1118 29.144 50.5145 29.144V19.064C50.5145 18.1253 51.1118 17.656 52.3065 17.656V24.28L56.0345 20.856C56.4931 21.24 56.7225 21.5493 56.7225 21.784C56.7225 21.944 56.6798 22.0827 56.5945 22.2C56.5198 22.3067 56.3865 22.4507 56.1945 22.632L54.4665 24.216L57.5385 28.632ZM59.1863 22.28C59.1863 21.3307 59.7517 20.856 60.8823 20.856V21.832C60.7117 22.024 60.589 22.1893 60.5143 22.328L60.5943 22.392C60.9357 21.8907 61.293 21.512 61.6663 21.256C62.0397 20.9893 62.4823 20.856 62.9943 20.856C63.9223 20.856 64.573 21.3147 64.9463 22.232C65.2237 21.7947 65.565 21.4587 65.9703 21.224C66.3757 20.9787 66.845 20.856 67.3783 20.856C68.1143 20.856 68.6903 21.1173 69.1063 21.64C69.533 22.1627 69.7463 22.8293 69.7463 23.64V27.992C69.7463 28.3973 69.6023 28.6907 69.3143 28.872C69.0263 29.0533 68.5837 29.144 67.9863 29.144V23.784C67.9863 23.3467 67.8903 23.0053 67.6983 22.76C67.5063 22.504 67.213 22.376 66.8183 22.376C66.4023 22.376 66.0503 22.52 65.7623 22.808C65.485 23.0853 65.3463 23.5013 65.3463 24.056V27.992C65.3463 28.3973 65.2023 28.6907 64.9143 28.872C64.6263 29.0533 64.189 29.144 63.6023 29.144V23.784C63.6023 22.8453 63.2183 22.376 62.4503 22.376C61.9917 22.376 61.6237 22.536 61.3463 22.856C61.0797 23.176 60.9463 23.592 60.9463 24.104V27.992C60.9463 28.3973 60.8023 28.6907 60.5143 28.872C60.2263 29.0533 59.7837 29.144 59.1863 29.144V22.28Z" fill="#7BE849"/>
<rect x="86.207" y="248.23" width="120.411" height="38.9474" rx="19.4737" fill="#EEEEEE"/>
<path d="M130.264 273.144C129.325 273.144 128.509 273.021 127.816 272.776C127.123 272.531 126.589 272.195 126.216 271.768C125.853 271.341 125.672 270.851 125.672 270.296C125.672 269.432 126.216 269 127.304 269C127.325 269.843 127.592 270.483 128.104 270.92C128.627 271.357 129.357 271.576 130.296 271.576C131.117 271.576 131.752 271.437 132.2 271.16C132.648 270.883 132.872 270.483 132.872 269.96C132.872 269.629 132.787 269.363 132.616 269.16C132.445 268.947 132.157 268.76 131.752 268.6C131.347 268.429 130.76 268.259 129.992 268.088C128.968 267.864 128.157 267.603 127.56 267.304C126.973 267.005 126.547 266.648 126.28 266.232C126.013 265.816 125.88 265.299 125.88 264.68C125.88 264.083 126.056 263.555 126.408 263.096C126.76 262.637 127.256 262.285 127.896 262.04C128.536 261.784 129.277 261.656 130.12 261.656C130.92 261.656 131.64 261.768 132.28 261.992C132.92 262.205 133.421 262.509 133.784 262.904C134.147 263.299 134.328 263.752 134.328 264.264C134.328 265 133.811 265.384 132.776 265.416C132.691 264.648 132.435 264.088 132.008 263.736C131.592 263.384 130.963 263.208 130.12 263.208C129.373 263.208 128.797 263.336 128.392 263.592C127.987 263.848 127.784 264.211 127.784 264.68C127.784 265 127.859 265.267 128.008 265.48C128.168 265.683 128.429 265.864 128.792 266.024C129.155 266.173 129.677 266.323 130.36 266.472C131.448 266.717 132.312 266.995 132.952 267.304C133.592 267.603 134.051 267.965 134.328 268.392C134.616 268.808 134.76 269.331 134.76 269.96C134.76 270.611 134.573 271.176 134.2 271.656C133.837 272.136 133.315 272.504 132.632 272.76C131.96 273.016 131.171 273.144 130.264 273.144ZM139.639 273.144C138.807 273.144 138.189 272.904 137.783 272.424C137.389 271.944 137.191 271.325 137.191 270.568V266.36H135.591C135.591 265.901 135.682 265.56 135.863 265.336C136.045 265.112 136.29 265 136.599 265H137.207V263.608C137.207 263.203 137.351 262.909 137.639 262.728C137.938 262.547 138.381 262.456 138.967 262.456V265H141.095C141.095 265.48 140.999 265.827 140.807 266.04C140.615 266.253 140.311 266.36 139.895 266.36H138.983V270.504C138.983 270.888 139.058 271.165 139.207 271.336C139.357 271.496 139.618 271.576 139.991 271.576C140.365 271.576 140.733 271.475 141.095 271.272C141.191 271.357 141.261 271.464 141.303 271.592C141.357 271.72 141.383 271.853 141.383 271.992C141.383 272.291 141.229 272.557 140.919 272.792C140.61 273.027 140.183 273.144 139.639 273.144ZM145.195 273.144C144.63 273.144 144.118 273.037 143.659 272.824C143.201 272.611 142.838 272.301 142.571 271.896C142.305 271.491 142.171 271.016 142.171 270.472C142.171 269.917 142.31 269.437 142.587 269.032C142.875 268.616 143.265 268.301 143.755 268.088C144.246 267.864 144.795 267.752 145.403 267.752C146.374 267.752 147.19 268.083 147.851 268.744L147.931 268.664C147.739 268.472 147.585 268.333 147.467 268.248V267.8C147.467 267.331 147.307 266.963 146.987 266.696C146.667 266.419 146.219 266.28 145.643 266.28C145.131 266.28 144.683 266.381 144.299 266.584C143.915 266.776 143.606 267.064 143.371 267.448C143.158 267.373 142.977 267.256 142.827 267.096C142.689 266.936 142.619 266.765 142.619 266.584C142.619 266.275 142.763 265.987 143.051 265.72C143.339 265.453 143.723 265.245 144.203 265.096C144.694 264.936 145.222 264.856 145.787 264.856C146.875 264.856 147.718 265.117 148.315 265.64C148.923 266.152 149.227 266.856 149.227 267.752V271.896C149.227 272.333 149.094 272.653 148.827 272.856C148.561 273.048 148.134 273.144 147.547 273.144V272.456C147.739 272.264 147.867 272.125 147.931 272.04L147.851 271.976C147.51 272.36 147.126 272.653 146.699 272.856C146.283 273.048 145.782 273.144 145.195 273.144ZM145.611 271.8C146.198 271.8 146.657 271.683 146.987 271.448C147.329 271.213 147.499 270.883 147.499 270.456C147.499 270.029 147.329 269.699 146.987 269.464C146.657 269.219 146.203 269.096 145.627 269.096C145.105 269.096 144.689 269.219 144.379 269.464C144.081 269.699 143.931 270.029 143.931 270.456C143.931 270.893 144.081 271.229 144.379 271.464C144.678 271.688 145.089 271.8 145.611 271.8ZM155.068 266.408C154.45 266.408 153.943 266.584 153.548 266.936C153.154 267.277 152.956 267.699 152.956 268.2V271.992C152.956 272.397 152.807 272.691 152.508 272.872C152.22 273.053 151.772 273.144 151.164 273.144V266.28C151.164 265.331 151.735 264.856 152.876 264.856V265.816C152.727 265.987 152.604 266.157 152.508 266.328L152.588 266.392C153.282 265.368 154.13 264.856 155.132 264.856C155.559 264.856 155.884 264.968 156.108 265.192C156.332 265.405 156.444 265.677 156.444 266.008C156.444 266.253 156.38 266.472 156.252 266.664C155.943 266.493 155.548 266.408 155.068 266.408ZM161.124 273.144C160.292 273.144 159.673 272.904 159.268 272.424C158.873 271.944 158.676 271.325 158.676 270.568V266.36H157.076C157.076 265.901 157.166 265.56 157.348 265.336C157.529 265.112 157.774 265 158.084 265H158.692V263.608C158.692 263.203 158.836 262.909 159.124 262.728C159.422 262.547 159.865 262.456 160.452 262.456V265H162.58C162.58 265.48 162.484 265.827 162.292 266.04C162.1 266.253 161.796 266.36 161.38 266.36H160.468V270.504C160.468 270.888 160.542 271.165 160.692 271.336C160.841 271.496 161.102 271.576 161.476 271.576C161.849 271.576 162.217 271.475 162.58 271.272C162.676 271.357 162.745 271.464 162.788 271.592C162.841 271.72 162.868 271.853 162.868 271.992C162.868 272.291 162.713 272.557 162.404 272.792C162.094 273.027 161.668 273.144 161.124 273.144ZM171.915 263.48H168.027C168.027 262.36 168.544 261.8 169.579 261.8H177.707C177.707 262.355 177.574 262.776 177.307 263.064C177.051 263.341 176.667 263.48 176.155 263.48H173.835V271.672C173.835 272.141 173.67 272.504 173.339 272.76C173.008 273.016 172.534 273.144 171.915 273.144V263.48ZM181.178 266.408C180.559 266.408 180.052 266.584 179.658 266.936C179.263 267.277 179.066 267.699 179.066 268.2V271.992C179.066 272.397 178.916 272.691 178.618 272.872C178.33 273.053 177.882 273.144 177.274 273.144V266.28C177.274 265.331 177.844 264.856 178.986 264.856V265.816C178.836 265.987 178.714 266.157 178.618 266.328L178.698 266.392C179.391 265.368 180.239 264.856 181.242 264.856C181.668 264.856 181.994 264.968 182.218 265.192C182.442 265.405 182.554 265.677 182.554 266.008C182.554 266.253 182.49 266.472 182.362 266.664C182.052 266.493 181.658 266.408 181.178 266.408ZM184.865 263.944C184.513 263.944 184.22 263.837 183.985 263.624C183.75 263.4 183.633 263.123 183.633 262.792C183.633 262.461 183.75 262.189 183.985 261.976C184.22 261.763 184.513 261.656 184.865 261.656C185.217 261.656 185.51 261.763 185.745 261.976C185.98 262.189 186.097 262.461 186.097 262.792C186.097 263.123 185.98 263.4 185.745 263.624C185.51 263.837 185.217 263.944 184.865 263.944ZM183.969 266.008C183.969 265.603 184.118 265.309 184.417 265.128C184.716 264.947 185.164 264.856 185.761 264.856V271.992C185.761 272.397 185.612 272.691 185.313 272.872C185.014 273.053 184.566 273.144 183.969 273.144V266.008ZM188.117 266.152C188.117 265.779 188.256 265.469 188.533 265.224C188.811 264.979 189.227 264.856 189.781 264.856V265.736C189.643 265.907 189.541 266.045 189.477 266.152L189.541 266.216C189.872 265.779 190.245 265.443 190.661 265.208C191.077 264.973 191.589 264.856 192.197 264.856C193.093 264.856 193.819 265.117 194.373 265.64C194.939 266.163 195.221 266.851 195.221 267.704V270.296C195.221 270.861 195.083 271.363 194.805 271.8C194.528 272.227 194.144 272.557 193.653 272.792C193.173 273.027 192.624 273.144 192.005 273.144C191.579 273.144 191.152 273.053 190.725 272.872C190.299 272.691 189.936 272.451 189.637 272.152L189.589 272.232C189.653 272.317 189.765 272.429 189.925 272.568V275.08C189.925 275.923 189.323 276.344 188.117 276.344V266.152ZM191.669 271.576C192.235 271.576 192.667 271.459 192.965 271.224C193.275 270.979 193.429 270.637 193.429 270.2V267.816C193.429 267.357 193.275 267.011 192.965 266.776C192.667 266.531 192.235 266.408 191.669 266.408C191.157 266.408 190.736 266.536 190.405 266.792C190.075 267.048 189.909 267.363 189.909 267.736V270.264C189.909 270.637 190.069 270.952 190.389 271.208C190.709 271.453 191.136 271.576 191.669 271.576Z" fill="black"/>
<path d="M106.713 256.004C104.34 256.004 102.019 256.708 100.046 258.026C98.0727 259.345 96.5346 261.219 95.6263 263.412C94.7181 265.604 94.4805 268.017 94.9435 270.345C95.4065 272.673 96.5494 274.811 98.2276 276.489C99.9058 278.167 102.044 279.31 104.372 279.773C106.7 280.236 109.112 279.999 111.305 279.09C113.498 278.182 115.372 276.644 116.691 274.671C118.009 272.697 118.713 270.377 118.713 268.004C118.71 264.822 117.444 261.772 115.194 259.522C112.945 257.273 109.894 256.007 106.713 256.004ZM106.713 278.158C104.705 278.158 102.742 277.562 101.072 276.446C99.4019 275.331 98.1005 273.745 97.332 271.889C96.5634 270.034 96.3624 267.993 96.7542 266.023C97.1459 264.053 98.113 262.244 99.533 260.824C100.953 259.404 102.762 258.437 104.732 258.045C106.702 257.653 108.743 257.854 110.599 258.623C112.454 259.391 114.04 260.693 115.156 262.363C116.271 264.032 116.867 265.996 116.867 268.004C116.864 270.696 115.793 273.277 113.889 275.18C111.986 277.084 109.405 278.155 106.713 278.158Z" fill="black"/>
<path d="M106.71 276.311C111.298 276.311 115.018 272.592 115.018 268.004C115.018 263.416 111.298 259.696 106.71 259.696C102.122 259.696 98.4023 263.416 98.4023 268.004C98.4023 272.592 102.122 276.311 106.71 276.311Z" fill="#FF0000"/>
<path d="M48.888 155C48.6747 155 48.4933 154.936 48.344 154.808C48.1947 154.669 48.12 154.499 48.12 154.296V144.504C48.12 144.301 48.1893 144.136 48.328 144.008C48.4773 143.869 48.664 143.8 48.888 143.8H52.632C53.5387 143.8 54.3387 143.971 55.032 144.312C55.7253 144.653 56.264 145.133 56.648 145.752C57.0427 146.36 57.24 147.059 57.24 147.848V150.92C57.24 151.709 57.0427 152.413 56.648 153.032C56.264 153.651 55.72 154.136 55.016 154.488C54.3227 154.829 53.528 155 52.632 155H48.888ZM52.472 153.688C53.496 153.688 54.296 153.448 54.872 152.968C55.448 152.477 55.736 151.8 55.736 150.936V147.832C55.736 146.979 55.448 146.312 54.872 145.832C54.296 145.352 53.496 145.112 52.472 145.112H49.624V153.688H52.472ZM60.3791 145.656C60.0805 145.656 59.8298 145.56 59.6271 145.368C59.4245 145.176 59.3231 144.936 59.3231 144.648C59.3231 144.36 59.4245 144.125 59.6271 143.944C59.8298 143.752 60.0805 143.656 60.3791 143.656C60.6671 143.656 60.9125 143.752 61.1151 143.944C61.3178 144.125 61.4191 144.36 61.4191 144.648C61.4191 144.936 61.3178 145.176 61.1151 145.368C60.9125 145.56 60.6671 145.656 60.3791 145.656ZM59.6751 147.88C59.6751 147.528 59.7871 147.272 60.0111 147.112C60.2458 146.941 60.5978 146.856 61.0671 146.856V154.12C61.0671 154.472 60.9498 154.733 60.7151 154.904C60.4911 155.064 60.1445 155.144 59.6751 155.144V147.88ZM66.5629 155.144C66.0189 155.144 65.5069 155.064 65.0269 154.904C64.5469 154.733 64.1575 154.493 63.8589 154.184C63.5709 153.875 63.4269 153.512 63.4269 153.096C63.4269 152.584 63.7362 152.307 64.3549 152.264C64.4615 152.861 64.7122 153.304 65.1069 153.592C65.5122 153.869 66.0242 154.008 66.6429 154.008C67.2615 154.008 67.7415 153.917 68.0829 153.736C68.4242 153.555 68.5949 153.277 68.5949 152.904C68.5949 152.637 68.5255 152.424 68.3869 152.264C68.2482 152.093 68.0242 151.949 67.7149 151.832C67.4162 151.704 66.9842 151.581 66.4189 151.464C65.7149 151.304 65.1549 151.133 64.7389 150.952C64.3229 150.771 64.0029 150.531 63.7789 150.232C63.5655 149.933 63.4589 149.539 63.4589 149.048C63.4589 148.632 63.5869 148.259 63.8429 147.928C64.0989 147.587 64.4509 147.325 64.8989 147.144C65.3575 146.952 65.8749 146.856 66.4509 146.856C66.9842 146.856 67.4855 146.931 67.9549 147.08C68.4349 147.229 68.8189 147.443 69.1069 147.72C69.4055 147.997 69.5549 148.317 69.5549 148.68C69.5549 148.925 69.4589 149.123 69.2669 149.272C69.0749 149.411 68.8082 149.491 68.4669 149.512C68.4349 149.043 68.2429 148.675 67.8909 148.408C67.5495 148.131 67.0695 147.992 66.4509 147.992C65.9389 147.992 65.5335 148.088 65.2349 148.28C64.9362 148.472 64.7869 148.728 64.7869 149.048C64.7869 149.389 64.9255 149.645 65.2029 149.816C65.4909 149.976 65.9762 150.131 66.6589 150.28C67.7789 150.504 68.6002 150.813 69.1229 151.208C69.6562 151.592 69.9229 152.141 69.9229 152.856C69.9229 153.581 69.6295 154.147 69.0429 154.552C68.4562 154.947 67.6295 155.144 66.5629 155.144ZM74.2259 155.144C73.4685 155.144 72.9032 154.931 72.5299 154.504C72.1565 154.067 71.9699 153.496 71.9699 152.792V148.12H70.4819C70.4819 147.757 70.5619 147.48 70.7219 147.288C70.8819 147.096 71.1005 147 71.3779 147H71.9859V145.48C71.9859 145.128 72.0979 144.872 72.3219 144.712C72.5565 144.541 72.9032 144.456 73.3619 144.456V147H75.4899C75.4899 147.747 75.1539 148.12 74.4819 148.12H73.3779V152.744C73.3779 153.171 73.4525 153.475 73.6019 153.656C73.7619 153.827 74.0445 153.912 74.4499 153.912C74.8232 153.912 75.1752 153.816 75.5059 153.624C75.6445 153.763 75.7139 153.949 75.7139 154.184C75.7139 154.44 75.5805 154.664 75.3139 154.856C75.0472 155.048 74.6845 155.144 74.2259 155.144ZM79.8229 155.144C78.9055 155.144 78.1642 154.899 77.5989 154.408C77.0442 153.917 76.7669 153.272 76.7669 152.472C76.7669 151.661 77.0602 151.011 77.6469 150.52C78.2335 150.019 79.0069 149.768 79.9669 149.768C80.9909 149.768 81.8335 150.131 82.4949 150.856L82.5589 150.792C82.4415 150.664 82.3082 150.531 82.1589 150.392V149.72C82.1589 149.176 81.9882 148.755 81.6469 148.456C81.3055 148.157 80.8202 148.008 80.1909 148.008C79.0709 148.008 78.2709 148.451 77.7909 149.336C77.6202 149.251 77.4762 149.139 77.3589 149C77.2522 148.851 77.1989 148.701 77.1989 148.552C77.1989 148.264 77.3429 147.992 77.6309 147.736C77.9189 147.469 78.2975 147.256 78.7669 147.096C79.2469 146.936 79.7482 146.856 80.2709 146.856C81.2842 146.856 82.0789 147.107 82.6549 147.608C83.2415 148.109 83.5349 148.803 83.5349 149.688V154.072C83.5349 154.445 83.4282 154.717 83.2149 154.888C83.0015 155.059 82.6655 155.144 82.2069 155.144V154.392C82.4309 154.157 82.5535 154.019 82.5749 153.976L82.5109 153.912C81.8175 154.733 80.9215 155.144 79.8229 155.144ZM80.0629 154.04C80.7242 154.04 81.2415 153.901 81.6149 153.624C81.9989 153.347 82.1909 152.963 82.1909 152.472C82.1909 151.981 82.0042 151.592 81.6309 151.304C81.2575 151.016 80.7455 150.872 80.0949 150.872C79.4869 150.872 79.0069 151.016 78.6549 151.304C78.3135 151.581 78.1429 151.971 78.1429 152.472C78.1429 152.973 78.3082 153.363 78.6389 153.64C78.9802 153.907 79.4549 154.04 80.0629 154.04ZM85.6981 148.04C85.6981 147.251 86.1461 146.856 87.0421 146.856V147.88C86.9461 147.976 86.8341 148.12 86.7061 148.312L86.7701 148.376C87.0901 147.928 87.5061 147.565 88.0181 147.288C88.5301 147 89.0848 146.856 89.6821 146.856C90.5461 146.856 91.2288 147.112 91.7301 147.624C92.2315 148.136 92.4821 148.797 92.4821 149.608V154.12C92.4821 154.472 92.3648 154.733 92.1301 154.904C91.9061 155.064 91.5595 155.144 91.0901 155.144V149.752C91.0901 149.24 90.9461 148.835 90.6581 148.536C90.3701 148.237 89.9328 148.088 89.3461 148.088C88.9515 148.088 88.5781 148.173 88.2261 148.344C87.8848 148.504 87.6075 148.728 87.3941 149.016C87.1915 149.293 87.0901 149.597 87.0901 149.928V154.12C87.0901 154.472 86.9728 154.733 86.7381 154.904C86.5141 155.064 86.1675 155.144 85.6981 155.144V148.04ZM97.7575 155.144C97.1068 155.144 96.5255 155.027 96.0135 154.792C95.5015 154.557 95.1015 154.227 94.8135 153.8C94.5362 153.373 94.3975 152.888 94.3975 152.344V149.752C94.3975 149.187 94.5362 148.685 94.8135 148.248C95.1015 147.811 95.4962 147.469 95.9975 147.224C96.4988 146.979 97.0748 146.856 97.7255 146.856C98.3335 146.856 98.8722 146.947 99.3415 147.128C99.8215 147.299 100.195 147.544 100.462 147.864C100.728 148.184 100.862 148.547 100.862 148.952C100.862 149.219 100.755 149.437 100.542 149.608C100.339 149.768 100.072 149.837 99.7415 149.816C99.7415 149.304 99.5548 148.888 99.1815 148.568C98.8188 148.248 98.3442 148.088 97.7575 148.088C97.1708 148.088 96.6962 148.248 96.3335 148.568C95.9708 148.877 95.7895 149.283 95.7895 149.784V152.28C95.7895 152.76 95.9762 153.155 96.3495 153.464C96.7228 153.763 97.2028 153.912 97.7895 153.912C98.3762 153.912 98.8508 153.752 99.2135 153.432C99.5868 153.112 99.7735 152.701 99.7735 152.2C100.115 152.179 100.387 152.248 100.59 152.408C100.803 152.557 100.91 152.771 100.91 153.048C100.91 153.453 100.776 153.816 100.51 154.136C100.243 154.456 99.8695 154.707 99.3895 154.888C98.9095 155.059 98.3655 155.144 97.7575 155.144ZM105.961 155.144C105.31 155.144 104.729 155.021 104.217 154.776C103.705 154.52 103.305 154.173 103.017 153.736C102.729 153.288 102.585 152.787 102.585 152.232V149.864C102.585 149.299 102.734 148.787 103.033 148.328C103.342 147.869 103.753 147.512 104.265 147.256C104.788 146.989 105.353 146.856 105.961 146.856C106.569 146.856 107.124 146.984 107.625 147.24C108.137 147.496 108.537 147.848 108.825 148.296C109.124 148.744 109.273 149.251 109.273 149.816V150.84C109.273 151.011 109.209 151.155 109.081 151.272C108.953 151.389 108.798 151.448 108.617 151.448H103.945V152.168C103.945 152.712 104.116 153.149 104.457 153.48C104.809 153.811 105.31 153.976 105.961 153.976C106.612 153.976 107.108 153.832 107.449 153.544C107.79 153.256 107.961 152.867 107.961 152.376C108.281 152.355 108.548 152.419 108.761 152.568C108.985 152.707 109.097 152.915 109.097 153.192C109.097 153.533 108.948 153.853 108.649 154.152C108.361 154.451 107.977 154.691 107.497 154.872C107.017 155.053 106.505 155.144 105.961 155.144ZM107.977 150.36V149.816C107.977 149.283 107.79 148.851 107.417 148.52C107.054 148.179 106.569 148.008 105.961 148.008C105.353 148.008 104.862 148.179 104.489 148.52C104.126 148.851 103.945 149.283 103.945 149.816V150.36H107.977Z" fill="white"/>
<path d="M58.944 190.378C56.816 190.378 54.856 189.972 53.064 189.16C51.3 188.32 49.9 187.186 48.864 185.758C47.828 184.33 47.31 182.748 47.31 181.012V169.588C47.31 167.852 47.828 166.27 48.864 164.842C49.9 163.414 51.3 162.294 53.064 161.482C54.856 160.642 56.816 160.222 58.944 160.222C61.1 160.222 63.06 160.642 64.824 161.482C66.616 162.294 68.016 163.414 69.024 164.842C70.06 166.27 70.578 167.852 70.578 169.588V181.012C70.578 182.748 70.06 184.33 69.024 185.758C67.988 187.186 66.574 188.32 64.782 189.16C63.018 189.972 61.072 190.378 58.944 190.378ZM58.944 185.926C60.932 185.926 62.528 185.464 63.732 184.54C64.936 183.616 65.538 182.384 65.538 180.844V169.714C65.538 168.202 64.936 166.984 63.732 166.06C62.528 165.136 60.932 164.674 58.944 164.674C56.984 164.674 55.402 165.136 54.198 166.06C52.994 166.984 52.392 168.202 52.392 169.714V180.844C52.392 182.384 52.98 183.616 54.156 184.54C55.36 185.464 56.956 185.926 58.944 185.926ZM86.8346 190.378C84.7066 190.378 82.7466 189.972 80.9546 189.16C79.1906 188.32 77.7906 187.186 76.7546 185.758C75.7186 184.33 75.2006 182.748 75.2006 181.012V169.588C75.2006 167.852 75.7186 166.27 76.7546 164.842C77.7906 163.414 79.1906 162.294 80.9546 161.482C82.7466 160.642 84.7066 160.222 86.8346 160.222C88.9906 160.222 90.9506 160.642 92.7146 161.482C94.5066 162.294 95.9066 163.414 96.9146 164.842C97.9506 166.27 98.4686 167.852 98.4686 169.588V181.012C98.4686 182.748 97.9506 184.33 96.9146 185.758C95.8786 187.186 94.4646 188.32 92.6726 189.16C90.9086 189.972 88.9626 190.378 86.8346 190.378ZM86.8346 185.926C88.8226 185.926 90.4186 185.464 91.6226 184.54C92.8266 183.616 93.4286 182.384 93.4286 180.844V169.714C93.4286 168.202 92.8266 166.984 91.6226 166.06C90.4186 165.136 88.8226 164.674 86.8346 164.674C84.8746 164.674 83.2926 165.136 82.0886 166.06C80.8846 166.984 80.2826 168.202 80.2826 169.714V180.844C80.2826 182.384 80.8706 183.616 82.0466 184.54C83.2506 185.464 84.8466 185.926 86.8346 185.926Z" fill="white"/>
<path d="M111.904 189.712C111.701 190 111.419 190.144 111.056 190.144C110.875 190.144 110.715 190.107 110.576 190.032C110.437 189.957 110.309 189.829 110.192 189.648L107.792 185.952L106.64 186.992V189.072C106.64 189.787 106.112 190.144 105.056 190.144V179.936C105.056 179.083 105.589 178.656 106.656 178.656L106.64 185.312L110.448 181.872C110.832 182.203 111.024 182.48 111.024 182.704C111.024 182.853 110.987 182.981 110.912 183.088C110.837 183.184 110.704 183.323 110.512 183.504L108.768 185.088L111.904 189.712ZM113.681 183.152C113.681 182.288 114.188 181.856 115.201 181.856V182.864C115.094 182.971 114.977 183.12 114.849 183.312L114.929 183.376C115.27 182.885 115.628 182.512 116.001 182.256C116.374 181.989 116.817 181.856 117.329 181.856C118.289 181.856 118.945 182.315 119.297 183.232C119.894 182.315 120.705 181.856 121.729 181.856C122.476 181.856 123.057 182.112 123.473 182.624C123.9 183.136 124.113 183.803 124.113 184.624V189.056C124.113 189.429 123.98 189.707 123.713 189.888C123.457 190.059 123.062 190.144 122.529 190.144V184.736C122.529 183.723 122.118 183.216 121.297 183.216C120.849 183.216 120.465 183.371 120.145 183.68C119.836 183.979 119.681 184.4 119.681 184.944V189.056C119.681 189.44 119.553 189.717 119.297 189.888C119.041 190.059 118.652 190.144 118.129 190.144V184.736C118.129 184.267 118.028 183.899 117.825 183.632C117.622 183.355 117.308 183.216 116.881 183.216C116.412 183.216 116.022 183.387 115.713 183.728C115.414 184.059 115.265 184.48 115.265 184.992V189.056C115.265 189.429 115.132 189.707 114.865 189.888C114.609 190.059 114.214 190.144 113.681 190.144V183.152Z" fill="white"/>
<path d="M183.744 155.144C183.424 155.08 183.173 154.947 182.992 154.744C182.811 154.531 182.72 154.275 182.72 153.976C182.72 153.773 182.768 153.56 182.864 153.336L186.688 144.136C186.816 143.816 187.061 143.656 187.424 143.656C187.765 143.656 188.005 143.816 188.144 144.136L191.968 153.336C192.064 153.56 192.112 153.773 192.112 153.976C192.112 154.264 192.021 154.515 191.84 154.728C191.659 154.941 191.408 155.08 191.088 155.144L189.712 151.8H185.12L183.744 155.144ZM189.248 150.504L187.184 145.272L187.056 145.32L187.344 146.056L185.584 150.504H189.248ZM196.277 155.144C196.117 155.144 195.973 155.101 195.845 155.016C195.717 154.931 195.627 154.824 195.573 154.696L192.501 146.968C192.565 146.936 192.656 146.909 192.773 146.888C192.891 146.867 192.997 146.856 193.093 146.856C193.328 146.856 193.536 146.909 193.717 147.016C193.899 147.123 194.021 147.277 194.085 147.48L196.197 153.224L195.973 153.864L196.053 153.896L198.453 147.48C198.517 147.277 198.64 147.123 198.821 147.016C199.003 146.909 199.205 146.856 199.429 146.856C199.525 146.856 199.632 146.867 199.749 146.888C199.867 146.909 199.963 146.936 200.037 146.968L196.965 154.696C196.912 154.824 196.821 154.931 196.693 155.016C196.576 155.101 196.437 155.144 196.277 155.144ZM204.007 158.344C203.452 158.344 202.935 158.253 202.455 158.072C201.975 157.891 201.596 157.645 201.319 157.336C201.042 157.037 200.903 156.712 200.903 156.36C200.903 156.083 200.994 155.88 201.175 155.752C201.367 155.624 201.623 155.56 201.943 155.56C201.964 156.061 202.156 156.456 202.519 156.744C202.892 157.043 203.388 157.192 204.007 157.192C205.372 157.192 206.055 156.531 206.055 155.208V154.28C206.204 154.152 206.316 154.035 206.391 153.928L206.343 153.848C206.034 154.179 205.644 154.451 205.175 154.664C204.716 154.877 204.252 154.984 203.783 154.984C202.866 154.984 202.114 154.733 201.527 154.232C200.951 153.72 200.663 153.048 200.663 152.216V149.64C200.663 149.096 200.796 148.616 201.063 148.2C201.34 147.773 201.714 147.443 202.183 147.208C202.663 146.973 203.191 146.856 203.767 146.856C204.812 146.856 205.687 147.315 206.391 148.232L206.455 148.168L206.135 147.768C206.135 147.469 206.236 147.245 206.439 147.096C206.652 146.936 206.994 146.856 207.463 146.856V155.064C207.463 155.704 207.314 156.269 207.015 156.76C206.727 157.261 206.322 157.651 205.799 157.928C205.276 158.205 204.679 158.344 204.007 158.344ZM204.039 153.768C204.604 153.768 205.084 153.619 205.479 153.32C205.874 153.011 206.071 152.648 206.071 152.232V149.624C206.071 149.187 205.874 148.819 205.479 148.52C205.095 148.221 204.626 148.072 204.071 148.072C203.431 148.072 202.935 148.216 202.583 148.504C202.231 148.781 202.055 149.181 202.055 149.704V152.152C202.055 152.653 202.226 153.048 202.567 153.336C202.919 153.624 203.41 153.768 204.039 153.768ZM217.823 155.144C216.927 155.144 216.148 155.016 215.487 154.76C214.836 154.504 214.34 154.163 213.999 153.736C213.658 153.309 213.487 152.851 213.487 152.36C213.487 151.955 213.594 151.645 213.807 151.432C214.02 151.208 214.346 151.096 214.783 151.096C214.783 152.003 215.055 152.696 215.599 153.176C216.143 153.645 216.906 153.88 217.887 153.88C218.826 153.88 219.546 153.725 220.047 153.416C220.548 153.096 220.799 152.627 220.799 152.008C220.799 151.635 220.703 151.331 220.511 151.096C220.33 150.851 220.015 150.643 219.567 150.472C219.13 150.291 218.495 150.109 217.663 149.928C216.682 149.715 215.903 149.469 215.327 149.192C214.751 148.904 214.33 148.557 214.063 148.152C213.796 147.747 213.663 147.245 213.663 146.648C213.663 146.051 213.828 145.528 214.159 145.08C214.5 144.621 214.98 144.269 215.599 144.024C216.218 143.779 216.938 143.656 217.759 143.656C218.538 143.656 219.231 143.768 219.839 143.992C220.458 144.205 220.938 144.515 221.279 144.92C221.631 145.315 221.807 145.763 221.807 146.264C221.807 146.573 221.706 146.819 221.503 147C221.311 147.171 221.007 147.256 220.591 147.256C220.474 146.445 220.186 145.853 219.727 145.48C219.279 145.107 218.623 144.92 217.759 144.92C216.927 144.92 216.287 145.069 215.839 145.368C215.391 145.656 215.167 146.067 215.167 146.6C215.167 146.973 215.247 147.283 215.407 147.528C215.578 147.763 215.86 147.965 216.255 148.136C216.66 148.307 217.226 148.472 217.951 148.632C219.039 148.867 219.892 149.128 220.511 149.416C221.14 149.704 221.594 150.056 221.871 150.472C222.148 150.888 222.287 151.4 222.287 152.008C222.287 152.979 221.882 153.747 221.071 154.312C220.26 154.867 219.178 155.144 217.823 155.144ZM224.12 147.992C224.12 147.64 224.227 147.363 224.44 147.16C224.664 146.957 225 146.856 225.448 146.856V147.752L225.128 148.168L225.176 148.232C225.507 147.805 225.885 147.469 226.312 147.224C226.739 146.979 227.245 146.856 227.832 146.856C228.749 146.856 229.491 147.112 230.056 147.624C230.621 148.125 230.904 148.797 230.904 149.64V152.376C230.904 153.219 230.611 153.891 230.024 154.392C229.437 154.893 228.675 155.144 227.736 155.144C227.235 155.144 226.771 155.043 226.344 154.84C225.928 154.627 225.56 154.349 225.24 154.008L225.192 154.088C225.267 154.195 225.379 154.312 225.528 154.44V157.256C225.528 157.981 225.059 158.344 224.12 158.344V147.992ZM227.528 153.912C228.157 153.912 228.648 153.773 229 153.496C229.352 153.208 229.528 152.813 229.528 152.312V149.704C229.528 149.181 229.352 148.781 229 148.504C228.648 148.227 228.152 148.088 227.512 148.088C226.947 148.088 226.472 148.237 226.088 148.536C225.704 148.824 225.512 149.187 225.512 149.624V152.392C225.512 152.819 225.693 153.181 226.056 153.48C226.419 153.768 226.909 153.912 227.528 153.912ZM236.195 155.144C235.545 155.144 234.963 155.021 234.451 154.776C233.939 154.52 233.539 154.173 233.251 153.736C232.963 153.288 232.819 152.787 232.819 152.232V149.864C232.819 149.299 232.969 148.787 233.267 148.328C233.577 147.869 233.987 147.512 234.499 147.256C235.022 146.989 235.587 146.856 236.195 146.856C236.803 146.856 237.358 146.984 237.859 147.24C238.371 147.496 238.771 147.848 239.059 148.296C239.358 148.744 239.507 149.251 239.507 149.816V150.84C239.507 151.011 239.443 151.155 239.315 151.272C239.187 151.389 239.033 151.448 238.851 151.448H234.179V152.168C234.179 152.712 234.35 153.149 234.691 153.48C235.043 153.811 235.545 153.976 236.195 153.976C236.846 153.976 237.342 153.832 237.683 153.544C238.025 153.256 238.195 152.867 238.195 152.376C238.515 152.355 238.782 152.419 238.995 152.568C239.219 152.707 239.331 152.915 239.331 153.192C239.331 153.533 239.182 153.853 238.883 154.152C238.595 154.451 238.211 154.691 237.731 154.872C237.251 155.053 236.739 155.144 236.195 155.144ZM238.211 150.36V149.816C238.211 149.283 238.025 148.851 237.651 148.52C237.289 148.179 236.803 148.008 236.195 148.008C235.587 148.008 235.097 148.179 234.723 148.52C234.361 148.851 234.179 149.283 234.179 149.816V150.36H238.211ZM244.57 155.144C243.92 155.144 243.338 155.021 242.826 154.776C242.314 154.52 241.914 154.173 241.626 153.736C241.338 153.288 241.194 152.787 241.194 152.232V149.864C241.194 149.299 241.344 148.787 241.642 148.328C241.952 147.869 242.362 147.512 242.874 147.256C243.397 146.989 243.962 146.856 244.57 146.856C245.178 146.856 245.733 146.984 246.234 147.24C246.746 147.496 247.146 147.848 247.434 148.296C247.733 148.744 247.882 149.251 247.882 149.816V150.84C247.882 151.011 247.818 151.155 247.69 151.272C247.562 151.389 247.408 151.448 247.226 151.448H242.554V152.168C242.554 152.712 242.725 153.149 243.066 153.48C243.418 153.811 243.92 153.976 244.57 153.976C245.221 153.976 245.717 153.832 246.058 153.544C246.4 153.256 246.57 152.867 246.57 152.376C246.89 152.355 247.157 152.419 247.37 152.568C247.594 152.707 247.706 152.915 247.706 153.192C247.706 153.533 247.557 153.853 247.258 154.152C246.97 154.451 246.586 154.691 246.106 154.872C245.626 155.053 245.114 155.144 244.57 155.144ZM246.586 150.36V149.816C246.586 149.283 246.4 148.851 246.026 148.52C245.664 148.179 245.178 148.008 244.57 148.008C243.962 148.008 243.472 148.179 243.098 148.52C242.736 148.851 242.554 149.283 242.554 149.816V150.36H246.586ZM252.657 155.144C251.74 155.144 250.993 154.893 250.417 154.392C249.852 153.88 249.569 153.203 249.569 152.36V149.624C249.569 149.08 249.703 148.6 249.969 148.184C250.236 147.757 250.604 147.432 251.073 147.208C251.553 146.973 252.103 146.856 252.721 146.856C253.223 146.856 253.687 146.963 254.113 147.176C254.54 147.379 254.913 147.651 255.233 147.992L255.281 147.912C255.207 147.805 255.095 147.688 254.945 147.56V144.744C254.945 144.392 255.063 144.125 255.297 143.944C255.532 143.752 255.884 143.656 256.353 143.656V154.008C256.353 154.36 256.247 154.637 256.033 154.84C255.831 155.043 255.5 155.144 255.041 155.144V154.248C255.191 154.056 255.292 153.917 255.345 153.832L255.297 153.768C254.956 154.195 254.577 154.531 254.161 154.776C253.745 155.021 253.244 155.144 252.657 155.144ZM252.961 153.912C253.527 153.912 254.001 153.768 254.385 153.48C254.769 153.181 254.961 152.813 254.961 152.376V149.608C254.961 149.181 254.78 148.824 254.417 148.536C254.055 148.237 253.564 148.088 252.945 148.088C252.316 148.088 251.825 148.232 251.473 148.52C251.132 148.797 250.961 149.187 250.961 149.688V152.296C250.961 152.819 251.132 153.219 251.473 153.496C251.825 153.773 252.321 153.912 252.961 153.912Z" fill="white"/>
<path d="M195.555 190.396C193.427 190.396 191.467 189.99 189.675 189.178C187.911 188.338 186.511 187.204 185.475 185.776C184.439 184.348 183.921 182.766 183.921 181.03V169.606C183.921 167.87 184.439 166.288 185.475 164.86C186.511 163.432 187.911 162.312 189.675 161.5C191.467 160.66 193.427 160.24 195.555 160.24C197.711 160.24 199.671 160.66 201.435 161.5C203.227 162.312 204.627 163.432 205.635 164.86C206.671 166.288 207.189 167.87 207.189 169.606V181.03C207.189 182.766 206.671 184.348 205.635 185.776C204.599 187.204 203.185 188.338 201.393 189.178C199.629 189.99 197.683 190.396 195.555 190.396ZM195.555 185.944C197.543 185.944 199.139 185.482 200.343 184.558C201.547 183.634 202.149 182.402 202.149 180.862V169.732C202.149 168.22 201.547 167.002 200.343 166.078C199.139 165.154 197.543 164.692 195.555 164.692C193.595 164.692 192.013 165.154 190.809 166.078C189.605 167.002 189.003 168.22 189.003 169.732V180.862C189.003 182.402 189.591 183.634 190.767 184.558C191.971 185.482 193.567 185.944 195.555 185.944ZM223.446 190.396C221.318 190.396 219.358 189.99 217.566 189.178C215.802 188.338 214.402 187.204 213.366 185.776C212.33 184.348 211.812 182.766 211.812 181.03V169.606C211.812 167.87 212.33 166.288 213.366 164.86C214.402 163.432 215.802 162.312 217.566 161.5C219.358 160.66 221.318 160.24 223.446 160.24C225.602 160.24 227.562 160.66 229.326 161.5C231.118 162.312 232.518 163.432 233.526 164.86C234.562 166.288 235.08 167.87 235.08 169.606V181.03C235.08 182.766 234.562 184.348 233.526 185.776C232.49 187.204 231.076 188.338 229.284 189.178C227.52 189.99 225.574 190.396 223.446 190.396ZM223.446 185.944C225.434 185.944 227.03 185.482 228.234 184.558C229.438 183.634 230.04 182.402 230.04 180.862V169.732C230.04 168.22 229.438 167.002 228.234 166.078C227.03 165.154 225.434 164.692 223.446 164.692C221.486 164.692 219.904 165.154 218.7 166.078C217.496 167.002 216.894 168.22 216.894 169.732V180.862C216.894 182.402 217.482 183.634 218.658 184.558C219.862 185.482 221.458 185.944 223.446 185.944Z" fill="white"/>
<path d="M245.928 189.784C245.776 190 245.564 190.108 245.292 190.108C245.156 190.108 245.036 190.08 244.932 190.024C244.828 189.968 244.732 189.872 244.644 189.736L242.844 186.964L241.98 187.744V189.304C241.98 189.84 241.584 190.108 240.792 190.108V182.452C240.792 181.812 241.192 181.492 241.992 181.492L241.98 186.484L244.836 183.904C245.124 184.152 245.268 184.36 245.268 184.528C245.268 184.64 245.24 184.736 245.184 184.816C245.128 184.888 245.028 184.992 244.884 185.128L243.576 186.316L245.928 189.784ZM247.261 184.864C247.261 184.216 247.641 183.892 248.401 183.892V184.648C248.321 184.728 248.233 184.84 248.137 184.984L248.197 185.032C248.453 184.664 248.721 184.384 249.001 184.192C249.281 183.992 249.613 183.892 249.997 183.892C250.717 183.892 251.209 184.236 251.473 184.924C251.921 184.236 252.529 183.892 253.297 183.892C253.857 183.892 254.293 184.084 254.605 184.468C254.925 184.852 255.085 185.352 255.085 185.968V189.292C255.085 189.572 254.985 189.78 254.785 189.916C254.593 190.044 254.297 190.108 253.897 190.108V186.052C253.897 185.292 253.589 184.912 252.973 184.912C252.637 184.912 252.349 185.028 252.109 185.26C251.877 185.484 251.761 185.8 251.761 186.208V189.292C251.761 189.58 251.665 189.788 251.473 189.916C251.281 190.044 250.989 190.108 250.597 190.108V186.052C250.597 185.7 250.521 185.424 250.369 185.224C250.217 185.016 249.981 184.912 249.661 184.912C249.309 184.912 249.017 185.04 248.785 185.296C248.561 185.544 248.449 185.86 248.449 186.244V189.292C248.449 189.572 248.349 189.78 248.149 189.916C247.957 190.044 247.661 190.108 247.261 190.108V184.864ZM260.561 181.624C260.633 181.472 260.737 181.356 260.873 181.276C261.017 181.196 261.173 181.156 261.341 181.156C261.581 181.156 261.813 181.232 262.037 181.384L257.741 189.964C257.661 190.116 257.553 190.232 257.417 190.312C257.289 190.392 257.141 190.432 256.973 190.432C256.733 190.432 256.505 190.352 256.289 190.192L260.561 181.624ZM263.339 182.464C263.339 182.152 263.439 181.912 263.639 181.744C263.847 181.576 264.147 181.492 264.539 181.492V184.636C264.451 184.724 264.359 184.84 264.263 184.984L264.323 185.032C264.571 184.688 264.879 184.412 265.247 184.204C265.615 183.996 266.019 183.892 266.459 183.892C267.099 183.892 267.607 184.088 267.983 184.48C268.359 184.864 268.547 185.36 268.547 185.968V189.292C268.547 189.572 268.447 189.78 268.247 189.916C268.055 190.044 267.759 190.108 267.359 190.108V186.112C267.359 185.76 267.255 185.476 267.047 185.26C266.839 185.044 266.535 184.936 266.135 184.936C265.855 184.936 265.591 185 265.343 185.128C265.095 185.248 264.899 185.412 264.755 185.62C264.611 185.828 264.539 186.056 264.539 186.304V189.292C264.539 189.572 264.439 189.78 264.239 189.916C264.039 190.044 263.739 190.108 263.339 190.108V182.464Z" fill="white"/>
<path d="M111.12 63.904C111.12 63.5093 111.253 63.2053 111.52 62.992C111.787 62.768 112.155 62.656 112.624 62.656L116.496 71.952L116.192 72.704L116.304 72.752L120.4 62.656C120.869 62.656 121.237 62.768 121.504 62.992C121.781 63.216 121.92 63.5253 121.92 63.92V74.144C120.928 74.144 120.432 73.7333 120.432 72.912V66.176L120.848 65.072L120.72 65.04L117.152 73.712C117.099 73.84 117.013 73.9413 116.896 74.016C116.779 74.1013 116.656 74.144 116.528 74.144C116.389 74.144 116.261 74.1067 116.144 74.032C116.027 73.9573 115.941 73.8507 115.888 73.712L112.32 65.024L112.192 65.072L112.608 66.16V72.912C112.608 73.3173 112.48 73.6267 112.224 73.84C111.979 74.0427 111.611 74.144 111.12 74.144V63.904ZM127.207 74.144C126.556 74.144 125.964 74.0213 125.431 73.776C124.908 73.5307 124.498 73.2 124.199 72.784C123.911 72.3573 123.767 71.8827 123.767 71.36V68.736C123.767 68.2027 123.911 67.7173 124.199 67.28C124.498 66.8427 124.908 66.496 125.431 66.24C125.954 65.984 126.546 65.856 127.207 65.856C127.868 65.856 128.46 65.984 128.983 66.24C129.516 66.496 129.927 66.8427 130.215 67.28C130.514 67.7173 130.663 68.2027 130.663 68.736V71.36C130.663 71.8827 130.514 72.3573 130.215 72.784C129.916 73.2 129.506 73.5307 128.983 73.776C128.46 74.0213 127.868 74.144 127.207 74.144ZM127.207 72.944C127.847 72.944 128.354 72.7947 128.727 72.496C129.111 72.1867 129.303 71.7867 129.303 71.296V68.784C129.303 68.272 129.111 67.856 128.727 67.536C128.354 67.216 127.847 67.056 127.207 67.056C126.578 67.056 126.071 67.216 125.687 67.536C125.303 67.856 125.111 68.272 125.111 68.784V71.296C125.111 71.7867 125.298 72.1867 125.671 72.496C126.055 72.7947 126.567 72.944 127.207 72.944ZM134.84 74.144C134.68 74.144 134.536 74.1013 134.408 74.016C134.28 73.9307 134.189 73.824 134.136 73.696L131.064 65.968C131.128 65.936 131.218 65.9093 131.336 65.888C131.453 65.8667 131.56 65.856 131.656 65.856C131.89 65.856 132.098 65.9093 132.28 66.016C132.461 66.1227 132.584 66.2773 132.648 66.48L134.76 72.224L134.536 72.864L134.616 72.896L137.016 66.48C137.08 66.2773 137.202 66.1227 137.384 66.016C137.565 65.9093 137.768 65.856 137.992 65.856C138.088 65.856 138.194 65.8667 138.312 65.888C138.429 65.9093 138.525 65.936 138.6 65.968L135.528 73.696C135.474 73.824 135.384 73.9307 135.256 74.016C135.138 74.1013 135 74.144 134.84 74.144ZM141.082 64.656C140.784 64.656 140.533 64.56 140.33 64.368C140.128 64.176 140.026 63.936 140.026 63.648C140.026 63.36 140.128 63.1253 140.33 62.944C140.533 62.752 140.784 62.656 141.082 62.656C141.37 62.656 141.616 62.752 141.818 62.944C142.021 63.1253 142.122 63.36 142.122 63.648C142.122 63.936 142.021 64.176 141.818 64.368C141.616 64.56 141.37 64.656 141.082 64.656ZM140.378 66.88C140.378 66.528 140.49 66.272 140.714 66.112C140.949 65.9413 141.301 65.856 141.77 65.856V73.12C141.77 73.472 141.653 73.7333 141.418 73.904C141.194 74.064 140.848 74.144 140.378 74.144V66.88ZM144.37 67.04C144.37 66.2507 144.818 65.856 145.714 65.856V66.88C145.618 66.976 145.506 67.12 145.378 67.312L145.442 67.376C145.762 66.928 146.178 66.5653 146.69 66.288C147.202 66 147.757 65.856 148.354 65.856C149.218 65.856 149.901 66.112 150.402 66.624C150.903 67.136 151.154 67.7973 151.154 68.608V73.12C151.154 73.472 151.037 73.7333 150.802 73.904C150.578 74.064 150.231 74.144 149.762 74.144V68.752C149.762 68.24 149.618 67.8347 149.33 67.536C149.042 67.2373 148.605 67.088 148.018 67.088C147.623 67.088 147.25 67.1733 146.898 67.344C146.557 67.504 146.279 67.728 146.066 68.016C145.863 68.2933 145.762 68.5973 145.762 68.928V73.12C145.762 73.472 145.645 73.7333 145.41 73.904C145.186 74.064 144.839 74.144 144.37 74.144V67.04ZM156.413 77.344C155.859 77.344 155.341 77.2533 154.861 77.072C154.381 76.8907 154.003 76.6453 153.725 76.336C153.448 76.0373 153.309 75.712 153.309 75.36C153.309 75.0827 153.4 74.88 153.581 74.752C153.773 74.624 154.029 74.56 154.349 74.56C154.371 75.0613 154.563 75.456 154.925 75.744C155.299 76.0427 155.795 76.192 156.413 76.192C157.779 76.192 158.461 75.5307 158.461 74.208V73.28C158.611 73.152 158.723 73.0347 158.797 72.928L158.749 72.848C158.44 73.1787 158.051 73.4507 157.581 73.664C157.123 73.8773 156.659 73.984 156.189 73.984C155.272 73.984 154.52 73.7333 153.933 73.232C153.357 72.72 153.069 72.048 153.069 71.216V68.64C153.069 68.096 153.203 67.616 153.469 67.2C153.747 66.7733 154.12 66.4427 154.589 66.208C155.069 65.9733 155.597 65.856 156.173 65.856C157.219 65.856 158.093 66.3147 158.797 67.232L158.861 67.168L158.541 66.768C158.541 66.4693 158.643 66.2453 158.845 66.096C159.059 65.936 159.4 65.856 159.869 65.856V74.064C159.869 74.704 159.72 75.2693 159.421 75.76C159.133 76.2613 158.728 76.6507 158.205 76.928C157.683 77.2053 157.085 77.344 156.413 77.344ZM156.445 72.768C157.011 72.768 157.491 72.6187 157.885 72.32C158.28 72.0107 158.477 71.648 158.477 71.232V68.624C158.477 68.1867 158.28 67.8187 157.885 67.52C157.501 67.2213 157.032 67.072 156.477 67.072C155.837 67.072 155.341 67.216 154.989 67.504C154.637 67.7813 154.461 68.1813 154.461 68.704V71.152C154.461 71.6533 154.632 72.048 154.973 72.336C155.325 72.624 155.816 72.768 156.445 72.768ZM169.573 64.128H165.669C165.669 63.2427 166.085 62.8 166.917 62.8H174.965C174.965 63.6853 174.549 64.128 173.717 64.128H171.077V72.896C171.077 73.3013 170.949 73.6107 170.693 73.824C170.437 74.0373 170.064 74.144 169.573 74.144V64.128ZM176.504 64.656C176.205 64.656 175.955 64.56 175.752 64.368C175.549 64.176 175.448 63.936 175.448 63.648C175.448 63.36 175.549 63.1253 175.752 62.944C175.955 62.752 176.205 62.656 176.504 62.656C176.792 62.656 177.037 62.752 177.24 62.944C177.443 63.1253 177.544 63.36 177.544 63.648C177.544 63.936 177.443 64.176 177.24 64.368C177.037 64.56 176.792 64.656 176.504 64.656ZM175.8 66.88C175.8 66.528 175.912 66.272 176.136 66.112C176.371 65.9413 176.723 65.856 177.192 65.856V73.12C177.192 73.472 177.075 73.7333 176.84 73.904C176.616 74.064 176.269 74.144 175.8 74.144V66.88ZM179.792 67.04C179.792 66.2507 180.235 65.856 181.12 65.856V66.88C180.981 67.0293 180.869 67.1733 180.784 67.312L180.848 67.376C181.189 66.896 181.552 66.5227 181.936 66.256C182.32 65.9893 182.763 65.856 183.264 65.856C184.235 65.856 184.901 66.32 185.264 67.248C185.872 66.32 186.683 65.856 187.696 65.856C188.453 65.856 189.035 66.112 189.44 66.624C189.856 67.1253 190.064 67.7867 190.064 68.608V73.12C190.064 73.472 189.947 73.7333 189.712 73.904C189.488 74.064 189.147 74.144 188.688 74.144V68.688C188.688 68.176 188.581 67.776 188.368 67.488C188.155 67.2 187.819 67.056 187.36 67.056C186.88 67.056 186.469 67.2213 186.128 67.552C185.787 67.872 185.616 68.304 185.616 68.848V73.12C185.616 73.472 185.504 73.7333 185.28 73.904C185.056 74.064 184.715 74.144 184.256 74.144V68.688C184.256 68.176 184.149 67.776 183.936 67.488C183.723 67.2 183.387 67.056 182.928 67.056C182.437 67.056 182.021 67.232 181.68 67.584C181.339 67.936 181.168 68.368 181.168 68.88V73.12C181.168 73.472 181.051 73.7333 180.816 73.904C180.592 74.064 180.251 74.144 179.792 74.144V67.04ZM195.367 74.144C194.717 74.144 194.135 74.0213 193.623 73.776C193.111 73.52 192.711 73.1733 192.423 72.736C192.135 72.288 191.991 71.7867 191.991 71.232V68.864C191.991 68.2987 192.141 67.7867 192.439 67.328C192.749 66.8693 193.159 66.512 193.671 66.256C194.194 65.9893 194.759 65.856 195.367 65.856C195.975 65.856 196.53 65.984 197.031 66.24C197.543 66.496 197.943 66.848 198.231 67.296C198.53 67.744 198.679 68.2507 198.679 68.816V69.84C198.679 70.0107 198.615 70.1547 198.487 70.272C198.359 70.3893 198.205 70.448 198.023 70.448H193.351V71.168C193.351 71.712 193.522 72.1493 193.863 72.48C194.215 72.8107 194.717 72.976 195.367 72.976C196.018 72.976 196.514 72.832 196.855 72.544C197.197 72.256 197.367 71.8667 197.367 71.376C197.687 71.3547 197.954 71.4187 198.167 71.568C198.391 71.7067 198.503 71.9147 198.503 72.192C198.503 72.5333 198.354 72.8533 198.055 73.152C197.767 73.4507 197.383 73.6907 196.903 73.872C196.423 74.0533 195.911 74.144 195.367 74.144ZM197.383 69.36V68.816C197.383 68.2827 197.197 67.8507 196.823 67.52C196.461 67.1787 195.975 67.008 195.367 67.008C194.759 67.008 194.269 67.1787 193.895 67.52C193.533 67.8507 193.351 68.2827 193.351 68.816V69.36H197.383Z" fill="white"/>
<path d="M68.944 114.378C66.816 114.378 64.856 113.972 63.064 113.16C61.3 112.32 59.9 111.186 58.864 109.758C57.828 108.33 57.31 106.748 57.31 105.012V93.588C57.31 91.852 57.828 90.27 58.864 88.842C59.9 87.414 61.3 86.294 63.064 85.482C64.856 84.642 66.816 84.222 68.944 84.222C71.1 84.222 73.06 84.642 74.824 85.482C76.616 86.294 78.016 87.414 79.024 88.842C80.06 90.27 80.578 91.852 80.578 93.588V105.012C80.578 106.748 80.06 108.33 79.024 109.758C77.988 111.186 76.574 112.32 74.782 113.16C73.018 113.972 71.072 114.378 68.944 114.378ZM68.944 109.926C70.932 109.926 72.528 109.464 73.732 108.54C74.936 107.616 75.538 106.384 75.538 104.844V93.714C75.538 92.202 74.936 90.984 73.732 90.06C72.528 89.136 70.932 88.674 68.944 88.674C66.984 88.674 65.402 89.136 64.198 90.06C62.994 90.984 62.392 92.202 62.392 93.714V104.844C62.392 106.384 62.98 107.616 64.156 108.54C65.36 109.464 66.956 109.926 68.944 109.926ZM96.8346 114.378C94.7066 114.378 92.7466 113.972 90.9546 113.16C89.1906 112.32 87.7906 111.186 86.7546 109.758C85.7186 108.33 85.2006 106.748 85.2006 105.012V93.588C85.2006 91.852 85.7186 90.27 86.7546 88.842C87.7906 87.414 89.1906 86.294 90.9546 85.482C92.7466 84.642 94.7066 84.222 96.8346 84.222C98.9906 84.222 100.951 84.642 102.715 85.482C104.507 86.294 105.907 87.414 106.915 88.842C107.951 90.27 108.469 91.852 108.469 93.588V105.012C108.469 106.748 107.951 108.33 106.915 109.758C105.879 111.186 104.465 112.32 102.673 113.16C100.909 113.972 98.9626 114.378 96.8346 114.378ZM96.8346 109.926C98.8226 109.926 100.419 109.464 101.623 108.54C102.827 107.616 103.429 106.384 103.429 104.844V93.714C103.429 92.202 102.827 90.984 101.623 90.06C100.419 89.136 98.8226 88.674 96.8346 88.674C94.8746 88.674 93.2926 89.136 92.0886 90.06C90.8846 90.984 90.2826 92.202 90.2826 93.714V104.844C90.2826 106.384 90.8706 107.616 92.0466 108.54C93.2506 109.464 94.8466 109.926 96.8346 109.926ZM115.989 99.468C114.981 99.468 114.141 99.146 113.469 98.502C112.797 97.83 112.461 96.99 112.461 95.982C112.461 95.002 112.797 94.176 113.469 93.504C114.141 92.832 114.981 92.496 115.989 92.496C116.969 92.496 117.809 92.846 118.509 93.546C119.209 94.218 119.559 95.03 119.559 95.982C119.559 96.99 119.209 97.83 118.509 98.502C117.809 99.146 116.969 99.468 115.989 99.468ZM115.989 114.378C114.981 114.378 114.141 114.056 113.469 113.412C112.797 112.74 112.461 111.9 112.461 110.892C112.461 109.912 112.797 109.086 113.469 108.414C114.141 107.742 114.981 107.406 115.989 107.406C116.969 107.406 117.809 107.742 118.509 108.414C119.209 109.086 119.559 109.912 119.559 110.892C119.559 111.872 119.209 112.698 118.509 113.37C117.809 114.042 116.969 114.378 115.989 114.378ZM135.184 114.378C133.056 114.378 131.096 113.972 129.304 113.16C127.54 112.32 126.14 111.186 125.104 109.758C124.068 108.33 123.55 106.748 123.55 105.012V93.588C123.55 91.852 124.068 90.27 125.104 88.842C126.14 87.414 127.54 86.294 129.304 85.482C131.096 84.642 133.056 84.222 135.184 84.222C137.34 84.222 139.3 84.642 141.064 85.482C142.856 86.294 144.256 87.414 145.264 88.842C146.3 90.27 146.818 91.852 146.818 93.588V105.012C146.818 106.748 146.3 108.33 145.264 109.758C144.228 111.186 142.814 112.32 141.022 113.16C139.258 113.972 137.312 114.378 135.184 114.378ZM135.184 109.926C137.172 109.926 138.768 109.464 139.972 108.54C141.176 107.616 141.778 106.384 141.778 104.844V93.714C141.778 92.202 141.176 90.984 139.972 90.06C138.768 89.136 137.172 88.674 135.184 88.674C133.224 88.674 131.642 89.136 130.438 90.06C129.234 90.984 128.632 92.202 128.632 93.714V104.844C128.632 106.384 129.22 107.616 130.396 108.54C131.6 109.464 133.196 109.926 135.184 109.926ZM163.075 114.378C160.947 114.378 158.987 113.972 157.195 113.16C155.431 112.32 154.031 111.186 152.995 109.758C151.959 108.33 151.441 106.748 151.441 105.012V93.588C151.441 91.852 151.959 90.27 152.995 88.842C154.031 87.414 155.431 86.294 157.195 85.482C158.987 84.642 160.947 84.222 163.075 84.222C165.231 84.222 167.191 84.642 168.955 85.482C170.747 86.294 172.147 87.414 173.155 88.842C174.191 90.27 174.709 91.852 174.709 93.588V105.012C174.709 106.748 174.191 108.33 173.155 109.758C172.119 111.186 170.705 112.32 168.913 113.16C167.149 113.972 165.203 114.378 163.075 114.378ZM163.075 109.926C165.063 109.926 166.659 109.464 167.863 108.54C169.067 107.616 169.669 106.384 169.669 104.844V93.714C169.669 92.202 169.067 90.984 167.863 90.06C166.659 89.136 165.063 88.674 163.075 88.674C161.115 88.674 159.533 89.136 158.329 90.06C157.125 90.984 156.523 92.202 156.523 93.714V104.844C156.523 106.384 157.111 107.616 158.287 108.54C159.491 109.464 161.087 109.926 163.075 109.926ZM182.229 99.468C181.221 99.468 180.381 99.146 179.709 98.502C179.037 97.83 178.701 96.99 178.701 95.982C178.701 95.002 179.037 94.176 179.709 93.504C180.381 92.832 181.221 92.496 182.229 92.496C183.209 92.496 184.049 92.846 184.749 93.546C185.449 94.218 185.799 95.03 185.799 95.982C185.799 96.99 185.449 97.83 184.749 98.502C184.049 99.146 183.209 99.468 182.229 99.468ZM182.229 114.378C181.221 114.378 180.381 114.056 179.709 113.412C179.037 112.74 178.701 111.9 178.701 110.892C178.701 109.912 179.037 109.086 179.709 108.414C180.381 107.742 181.221 107.406 182.229 107.406C183.209 107.406 184.049 107.742 184.749 108.414C185.449 109.086 185.799 109.912 185.799 110.892C185.799 111.872 185.449 112.698 184.749 113.37C184.049 114.042 183.209 114.378 182.229 114.378ZM201.424 114.378C199.296 114.378 197.336 113.972 195.544 113.16C193.78 112.32 192.38 111.186 191.344 109.758C190.308 108.33 189.79 106.748 189.79 105.012V93.588C189.79 91.852 190.308 90.27 191.344 88.842C192.38 87.414 193.78 86.294 195.544 85.482C197.336 84.642 199.296 84.222 201.424 84.222C203.58 84.222 205.54 84.642 207.304 85.482C209.096 86.294 210.496 87.414 211.504 88.842C212.54 90.27 213.058 91.852 213.058 93.588V105.012C213.058 106.748 212.54 108.33 211.504 109.758C210.468 111.186 209.054 112.32 207.262 113.16C205.498 113.972 203.552 114.378 201.424 114.378ZM201.424 109.926C203.412 109.926 205.008 109.464 206.212 108.54C207.416 107.616 208.018 106.384 208.018 104.844V93.714C208.018 92.202 207.416 90.984 206.212 90.06C205.008 89.136 203.412 88.674 201.424 88.674C199.464 88.674 197.882 89.136 196.678 90.06C195.474 90.984 194.872 92.202 194.872 93.714V104.844C194.872 106.384 195.46 107.616 196.636 108.54C197.84 109.464 199.436 109.926 201.424 109.926ZM229.315 114.378C227.187 114.378 225.227 113.972 223.435 113.16C221.671 112.32 220.271 111.186 219.235 109.758C218.199 108.33 217.681 106.748 217.681 105.012V93.588C217.681 91.852 218.199 90.27 219.235 88.842C220.271 87.414 221.671 86.294 223.435 85.482C225.227 84.642 227.187 84.222 229.315 84.222C231.471 84.222 233.431 84.642 235.195 85.482C236.987 86.294 238.387 87.414 239.395 88.842C240.431 90.27 240.949 91.852 240.949 93.588V105.012C240.949 106.748 240.431 108.33 239.395 109.758C238.359 111.186 236.945 112.32 235.153 113.16C233.389 113.972 231.443 114.378 229.315 114.378ZM229.315 109.926C231.303 109.926 232.899 109.464 234.103 108.54C235.307 107.616 235.909 106.384 235.909 104.844V93.714C235.909 92.202 235.307 90.984 234.103 90.06C232.899 89.136 231.303 88.674 229.315 88.674C227.355 88.674 225.773 89.136 224.569 90.06C223.365 90.984 222.763 92.202 222.763 93.714V104.844C222.763 106.384 223.351 107.616 224.527 108.54C225.731 109.464 227.327 109.926 229.315 109.926Z" fill="white"/>
<line x1="14.7363" y1="128.974" x2="284.218" y2="128.974" stroke="#A2A2A2"/>
</svg>
