<svg width="300" height="300" viewBox="0 0 300 300" fill="none" xmlns="http://www.w3.org/2000/svg">
<rect width="300" height="300" rx="10" fill="#26609B"/>
<path d="M19.52 177C17.52 177 15.88 176.44 14.6 175.32C13.4 174.12 12.8 172.6 12.8 170.76C12.8 164.52 15.2 158.8 20 153.6C24.88 148.32 32.56 143.2 43.04 138.24C48.32 135.68 52.32 133.44 55.04 131.52C57.84 129.52 59.8 127.48 60.92 125.4C62.04 123.32 62.6 120.8 62.6 117.84C62.6 113.6 61.16 110.36 58.28 108.12C55.48 105.8 51.44 104.64 46.16 104.64C40.24 104.64 35.72 105.92 32.6 108.48C29.48 111.04 27.92 114.8 27.92 119.76C27.92 121.76 28.08 123.52 28.4 125.04C27.28 125.2 26.4 125.28 25.76 125.28C22.4 125.28 19.52 124.28 17.12 122.28C14.72 120.28 13.52 117.84 13.52 114.96C13.52 110.64 14.96 106.72 17.84 103.2C20.72 99.68 24.64 96.92 29.6 94.92C34.56 92.92 40.08 91.92 46.16 91.92C52.4 91.92 57.84 93 62.48 95.16C67.2 97.24 70.84 100.24 73.4 104.16C75.96 108.08 77.24 112.64 77.24 117.84C77.24 123.68 75.08 128.96 70.76 133.68C66.52 138.4 59.76 143 50.48 147.48C43.52 150.84 38.32 153.92 34.88 156.72C31.44 159.44 29.52 162.04 29.12 164.52H67.28C70.96 164.52 73.72 165.6 75.56 167.76C77.48 169.84 78.44 172.92 78.44 177H19.52ZM121.874 178.2C114.994 178.2 108.994 177.16 103.874 175.08C98.8344 173 94.9144 170.04 92.1144 166.2C89.3944 162.36 88.0344 157.84 88.0344 152.64C88.0344 148.16 89.2744 144.24 91.7544 140.88C94.3144 137.44 98.0344 134.72 102.914 132.72C98.9944 130.72 95.9944 128.24 93.9144 125.28C91.9144 122.32 90.9144 119 90.9144 115.32C90.9144 110.76 92.2344 106.72 94.8744 103.2C97.5144 99.6 101.154 96.84 105.794 94.92C110.514 92.92 115.874 91.92 121.874 91.92C127.954 91.92 133.314 92.92 137.954 94.92C142.674 96.84 146.314 99.56 148.874 103.08C151.514 106.6 152.834 110.68 152.834 115.32C152.834 119.08 151.834 122.44 149.834 125.4C147.834 128.28 144.874 130.72 140.954 132.72C145.754 134.72 149.394 137.44 151.874 140.88C154.434 144.24 155.714 148.16 155.714 152.64C155.714 157.84 154.354 162.36 151.634 166.2C148.914 170.04 144.994 173 139.874 175.08C134.834 177.16 128.834 178.2 121.874 178.2ZM121.874 127.68C127.074 127.68 131.154 126.64 134.114 124.56C137.154 122.4 138.674 119.52 138.674 115.92C138.674 112 137.234 109.08 134.354 107.16C131.554 105.16 127.394 104.16 121.874 104.16C116.434 104.16 112.274 105.16 109.394 107.16C106.514 109.16 105.074 112.08 105.074 115.92C105.074 119.44 106.594 122.28 109.634 124.44C112.754 126.6 116.834 127.68 121.874 127.68ZM121.874 165.84C128.354 165.84 133.234 164.72 136.514 162.48C139.874 160.16 141.554 156.76 141.554 152.28C141.554 147.8 139.834 144.36 136.394 141.96C133.034 139.48 128.194 138.24 121.874 138.24C115.714 138.24 110.874 139.48 107.354 141.96C103.914 144.44 102.194 147.88 102.194 152.28C102.194 156.68 103.874 160.04 107.234 162.36C110.674 164.68 115.554 165.84 121.874 165.84Z" fill="white"/>
<path d="M171.343 177.181C169.487 177.181 167.823 176.829 166.351 176.125C164.9 175.399 163.77 174.407 162.959 173.149C162.148 171.869 161.743 170.418 161.743 168.797V162.493C161.743 160.871 162.138 159.442 162.927 158.205C163.738 156.946 164.858 155.965 166.287 155.261C167.738 154.557 169.38 154.205 171.215 154.205C173.071 154.205 174.714 154.493 176.143 155.069C177.572 155.623 178.682 156.413 179.471 157.437C180.282 158.439 180.687 159.591 180.687 160.893C180.687 161.639 180.442 162.226 179.951 162.653C179.46 163.058 178.799 163.261 177.967 163.261C177.562 163.261 177.178 163.218 176.815 163.133C176.879 162.813 176.911 162.333 176.911 161.693C176.911 160.477 176.378 159.485 175.311 158.717C174.266 157.949 172.9 157.565 171.215 157.565C169.551 157.565 168.196 158.023 167.151 158.941C166.106 159.858 165.583 161.042 165.583 162.493V168.797C165.583 170.269 166.116 171.474 167.183 172.413C168.25 173.33 169.636 173.789 171.343 173.789C173.028 173.789 174.404 173.415 175.471 172.669C176.538 171.901 177.071 170.909 177.071 169.693C177.071 169.095 177.039 168.637 176.975 168.317C177.316 168.231 177.69 168.189 178.095 168.189C178.927 168.189 179.588 168.413 180.079 168.861C180.591 169.309 180.847 169.917 180.847 170.685C180.847 171.943 180.442 173.063 179.631 174.045C178.842 175.026 177.722 175.794 176.271 176.349C174.82 176.903 173.178 177.181 171.343 177.181Z" fill="white"/>
<path d="M169.612 134.338C168.46 134.338 167.436 134.125 166.54 133.698C165.665 133.271 164.982 132.695 164.492 131.97C164.022 131.245 163.788 130.445 163.788 129.57V125.954C163.788 125.079 164.022 124.279 164.492 123.554C164.982 122.829 165.665 122.253 166.54 121.826C167.436 121.399 168.46 121.186 169.612 121.186C170.785 121.186 171.809 121.399 172.684 121.826C173.58 122.253 174.262 122.829 174.732 123.554C175.222 124.279 175.468 125.079 175.468 125.954V129.57C175.468 130.445 175.222 131.245 174.732 131.97C174.262 132.695 173.58 133.271 172.684 133.698C171.809 134.125 170.785 134.338 169.612 134.338ZM169.612 131.842C170.486 131.842 171.201 131.629 171.756 131.202C172.31 130.775 172.588 130.199 172.588 129.474V126.05C172.588 125.325 172.31 124.749 171.756 124.322C171.201 123.895 170.486 123.682 169.612 123.682C168.737 123.682 168.022 123.895 167.468 124.322C166.934 124.749 166.668 125.325 166.668 126.05V129.474C166.668 130.199 166.934 130.775 167.468 131.202C168.022 131.629 168.737 131.842 169.612 131.842Z" fill="white"/>
<path d="M14.5449 266.524C14.5449 268.096 15.0312 269.485 15.9891 270.72C16.9469 271.941 18.1995 272.783 19.7468 273.232C19.8794 273.261 19.9973 273.218 20.1005 273.12L21.8099 271.113C20.4984 271.113 19.3784 270.664 18.45 269.766C17.5216 268.868 17.0501 267.787 17.0501 266.524C17.0501 265.345 17.4627 264.306 18.2879 263.436C19.1132 262.566 20.1447 262.075 21.3825 261.976L22.1635 261.878C22.3256 261.878 22.3993 261.822 22.3993 261.696L22.5172 260.924C22.6941 259.38 23.3867 258.103 24.5656 257.092C25.7445 256.082 27.1444 255.576 28.7654 255.576C30.3864 255.576 31.801 256.082 32.9947 257.106C34.203 258.131 34.8662 259.408 35.0135 260.924L35.1167 261.738C35.1462 261.892 35.264 261.976 35.4409 261.976H37.8282C39.1544 261.976 40.2891 262.425 41.2175 263.31C42.1459 264.194 42.6174 265.261 42.6174 266.524C42.6174 267.689 42.2048 268.713 41.3796 269.583C40.5544 270.454 39.5376 270.959 38.3292 271.099C38.1523 271.099 37.9166 271.127 37.6071 271.183C37.3271 271.211 37.1208 271.31 37.0029 271.506L33.5252 275.422C33.4214 275.545 33.3467 275.687 33.306 275.84C33.2653 275.992 33.2596 276.151 33.2894 276.306C33.3336 276.643 33.4957 276.91 33.7462 277.106C33.9083 277.275 34.1736 277.373 34.5714 277.373C34.9546 277.373 35.2641 277.204 35.4704 276.882L38.5944 273.457C40.4217 273.275 41.969 272.531 43.2363 271.197C44.5037 269.864 45.1226 268.306 45.1226 266.524C45.1226 265.583 44.931 264.671 44.5479 263.815C44.1867 262.988 43.6613 262.235 43.0006 261.597C42.3312 260.968 41.5407 260.468 40.6722 260.124C39.7734 259.758 38.8055 259.572 37.8282 259.576H37.3566C36.8703 257.724 35.824 256.194 34.2325 255.001C32.641 253.808 30.8137 253.218 28.7506 253.218C27.3802 253.218 26.0834 253.499 24.875 254.061C23.6666 254.622 22.6498 255.394 21.8099 256.39C20.9699 257.387 20.4247 258.524 20.1447 259.787C18.4942 260.138 17.1385 260.938 16.0922 262.201C15.0607 263.45 14.5449 264.896 14.5449 266.524ZM19.5258 277.78C19.5258 277.864 19.5552 278.004 19.6142 278.201C19.7468 278.496 19.9531 278.706 20.2626 278.818C20.5868 278.959 20.911 278.973 21.2499 278.847C21.4045 278.795 21.5454 278.712 21.6625 278.602C21.7796 278.493 21.8702 278.361 21.9278 278.215C22.0751 277.906 22.0899 277.611 21.9572 277.303C21.8989 277.16 21.8077 277.032 21.6904 276.927C21.573 276.823 21.4326 276.745 21.2794 276.699C21.1335 276.624 20.9714 276.581 20.8055 276.573C20.6396 276.566 20.4741 276.595 20.3215 276.657C20.1682 276.719 20.0293 276.809 19.9129 276.922C19.7965 277.035 19.705 277.169 19.6437 277.317C19.5667 277.46 19.5263 277.619 19.5258 277.78ZM22.252 274.355V274.496C22.2814 274.818 22.4288 275.071 22.6941 275.282C23.033 275.464 23.3277 275.548 23.6077 275.548C23.9319 275.548 24.2414 275.394 24.5066 275.085L27.9254 271.197C28.1317 270.959 28.2349 270.65 28.2201 270.271C28.1898 269.981 28.0417 269.714 27.8075 269.527C27.5717 269.331 27.3212 269.218 27.0412 269.218C26.9528 269.218 26.8939 269.218 26.8349 269.232C26.496 269.289 26.216 269.443 26.0097 269.696L22.532 273.583C22.3404 273.808 22.252 274.061 22.252 274.355ZM23.3867 280.98C23.3867 281.148 23.4309 281.303 23.5045 281.429C23.6224 281.724 23.8435 281.948 24.1529 282.089C24.315 282.159 24.4771 282.187 24.6392 282.187C24.8161 282.187 24.9782 282.159 25.0961 282.089C25.435 281.962 25.6708 281.766 25.7887 281.513C25.936 281.204 25.9508 280.896 25.8181 280.573C25.7686 280.423 25.6827 280.287 25.5675 280.175C25.4523 280.062 25.311 279.978 25.155 279.927C25.0017 279.857 24.8346 279.818 24.6645 279.813C24.4944 279.808 24.3251 279.838 24.1677 279.899C23.8287 280.025 23.6077 280.236 23.5045 280.531C23.4161 280.657 23.3867 280.811 23.3867 280.98ZM25.8476 277.682V277.836C25.8771 278.145 26.0392 278.397 26.3044 278.608C26.5697 278.818 26.8497 278.917 27.1149 278.917C27.4539 278.917 27.7486 278.762 28.0433 278.454L34.4536 271.099C34.6157 270.931 34.7041 270.678 34.7041 270.369V270.201C34.6746 269.878 34.5272 269.639 34.3062 269.457C34.0852 269.275 33.8199 269.176 33.5399 269.176H33.3483C33.0094 269.19 32.7294 269.345 32.5378 269.611L26.1276 276.91C25.9213 277.162 25.8476 277.415 25.8476 277.682ZM31.02 279.296C31.02 279.422 31.0495 279.562 31.1084 279.717C31.2411 280.025 31.4621 280.25 31.7863 280.376C31.9926 280.432 32.14 280.461 32.2431 280.461C32.4494 280.461 32.6263 280.418 32.7442 280.348C33.0684 280.222 33.3041 280.025 33.422 279.759C33.5694 279.52 33.5841 279.211 33.4515 278.818C33.395 278.678 33.3081 278.55 33.1964 278.444C33.0847 278.337 32.9507 278.255 32.8031 278.201L32.2726 278.075C32.14 278.103 31.9926 278.131 31.801 278.173C31.4768 278.285 31.2558 278.496 31.1379 278.79C31.0642 278.973 31.02 279.141 31.02 279.296Z" fill="#F8F8F8"/>
<path d="M55.672 264.288H54.776C54.3813 264.288 54.072 264.155 53.848 263.888C53.6347 263.621 53.528 263.259 53.528 262.8H56.584C56.8187 262.8 57.0107 262.875 57.16 263.024C57.3093 263.163 57.384 263.339 57.384 263.552V272.784C57.384 273.221 57.2347 273.557 56.936 273.792C56.648 274.027 56.2267 274.144 55.672 274.144V264.288ZM59.9408 274C59.6954 274 59.5034 273.936 59.3648 273.808C59.2261 273.669 59.1568 273.483 59.1568 273.248C59.1568 272.427 59.4714 271.664 60.1008 270.96C60.7408 270.245 61.7434 269.552 63.1088 268.88C63.8448 268.507 64.4048 268.181 64.7888 267.904C65.1728 267.627 65.4394 267.344 65.5888 267.056C65.7488 266.768 65.8288 266.427 65.8288 266.032C65.8288 265.435 65.6314 264.976 65.2368 264.656C64.8421 264.336 64.2714 264.176 63.5248 264.176C62.7034 264.176 62.0688 264.363 61.6208 264.736C61.1834 265.109 60.9648 265.643 60.9648 266.336C60.9648 266.549 60.9808 266.768 61.0128 266.992C60.9488 267.003 60.8634 267.008 60.7568 267.008C60.3408 267.008 59.9834 266.885 59.6848 266.64C59.3861 266.395 59.2368 266.096 59.2368 265.744C59.2368 265.168 59.4234 264.645 59.7968 264.176C60.1808 263.707 60.6981 263.339 61.3488 263.072C62.0101 262.795 62.7354 262.656 63.5248 262.656C64.3354 262.656 65.0448 262.795 65.6528 263.072C66.2714 263.349 66.7461 263.744 67.0768 264.256C67.4074 264.768 67.5728 265.36 67.5728 266.032C67.5728 266.8 67.2901 267.493 66.7248 268.112C66.1594 268.731 65.2474 269.36 63.9888 270C62.1434 270.928 61.1728 271.765 61.0768 272.512H66.3568C66.7941 272.512 67.1301 272.64 67.3648 272.896C67.6101 273.152 67.7328 273.52 67.7328 274H59.9408ZM77.4783 262.832C77.5743 262.629 77.7129 262.475 77.8943 262.368C78.0863 262.261 78.2943 262.208 78.5183 262.208C78.8276 262.208 79.1316 262.309 79.4303 262.512L73.7343 273.952C73.6276 274.155 73.4836 274.309 73.3023 274.416C73.1209 274.523 72.9236 274.576 72.7103 274.576C72.3796 274.576 72.0703 274.469 71.7823 274.256L77.4783 262.832ZM71.7823 269.264C71.2916 269.264 70.8383 269.168 70.4223 268.976C70.0169 268.773 69.6916 268.507 69.4463 268.176C69.2116 267.845 69.0943 267.483 69.0943 267.088V264.832C69.0943 264.437 69.2116 264.075 69.4463 263.744C69.6916 263.403 70.0169 263.136 70.4223 262.944C70.8383 262.752 71.2916 262.656 71.7823 262.656C72.2729 262.656 72.7209 262.752 73.1263 262.944C73.5423 263.136 73.8676 263.397 74.1023 263.728C74.3369 264.059 74.4543 264.427 74.4543 264.832V267.088C74.4543 267.483 74.3316 267.845 74.0863 268.176C73.8516 268.507 73.5316 268.773 73.1263 268.976C72.7209 269.168 72.2729 269.264 71.7823 269.264ZM71.7823 267.92C72.1129 267.92 72.3743 267.84 72.5663 267.68C72.7689 267.509 72.8703 267.296 72.8703 267.04V264.864C72.8703 264.619 72.7689 264.411 72.5663 264.24C72.3636 264.069 72.1023 263.984 71.7823 263.984C71.4516 263.984 71.1796 264.069 70.9663 264.24C70.7636 264.411 70.6623 264.619 70.6623 264.864V267.04C70.6623 267.296 70.7636 267.509 70.9663 267.68C71.1689 267.84 71.4409 267.92 71.7823 267.92ZM79.4143 274.144C78.9236 274.144 78.4756 274.048 78.0703 273.856C77.6649 273.653 77.3396 273.387 77.0943 273.056C76.8596 272.725 76.7423 272.363 76.7423 271.968V269.712C76.7423 269.317 76.8596 268.955 77.0943 268.624C77.3396 268.293 77.6649 268.032 78.0703 267.84C78.4756 267.637 78.9236 267.536 79.4143 267.536C79.9156 267.536 80.3689 267.632 80.7743 267.824C81.1796 268.016 81.4996 268.277 81.7343 268.608C81.9689 268.939 82.0863 269.307 82.0863 269.712V271.968C82.0863 272.363 81.9689 272.725 81.7343 273.056C81.4996 273.387 81.1743 273.653 80.7583 273.856C80.3529 274.048 79.9049 274.144 79.4143 274.144ZM79.4783 272.768C79.8089 272.768 80.0809 272.688 80.2943 272.528C80.5076 272.357 80.6143 272.149 80.6143 271.904V269.776C80.6143 269.531 80.5023 269.328 80.2783 269.168C80.0649 268.997 79.7983 268.912 79.4783 268.912C79.1476 268.912 78.8703 268.997 78.6463 269.168C78.4329 269.328 78.3263 269.531 78.3263 269.776V271.904C78.3263 272.149 78.4329 272.357 78.6463 272.528C78.8596 272.688 79.1369 272.768 79.4783 272.768Z" fill="white"/>
<path d="M224.974 256.841C223.575 256.841 222.232 257.361 221.243 258.286C220.253 259.211 219.697 260.466 219.697 261.775C219.697 262.037 219.586 262.288 219.388 262.473C219.19 262.658 218.922 262.762 218.642 262.762C218.362 262.762 218.093 262.658 217.896 262.473C217.698 262.288 217.586 262.037 217.586 261.775C217.586 260.409 218.02 259.073 218.831 257.937C219.643 256.801 220.797 255.916 222.147 255.393C223.497 254.87 224.982 254.733 226.415 255C227.848 255.266 229.165 255.924 230.198 256.89C231.231 257.857 231.935 259.087 232.22 260.427C232.505 261.767 232.358 263.156 231.799 264.419C231.24 265.681 230.293 266.76 229.078 267.519C227.863 268.278 226.435 268.683 224.974 268.683H199.645C199.365 268.683 199.097 268.579 198.899 268.394C198.701 268.209 198.59 267.958 198.59 267.696C198.59 267.434 198.701 267.183 198.899 266.998C199.097 266.813 199.365 266.709 199.645 266.709H224.974C226.374 266.709 227.716 266.189 228.705 265.264C229.695 264.339 230.251 263.084 230.251 261.775C230.251 260.466 229.695 259.211 228.705 258.286C227.716 257.361 226.374 256.841 224.974 256.841ZM210.199 258.815C209.639 258.815 209.102 259.023 208.706 259.393C208.311 259.763 208.088 260.265 208.088 260.788C208.088 261.05 207.977 261.301 207.779 261.486C207.581 261.671 207.313 261.775 207.033 261.775C206.753 261.775 206.484 261.671 206.287 261.486C206.089 261.301 205.977 261.05 205.977 260.788C205.977 260.008 206.225 259.244 206.689 258.595C207.153 257.946 207.812 257.44 208.583 257.141C209.355 256.843 210.204 256.764 211.022 256.917C211.841 257.069 212.594 257.445 213.184 257.997C213.774 258.549 214.176 259.252 214.339 260.018C214.502 260.784 214.419 261.578 214.099 262.299C213.78 263.02 213.238 263.637 212.544 264.07C211.85 264.504 211.034 264.736 210.199 264.736H199.645C199.365 264.736 199.097 264.632 198.899 264.447C198.701 264.262 198.59 264.011 198.59 263.749C198.59 263.487 198.701 263.236 198.899 263.051C199.097 262.866 199.365 262.762 199.645 262.762H210.199C210.759 262.762 211.296 262.554 211.691 262.184C212.087 261.814 212.31 261.312 212.31 260.788C212.31 260.265 212.087 259.763 211.691 259.393C211.296 259.023 210.759 258.815 210.199 258.815ZM198.59 271.644C198.59 271.382 198.701 271.131 198.899 270.946C199.097 270.761 199.365 270.657 199.645 270.657H220.841C222.094 270.657 223.318 271.004 224.359 271.655C225.401 272.305 226.212 273.23 226.691 274.312C227.171 275.394 227.296 276.584 227.052 277.733C226.807 278.881 226.204 279.936 225.319 280.765C224.433 281.593 223.305 282.157 222.077 282.385C220.848 282.613 219.575 282.496 218.418 282.048C217.261 281.6 216.272 280.841 215.576 279.867C214.88 278.894 214.509 277.749 214.509 276.578C214.509 276.316 214.62 276.065 214.818 275.88C215.016 275.695 215.284 275.591 215.564 275.591C215.844 275.591 216.113 275.695 216.311 275.88C216.509 276.065 216.62 276.316 216.62 276.578C216.62 277.358 216.867 278.122 217.331 278.771C217.795 279.42 218.454 279.926 219.226 280.225C219.997 280.523 220.846 280.602 221.665 280.449C222.484 280.297 223.236 279.921 223.826 279.369C224.417 278.817 224.819 278.114 224.982 277.348C225.144 276.582 225.061 275.788 224.741 275.067C224.422 274.346 223.881 273.729 223.187 273.296C222.492 272.862 221.676 272.63 220.841 272.63H199.645C199.365 272.63 199.097 272.526 198.899 272.341C198.701 272.156 198.59 271.905 198.59 271.644Z" fill="#F8F8F8"/>
<path d="M241.885 274.743C240.989 274.743 240.205 274.609 239.533 274.343C238.872 274.065 238.36 273.676 237.997 273.175C237.645 272.673 237.469 272.081 237.469 271.399C237.469 270.769 237.64 270.231 237.981 269.783C238.323 269.324 238.835 268.961 239.517 268.695C238.973 268.439 238.557 268.113 238.269 267.719C237.992 267.313 237.853 266.849 237.853 266.327C237.853 265.729 238.024 265.196 238.365 264.727C238.707 264.257 239.181 263.895 239.789 263.639C240.397 263.383 241.096 263.255 241.885 263.255C242.685 263.255 243.389 263.383 243.997 263.639C244.616 263.895 245.091 264.257 245.421 264.727C245.763 265.185 245.933 265.719 245.933 266.327C245.933 266.849 245.789 267.313 245.501 267.719C245.213 268.113 244.797 268.439 244.253 268.695C244.936 268.961 245.448 269.324 245.789 269.783C246.141 270.231 246.317 270.769 246.317 271.399C246.317 272.433 245.923 273.249 245.133 273.847C244.344 274.444 243.261 274.743 241.885 274.743ZM241.885 268.071C242.611 268.071 243.181 267.921 243.597 267.623C244.024 267.324 244.237 266.913 244.237 266.391C244.237 265.836 244.04 265.42 243.645 265.143C243.251 264.855 242.664 264.711 241.885 264.711C241.117 264.711 240.531 264.855 240.125 265.143C239.731 265.431 239.533 265.847 239.533 266.391C239.533 266.903 239.747 267.313 240.173 267.623C240.6 267.921 241.171 268.071 241.885 268.071ZM241.885 273.287C242.781 273.287 243.459 273.121 243.917 272.791C244.387 272.46 244.621 271.98 244.621 271.351C244.621 270.721 244.381 270.236 243.901 269.895C243.432 269.543 242.76 269.367 241.885 269.367C241.021 269.367 240.349 269.543 239.869 269.895C239.389 270.236 239.149 270.721 239.149 271.351C239.149 271.98 239.384 272.46 239.853 272.791C240.323 273.121 241 273.287 241.885 273.287ZM254.888 274.311C254.686 274.599 254.403 274.743 254.04 274.743C253.859 274.743 253.699 274.705 253.56 274.631C253.422 274.556 253.294 274.428 253.176 274.247L250.776 270.551L249.624 271.591V273.671C249.624 274.385 249.096 274.743 248.04 274.743V264.535C248.04 263.681 248.574 263.255 249.64 263.255L249.624 269.911L253.432 266.471C253.816 266.801 254.008 267.079 254.008 267.303C254.008 267.452 253.971 267.58 253.896 267.687C253.822 267.783 253.688 267.921 253.496 268.103L251.752 269.687L254.888 274.311ZM256.665 267.751C256.665 266.887 257.172 266.455 258.185 266.455V267.463C258.079 267.569 257.961 267.719 257.833 267.911L257.913 267.975C258.255 267.484 258.612 267.111 258.985 266.855C259.359 266.588 259.801 266.455 260.313 266.455C261.273 266.455 261.929 266.913 262.281 267.831C262.879 266.913 263.689 266.455 264.713 266.455C265.46 266.455 266.041 266.711 266.457 267.223C266.884 267.735 267.097 268.401 267.097 269.223V273.655C267.097 274.028 266.964 274.305 266.697 274.487C266.441 274.657 266.047 274.743 265.513 274.743V269.335C265.513 268.321 265.103 267.815 264.281 267.815C263.833 267.815 263.449 267.969 263.129 268.279C262.82 268.577 262.665 268.999 262.665 269.543V273.655C262.665 274.039 262.537 274.316 262.281 274.487C262.025 274.657 261.636 274.743 261.113 274.743V269.335C261.113 268.865 261.012 268.497 260.809 268.231C260.607 267.953 260.292 267.815 259.865 267.815C259.396 267.815 259.007 267.985 258.697 268.327C258.399 268.657 258.249 269.079 258.249 269.591V273.655C258.249 274.028 258.116 274.305 257.849 274.487C257.593 274.657 257.199 274.743 256.665 274.743V267.751ZM274.4 263.431C274.496 263.228 274.634 263.073 274.816 262.967C275.008 262.86 275.216 262.807 275.44 262.807C275.76 262.807 276.069 262.908 276.368 263.111L270.64 274.551C270.533 274.753 270.389 274.908 270.208 275.015C270.037 275.121 269.84 275.175 269.616 275.175C269.296 275.175 268.992 275.068 268.704 274.855L274.4 263.431ZM278.103 264.551C278.103 264.135 278.236 263.815 278.503 263.591C278.78 263.367 279.18 263.255 279.703 263.255V267.447C279.586 267.564 279.463 267.719 279.335 267.911L279.415 267.975C279.746 267.516 280.156 267.148 280.647 266.871C281.138 266.593 281.676 266.455 282.263 266.455C283.116 266.455 283.794 266.716 284.295 267.239C284.796 267.751 285.047 268.412 285.047 269.223V273.655C285.047 274.028 284.914 274.305 284.647 274.487C284.391 274.657 283.996 274.743 283.463 274.743V269.415C283.463 268.945 283.324 268.567 283.047 268.279C282.77 267.991 282.364 267.847 281.831 267.847C281.458 267.847 281.106 267.932 280.775 268.103C280.444 268.263 280.183 268.481 279.991 268.759C279.799 269.036 279.703 269.34 279.703 269.671V273.655C279.703 274.028 279.57 274.305 279.303 274.487C279.036 274.657 278.636 274.743 278.103 274.743V264.551Z" fill="white"/>
<path d="M134.081 263.743C132.943 263.772 131.838 263.37 131.01 262.625C130.181 261.88 129.696 260.853 129.662 259.768C129.682 258.994 129.932 258.241 130.383 257.596L133.164 253.655C133.271 253.519 133.41 253.409 133.569 253.334C133.728 253.258 133.904 253.218 134.081 253.218C134.259 253.218 134.435 253.258 134.594 253.334C134.753 253.409 134.892 253.519 134.999 253.655L137.744 257.545C138.214 258.202 138.476 258.974 138.501 259.768C138.466 260.853 137.982 261.88 137.153 262.625C136.325 263.37 135.22 263.772 134.081 263.743ZM134.081 256.127L132.252 258.719C132.023 259.027 131.891 259.391 131.871 259.768C131.936 260.284 132.196 260.759 132.603 261.103C133.011 261.448 133.537 261.638 134.081 261.638C134.626 261.638 135.152 261.448 135.56 261.103C135.967 260.759 136.227 260.284 136.291 259.768C136.267 259.371 136.123 258.988 135.877 258.666L134.081 256.127ZM131.319 282.687H114.744C112.964 282.688 111.247 282.06 109.926 280.924C108.605 279.788 107.774 278.224 107.595 276.538C107.416 274.851 107.901 273.161 108.957 271.796C110.013 270.431 111.563 269.488 113.308 269.15C113.779 267.027 115.002 265.121 116.772 263.754C118.542 262.387 120.752 261.64 123.032 261.64C125.311 261.64 127.521 262.387 129.291 263.754C131.062 265.121 132.285 267.027 132.755 269.15C134.5 269.488 136.05 270.431 137.106 271.796C138.162 273.161 138.647 274.851 138.468 276.538C138.289 278.224 137.459 279.788 136.137 280.924C134.816 282.06 133.099 282.688 131.319 282.687ZM123.032 263.743C121.145 263.745 119.324 264.403 117.912 265.594C116.499 266.785 115.592 268.427 115.362 270.21L115.251 271.065L114.351 271.132C113.068 271.225 111.874 271.788 111.018 272.703C110.163 273.618 109.713 274.813 109.764 276.038C109.815 277.262 110.362 278.419 111.291 279.267C112.22 280.114 113.458 280.586 114.744 280.582H131.319C132.605 280.586 133.843 280.114 134.772 279.267C135.701 278.419 136.248 277.262 136.299 276.038C136.35 274.813 135.901 273.618 135.045 272.703C134.19 271.788 132.995 271.225 131.712 271.132L130.812 271.065L130.702 270.21C130.472 268.427 129.564 266.785 128.152 265.594C126.739 264.403 124.918 263.745 123.032 263.743Z" fill="#F8F8F8"/>
<path d="M146.85 264.291H145.954C145.559 264.291 145.25 264.157 145.026 263.891C144.812 263.624 144.706 263.261 144.706 262.803H147.762C147.996 262.803 148.188 262.877 148.338 263.027C148.487 263.165 148.562 263.341 148.562 263.555V272.787C148.562 273.224 148.412 273.56 148.114 273.795C147.826 274.029 147.404 274.147 146.85 274.147V264.291ZM151.118 274.003C150.873 274.003 150.681 273.939 150.542 273.811C150.404 273.672 150.334 273.485 150.334 273.251C150.334 272.429 150.649 271.667 151.278 270.963C151.918 270.248 152.921 269.555 154.286 268.883C155.022 268.509 155.582 268.184 155.966 267.907C156.35 267.629 156.617 267.347 156.766 267.059C156.926 266.771 157.006 266.429 157.006 266.035C157.006 265.437 156.809 264.979 156.414 264.659C156.02 264.339 155.449 264.179 154.702 264.179C153.881 264.179 153.246 264.365 152.798 264.739C152.361 265.112 152.142 265.645 152.142 266.339C152.142 266.552 152.158 266.771 152.19 266.995C152.126 267.005 152.041 267.011 151.934 267.011C151.518 267.011 151.161 266.888 150.862 266.643C150.564 266.397 150.414 266.099 150.414 265.747C150.414 265.171 150.601 264.648 150.974 264.179C151.358 263.709 151.876 263.341 152.526 263.075C153.188 262.797 153.913 262.659 154.702 262.659C155.513 262.659 156.222 262.797 156.83 263.075C157.449 263.352 157.924 263.747 158.254 264.259C158.585 264.771 158.75 265.363 158.75 266.035C158.75 266.803 158.468 267.496 157.902 268.115C157.337 268.733 156.425 269.363 155.166 270.003C153.321 270.931 152.35 271.768 152.254 272.515H157.534C157.972 272.515 158.308 272.643 158.542 272.899C158.788 273.155 158.91 273.523 158.91 274.003H151.118ZM168.656 262.835C168.752 262.632 168.891 262.477 169.072 262.371C169.264 262.264 169.472 262.211 169.696 262.211C170.005 262.211 170.309 262.312 170.608 262.515L164.912 273.955C164.805 274.157 164.661 274.312 164.48 274.419C164.299 274.525 164.101 274.579 163.888 274.579C163.557 274.579 163.248 274.472 162.96 274.259L168.656 262.835ZM162.96 269.267C162.469 269.267 162.016 269.171 161.6 268.979C161.195 268.776 160.869 268.509 160.624 268.179C160.389 267.848 160.272 267.485 160.272 267.091V264.835C160.272 264.44 160.389 264.077 160.624 263.747C160.869 263.405 161.195 263.139 161.6 262.947C162.016 262.755 162.469 262.659 162.96 262.659C163.451 262.659 163.899 262.755 164.304 262.947C164.72 263.139 165.045 263.4 165.28 263.731C165.515 264.061 165.632 264.429 165.632 264.835V267.091C165.632 267.485 165.509 267.848 165.264 268.179C165.029 268.509 164.709 268.776 164.304 268.979C163.899 269.171 163.451 269.267 162.96 269.267ZM162.96 267.923C163.291 267.923 163.552 267.843 163.744 267.683C163.947 267.512 164.048 267.299 164.048 267.043V264.867C164.048 264.621 163.947 264.413 163.744 264.243C163.541 264.072 163.28 263.987 162.96 263.987C162.629 263.987 162.357 264.072 162.144 264.243C161.941 264.413 161.84 264.621 161.84 264.867V267.043C161.84 267.299 161.941 267.512 162.144 267.683C162.347 267.843 162.619 267.923 162.96 267.923ZM170.592 274.147C170.101 274.147 169.653 274.051 169.248 273.859C168.843 273.656 168.517 273.389 168.272 273.059C168.037 272.728 167.92 272.365 167.92 271.971V269.715C167.92 269.32 168.037 268.957 168.272 268.627C168.517 268.296 168.843 268.035 169.248 267.843C169.653 267.64 170.101 267.539 170.592 267.539C171.093 267.539 171.547 267.635 171.952 267.827C172.357 268.019 172.677 268.28 172.912 268.611C173.147 268.941 173.264 269.309 173.264 269.715V271.971C173.264 272.365 173.147 272.728 172.912 273.059C172.677 273.389 172.352 273.656 171.936 273.859C171.531 274.051 171.083 274.147 170.592 274.147ZM170.656 272.771C170.987 272.771 171.259 272.691 171.472 272.531C171.685 272.36 171.792 272.152 171.792 271.907V269.779C171.792 269.533 171.68 269.331 171.456 269.171C171.243 269 170.976 268.915 170.656 268.915C170.325 268.915 170.048 269 169.824 269.171C169.611 269.331 169.504 269.533 169.504 269.779V271.907C169.504 272.152 169.611 272.36 169.824 272.531C170.037 272.691 170.315 272.771 170.656 272.771Z" fill="white"/>
<path d="M291.702 60.1838C289.573 60.1838 287.787 59.5212 286.344 58.1961C284.902 56.8709 284.183 55.2329 284.188 53.282V46.3802C284.188 44.4247 284.909 42.7843 286.352 41.4592C287.795 40.134 289.578 39.4738 291.702 39.4784C293.831 39.4784 295.617 40.1409 297.06 41.4661C298.502 42.7912 299.221 44.4293 299.216 46.3802V53.282C299.216 55.2375 298.495 56.8778 297.052 58.203C295.609 59.5281 293.826 60.1884 291.702 60.1838ZM291.702 191.318C289.573 191.318 287.787 190.656 286.344 189.33C284.902 188.005 284.183 186.367 284.188 184.416V177.514C284.188 175.559 284.909 173.919 286.352 172.593C287.795 171.268 289.578 170.608 291.702 170.613C293.831 170.613 295.617 171.275 297.06 172.6C298.502 173.926 299.221 175.564 299.216 177.514V184.416C299.216 186.372 298.495 188.012 297.052 189.337C295.609 190.662 293.826 191.323 291.702 191.318ZM216.559 122.3C214.43 122.3 212.644 121.637 211.202 120.312C209.759 118.987 209.04 117.349 209.045 115.398C209.045 113.443 209.766 111.802 211.209 110.477C212.652 109.152 214.435 108.492 216.559 108.496H224.074C226.203 108.496 227.988 109.159 229.431 110.484C230.874 111.809 231.593 113.447 231.588 115.398C231.588 117.354 230.866 118.994 229.424 120.319C227.981 121.644 226.198 122.305 224.074 122.3H216.559ZM233.278 169.06C231.776 167.679 231.024 166.011 231.024 164.056C231.024 162.1 231.776 160.433 233.278 159.052L236.096 156.637C237.599 155.371 239.353 154.739 241.356 154.739C243.36 154.739 245.113 155.429 246.616 156.809C247.994 158.074 248.715 159.685 248.78 161.64C248.846 163.596 248.124 165.206 246.616 166.472L243.986 169.06C242.609 170.44 240.855 171.13 238.726 171.13C236.597 171.13 234.781 170.44 233.278 169.06ZM236.096 73.9874L233.278 71.5718C231.776 70.3064 231.024 68.696 231.024 66.7405C231.024 64.785 231.776 63.1171 233.278 61.7367C234.781 60.3563 236.597 59.6662 238.726 59.6662C240.855 59.6662 242.671 60.3563 244.174 61.7367L246.804 64.3249C248.182 65.7052 248.871 67.3157 248.871 69.1561C248.871 70.9966 248.119 72.607 246.616 73.9874C245.239 75.2527 243.518 75.8854 241.454 75.8854C239.39 75.8854 237.604 75.2527 236.096 73.9874Z" fill="#FFC700"/>
<path d="M299.999 68.1273C292.857 68.1273 285.786 69.35 279.188 71.7256C272.59 74.1012 266.595 77.5832 261.545 81.9727C256.495 86.3622 252.49 91.5733 249.757 97.3084C247.024 103.044 245.617 109.191 245.617 115.398C245.617 121.606 247.024 127.753 249.757 133.488C252.49 139.223 256.495 144.434 261.545 148.824C266.595 153.213 272.59 156.695 279.188 159.071C285.786 161.446 292.857 162.669 299.999 162.669L299.999 115.398V68.1273Z" fill="#FFC700"/>
<path d="M39.3836 19.3288C39.3836 19.0061 39.4936 18.7421 39.7136 18.5368C39.9483 18.3314 40.2416 18.2288 40.5936 18.2288H46.9076C47.905 18.2288 48.785 18.4341 49.5476 18.8448C50.325 19.2408 50.9263 19.8128 51.3516 20.5608C51.777 21.2941 51.9896 22.1448 51.9896 23.1128C51.9896 24.0955 51.777 24.9608 51.3516 25.7088C50.941 26.4568 50.347 27.0361 49.5696 27.4468C48.807 27.8428 47.9196 28.0408 46.9076 28.0408H41.7596V31.9568C41.7596 32.5581 41.5543 33.0201 41.1436 33.3428C40.733 33.6655 40.1463 33.8268 39.3836 33.8268V19.3288ZM46.9076 25.9728C47.7583 25.9728 48.4256 25.7235 48.9096 25.2248C49.3936 24.7115 49.6356 24.0075 49.6356 23.1128C49.6356 22.2475 49.3863 21.5655 48.8876 21.0668C48.4036 20.5535 47.7436 20.2968 46.9076 20.2968H41.7596V25.9728H46.9076ZM56.5708 33.8268C55.3535 33.8268 54.3561 33.4968 53.5788 32.8368C52.8015 32.1621 52.4128 31.2675 52.4128 30.1528C52.4128 29.0235 52.8235 28.1215 53.6448 27.4468C54.4661 26.7721 55.5295 26.4348 56.8348 26.4348C58.2135 26.4348 59.3501 26.9041 60.2448 27.8428L60.3328 27.7548C60.1421 27.5495 59.9441 27.3588 59.7388 27.1828V26.4348C59.7388 25.7308 59.5115 25.1881 59.0568 24.8068C58.6021 24.4108 57.9641 24.2128 57.1428 24.2128C55.6615 24.2128 54.5908 24.7848 53.9308 25.9288C53.6521 25.8115 53.4248 25.6501 53.2488 25.4448C53.0875 25.2248 53.0068 25.0048 53.0068 24.7848C53.0068 24.3741 53.2048 23.9928 53.6008 23.6408C53.9968 23.2741 54.5248 22.9808 55.1848 22.7608C55.8448 22.5408 56.5488 22.4308 57.2968 22.4308C58.7341 22.4308 59.8635 22.7828 60.6848 23.4868C61.5061 24.1908 61.9168 25.1515 61.9168 26.3688V32.2208C61.9168 32.7781 61.7481 33.1888 61.4108 33.4528C61.0735 33.7021 60.5528 33.8268 59.8488 33.8268V32.8368C60.1568 32.4995 60.3255 32.3088 60.3548 32.2648L60.2668 32.1768C59.7828 32.7341 59.2401 33.1521 58.6388 33.4308C58.0521 33.6948 57.3628 33.8268 56.5708 33.8268ZM57.0328 32.1548C57.8981 32.1548 58.5728 31.9788 59.0568 31.6268C59.5408 31.2748 59.7828 30.7835 59.7828 30.1528C59.7828 29.5221 59.5408 29.0235 59.0568 28.6568C58.5728 28.2901 57.9128 28.1068 57.0768 28.1068C56.2995 28.1068 55.6835 28.2901 55.2288 28.6568C54.7741 29.0235 54.5468 29.5221 54.5468 30.1528C54.5468 30.7835 54.7668 31.2748 55.2068 31.6268C55.6468 31.9788 56.2555 32.1548 57.0328 32.1548ZM64.7137 24.2128C64.7137 23.0248 65.4177 22.4308 66.8257 22.4308V23.8168C66.6791 23.9635 66.5177 24.1688 66.3417 24.4328L66.4517 24.5208C66.8917 23.8901 67.4564 23.3841 68.1457 23.0028C68.8497 22.6215 69.6124 22.4308 70.4337 22.4308C71.6071 22.4308 72.5384 22.7901 73.2277 23.5088C73.9171 24.2128 74.2617 25.1221 74.2617 26.2368V32.3308C74.2617 32.8441 74.0784 33.2255 73.7117 33.4748C73.3597 33.7095 72.8171 33.8268 72.0837 33.8268V26.5008C72.0837 25.8555 71.8931 25.3348 71.5117 24.9388C71.1304 24.5428 70.5731 24.3448 69.8397 24.3448C69.3264 24.3448 68.8424 24.4621 68.3877 24.6968C67.9331 24.9168 67.5737 25.2175 67.3097 25.5988C67.0457 25.9801 66.9137 26.3981 66.9137 26.8528V32.3308C66.9137 32.8588 66.7304 33.2401 66.3637 33.4748C66.0117 33.7095 65.4617 33.8268 64.7137 33.8268V24.2128ZM78.7954 20.9788C78.3554 20.9788 77.9814 20.8394 77.6734 20.5608C77.3801 20.2821 77.2334 19.9301 77.2334 19.5048C77.2334 19.0795 77.3801 18.7275 77.6734 18.4488C77.9814 18.1701 78.3554 18.0308 78.7954 18.0308C79.2501 18.0308 79.6241 18.1701 79.9174 18.4488C80.2254 18.7275 80.3794 19.0795 80.3794 19.5048C80.3794 19.9301 80.2254 20.2821 79.9174 20.5608C79.6241 20.8394 79.2501 20.9788 78.7954 20.9788ZM76.3314 38.2268C75.6421 38.2268 75.0774 38.0581 74.6374 37.7208C74.2121 37.3981 73.9994 37.0095 73.9994 36.5548C73.9994 36.1735 74.1388 35.8875 74.4174 35.6968C74.6081 35.8875 74.8501 36.0341 75.1434 36.1368C75.4368 36.2541 75.7521 36.3128 76.0894 36.3128C77.1748 36.3128 77.7174 35.7408 77.7174 34.5968V23.9268C77.7174 23.3988 77.8934 23.0175 78.2454 22.7828C78.6121 22.5481 79.1621 22.4308 79.8954 22.4308V34.6408C79.8954 35.6821 79.5728 36.5401 78.9274 37.2148C78.2968 37.8895 77.4314 38.2268 76.3314 38.2268ZM84.8602 20.9788C84.4202 20.9788 84.0462 20.8394 83.7382 20.5608C83.4302 20.2821 83.2762 19.9301 83.2762 19.5048C83.2762 19.0795 83.4302 18.7275 83.7382 18.4488C84.0462 18.1701 84.4202 18.0308 84.8602 18.0308C85.3002 18.0308 85.6669 18.1701 85.9602 18.4488C86.2682 18.7275 86.4222 19.0795 86.4222 19.5048C86.4222 19.9301 86.2682 20.2821 85.9602 20.5608C85.6669 20.8394 85.3002 20.9788 84.8602 20.9788ZM83.7602 23.9268C83.7602 23.3988 83.9362 23.0175 84.2882 22.7828C84.6549 22.5481 85.2049 22.4308 85.9382 22.4308V32.3308C85.9382 32.8441 85.7549 33.2255 85.3882 33.4748C85.0362 33.7095 84.4936 33.8268 83.7602 33.8268V23.9268ZM89.3348 24.2128C89.3348 23.0248 90.0315 22.4308 91.4248 22.4308V23.8168C91.2781 23.9635 91.1168 24.1688 90.9408 24.4328L91.0508 24.5208C91.5201 23.8461 92.0115 23.3328 92.5248 22.9808C93.0381 22.6141 93.6468 22.4308 94.3508 22.4308C95.6708 22.4308 96.5728 23.0615 97.0568 24.3228C97.8781 23.0615 98.9928 22.4308 100.401 22.4308C101.427 22.4308 102.227 22.7828 102.799 23.4868C103.385 24.1908 103.679 25.1075 103.679 26.2368V32.3308C103.679 32.8441 103.495 33.2255 103.129 33.4748C102.777 33.7095 102.234 33.8268 101.501 33.8268V26.3908C101.501 24.9975 100.936 24.3008 99.8068 24.3008C99.1908 24.3008 98.6628 24.5135 98.2228 24.9388C97.7975 25.3495 97.5848 25.9288 97.5848 26.6768V32.3308C97.5848 32.8588 97.4088 33.2401 97.0568 33.4748C96.7048 33.7095 96.1695 33.8268 95.4508 33.8268V26.3908C95.4508 25.7455 95.3115 25.2395 95.0328 24.8728C94.7541 24.4915 94.3215 24.3008 93.7348 24.3008C93.0895 24.3008 92.5541 24.5355 92.1288 25.0048C91.7181 25.4595 91.5128 26.0388 91.5128 26.7428V32.3308C91.5128 32.8441 91.3295 33.2255 90.9628 33.4748C90.6108 33.7095 90.0681 33.8268 89.3348 33.8268V24.2128ZM106.261 36.6868C106.804 36.2028 107.207 35.6968 107.471 35.1688C107.75 34.6555 107.889 34.1715 107.889 33.7168C107.713 33.7901 107.537 33.8268 107.361 33.8268C106.921 33.8268 106.562 33.6801 106.283 33.3868C106.019 33.0935 105.887 32.7121 105.887 32.2428C105.887 31.7441 106.049 31.3408 106.371 31.0328C106.694 30.7101 107.105 30.5488 107.603 30.5488C108.131 30.5488 108.557 30.7248 108.879 31.0768C109.202 31.4141 109.363 31.8248 109.363 32.3088C109.363 33.3061 109.202 34.1495 108.879 34.8388C108.571 35.5281 108.117 36.1295 107.515 36.6428C107.369 36.7748 107.134 36.8408 106.811 36.8408C106.547 36.8408 106.364 36.7895 106.261 36.6868ZM123.663 33.8268C122.402 33.8268 121.272 33.5921 120.275 33.1228C119.292 32.6388 118.522 31.9715 117.965 31.1208C117.422 30.2701 117.151 29.3021 117.151 28.2168V23.5968C117.151 22.5115 117.422 21.5508 117.965 20.7148C118.508 19.8641 119.263 19.2041 120.231 18.7348C121.199 18.2654 122.306 18.0308 123.553 18.0308C124.8 18.0308 125.907 18.2288 126.875 18.6248C127.858 19.0061 128.62 19.5415 129.163 20.2308C129.706 20.9201 129.977 21.7048 129.977 22.5848C129.977 23.0541 129.816 23.4281 129.493 23.7068C129.185 23.9708 128.767 24.1028 128.239 24.1028C128.048 24.1028 127.843 24.0808 127.623 24.0368C127.652 23.8021 127.667 23.5015 127.667 23.1348C127.667 22.5335 127.491 22.0055 127.139 21.5508C126.787 21.0815 126.296 20.7221 125.665 20.4728C125.049 20.2088 124.345 20.0768 123.553 20.0768C122.365 20.0768 121.39 20.4068 120.627 21.0668C119.879 21.7121 119.505 22.5555 119.505 23.5968V28.2168C119.505 28.9061 119.681 29.5221 120.033 30.0648C120.385 30.6075 120.876 31.0328 121.507 31.3408C122.138 31.6341 122.856 31.7808 123.663 31.7808C124.866 31.7808 125.841 31.4948 126.589 30.9228C127.352 30.3361 127.733 29.5735 127.733 28.6348V27.6008H125.247C124.763 27.6008 124.367 27.4248 124.059 27.0728C123.751 26.7061 123.597 26.2368 123.597 25.6648H128.965C129.288 25.6648 129.552 25.7675 129.757 25.9728C129.977 26.1781 130.087 26.4421 130.087 26.7648V28.6788C130.087 29.6761 129.816 30.5708 129.273 31.3628C128.73 32.1401 127.968 32.7488 126.985 33.1888C126.017 33.6141 124.91 33.8268 123.663 33.8268ZM136.423 33.8268C135.499 33.8268 134.67 33.6581 133.937 33.3208C133.203 32.9835 132.624 32.5215 132.199 31.9348C131.788 31.3335 131.583 30.6661 131.583 29.9328V26.4788C131.583 25.7308 131.788 25.0488 132.199 24.4328C132.609 23.8168 133.181 23.3328 133.915 22.9808C134.648 22.6141 135.484 22.4308 136.423 22.4308C137.361 22.4308 138.197 22.6141 138.931 22.9808C139.664 23.3328 140.236 23.8168 140.647 24.4328C141.072 25.0488 141.285 25.7308 141.285 26.4788V29.9328C141.285 30.6661 141.072 31.3335 140.647 31.9348C140.236 32.5215 139.657 32.9835 138.909 33.3208C138.175 33.6581 137.347 33.8268 136.423 33.8268ZM136.423 31.9348C137.259 31.9348 137.919 31.7441 138.403 31.3628C138.887 30.9668 139.129 30.4461 139.129 29.8008V26.5668C139.129 25.8921 138.879 25.3495 138.381 24.9388C137.897 24.5281 137.244 24.3228 136.423 24.3228C135.601 24.3228 134.941 24.5281 134.443 24.9388C133.959 25.3495 133.717 25.8921 133.717 26.5668V29.8008C133.717 30.4461 133.959 30.9668 134.443 31.3628C134.927 31.7441 135.587 31.9348 136.423 31.9348ZM146.741 33.8268C145.523 33.8268 144.526 33.4968 143.749 32.8368C142.971 32.1621 142.583 31.2675 142.583 30.1528C142.583 29.0235 142.993 28.1215 143.815 27.4468C144.636 26.7721 145.699 26.4348 147.005 26.4348C148.383 26.4348 149.52 26.9041 150.415 27.8428L150.503 27.7548C150.312 27.5495 150.114 27.3588 149.909 27.1828V26.4348C149.909 25.7308 149.681 25.1881 149.227 24.8068C148.772 24.4108 148.134 24.2128 147.313 24.2128C145.831 24.2128 144.761 24.7848 144.101 25.9288C143.822 25.8115 143.595 25.6501 143.419 25.4448C143.257 25.2248 143.177 25.0048 143.177 24.7848C143.177 24.3741 143.375 23.9928 143.771 23.6408C144.167 23.2741 144.695 22.9808 145.355 22.7608C146.015 22.5408 146.719 22.4308 147.467 22.4308C148.904 22.4308 150.033 22.7828 150.855 23.4868C151.676 24.1908 152.087 25.1515 152.087 26.3688V32.2208C152.087 32.7781 151.918 33.1888 151.581 33.4528C151.243 33.7021 150.723 33.8268 150.019 33.8268V32.8368C150.327 32.4995 150.495 32.3088 150.525 32.2648L150.437 32.1768C149.953 32.7341 149.41 33.1521 148.809 33.4308C148.222 33.6948 147.533 33.8268 146.741 33.8268ZM147.203 32.1548C148.068 32.1548 148.743 31.9788 149.227 31.6268C149.711 31.2748 149.953 30.7835 149.953 30.1528C149.953 29.5221 149.711 29.0235 149.227 28.6568C148.743 28.2901 148.083 28.1068 147.247 28.1068C146.469 28.1068 145.853 28.2901 145.399 28.6568C144.944 29.0235 144.717 29.5221 144.717 30.1528C144.717 30.7835 144.937 31.2748 145.377 31.6268C145.817 31.9788 146.425 32.1548 147.203 32.1548Z" fill="white"/>
<path d="M18.9462 11.5324C21.738 11.5324 24.4154 12.7884 26.3895 15.0242C28.3635 17.2599 29.4726 20.2922 29.4726 23.454C29.4726 28.3895 26.1509 33.5609 19.648 39.0845C19.4455 39.2565 19.1993 39.3495 18.9462 39.3495C18.6932 39.3495 18.4469 39.2565 18.2445 39.0845C11.7416 33.5609 8.41992 28.3895 8.41992 23.454C8.41992 20.2922 9.52894 17.2599 11.503 15.0242C13.4771 12.7884 16.1545 11.5324 18.9462 11.5324ZM18.9462 14.1817C16.7749 14.1817 14.6924 15.1586 13.1571 16.8975C11.6217 18.6364 10.7591 20.9948 10.7591 23.454C10.7591 27.0437 13.2363 31.1845 18.3006 35.7809L18.9462 36.3585L19.5919 35.7809C24.6562 31.1845 27.1334 27.0437 27.1334 23.454C27.1334 20.9948 26.2708 18.6364 24.7354 16.8975C23.2 15.1586 21.1176 14.1817 18.9462 14.1817ZM18.9462 20.8048C19.5666 20.8048 20.1616 21.0839 20.6003 21.5807C21.039 22.0775 21.2854 22.7514 21.2854 23.454C21.2854 24.1566 21.039 24.8305 20.6003 25.3273C20.1616 25.8241 19.5666 26.1032 18.9462 26.1032C18.3258 26.1032 17.7309 25.8241 17.2922 25.3273C16.8535 24.8305 16.6071 24.1566 16.6071 23.454C16.6071 22.7514 16.8535 22.0775 17.2922 21.5807C17.7309 21.0839 18.3258 20.8048 18.9462 20.8048Z" fill="#F8F8F8"/>
</svg>
